<?xml version="1.0" encoding="utf-8"?>
<!-- Generator: Adobe Illustrator 19.2.1, SVG Export Plug-In . SVG Version: 6.00 Build 0)  -->
<svg version="1.1" id="Layer_1" xmlns="http://www.w3.org/2000/svg" xmlns:xlink="http://www.w3.org/1999/xlink" x="0px" y="0px"
	 viewBox="0 0 172.001 125.563" enable-background="new 0 0 172.001 125.563" xml:space="preserve">
<g>
	<rect x="3" y="31.597" fill="none" stroke="#35495E" stroke-width="6" stroke-miterlimit="10" width="166.001" height="23.367"/>
	<rect x="3" y="99.196" fill="none" stroke="#35495E" stroke-width="6" stroke-miterlimit="10" width="166.001" height="23.367"/>
	<rect x="3" y="65.396" fill="none" stroke="#35495E" stroke-width="6" stroke-miterlimit="10" width="166.001" height="23.369"/>
	
		<rect x="9.286" y="54.964" fill="none" stroke="#35495E" stroke-width="3" stroke-miterlimit="10" width="153.499" height="10.08"/>
	
		<rect x="9.25" y="88.765" fill="none" stroke="#35495E" stroke-width="3" stroke-miterlimit="10" width="153.501" height="10.078"/>
	<circle fill="#35495E" cx="13.636" cy="43.281" r="2.135"/>
	<circle fill="#35495E" cx="25.636" cy="43.281" r="2.135"/>
	<circle fill="#35495E" cx="37.636" cy="43.281" r="2.135"/>
	
		<line fill="none" stroke="#35495E" stroke-width="3" stroke-linecap="square" stroke-miterlimit="10" x1="65.065" y1="43.281" x2="107.007" y2="43.281"/>
	<circle fill="#F8C957" stroke="#35495E" stroke-width="3" stroke-miterlimit="10" cx="139.126" cy="43.281" r="5.338"/>
	<circle fill="#35495E" cx="13.636" cy="77.081" r="2.135"/>
	<circle fill="#35495E" cx="25.636" cy="77.081" r="2.135"/>
	<circle fill="#35495E" cx="37.636" cy="77.081" r="2.135"/>
	<circle fill="#F8C957" stroke="#35495E" stroke-width="3" stroke-miterlimit="10" cx="139.126" cy="77.081" r="5.338"/>
	<circle fill="#35495E" cx="13.636" cy="110.88" r="2.135"/>
	<circle fill="#35495E" cx="25.636" cy="110.88" r="2.135"/>
	<circle fill="#35495E" cx="37.636" cy="110.88" r="2.135"/>
	
		<ellipse fill="#F8C957" stroke="#35495E" stroke-width="3" stroke-miterlimit="10" cx="139.126" cy="110.88" rx="5.339" ry="5.337"/>
	<path fill="none" stroke="#F8C957" stroke-width="3" stroke-miterlimit="10" d="M65.065,22.471
		c0-11.582,9.389-20.971,20.971-20.971s20.971,9.389,20.971,20.971"/>
	<path fill="none" stroke="#F8C957" stroke-width="3" stroke-miterlimit="10" d="M75.551,22.472c0-5.791,4.694-10.486,10.485-10.486
		s10.485,4.695,10.485,10.486"/>
	
		<line fill="none" stroke="#35495E" stroke-width="3" stroke-linecap="square" stroke-miterlimit="10" x1="65.065" y1="77.081" x2="107.007" y2="77.081"/>
	
		<line fill="none" stroke="#35495E" stroke-width="3" stroke-linecap="square" stroke-miterlimit="10" x1="65.065" y1="110.88" x2="107.007" y2="110.88"/>
</g>
</svg>
