<?xml version="1.0" encoding="utf-8"?>
<!-- Generator: Adobe Illustrator 19.2.1, SVG Export Plug-In . SVG Version: 6.00 Build 0)  -->
<svg version="1.1" id="Layer_1" xmlns="http://www.w3.org/2000/svg" xmlns:xlink="http://www.w3.org/1999/xlink" x="0px" y="0px"
	 viewBox="0 0 171.694 127.543" enable-background="new 0 0 171.694 127.543" xml:space="preserve">
<g>
	<polyline fill="none" stroke="#35495E" stroke-width="6" stroke-miterlimit="10" points="137.161,9.167 149.899,9.167 
		149.899,63.898 149.899,118.63 137.161,118.63 	"/>
	<polygon fill="#F8C957" points="13.478,105.323 13.478,60.954 13.478,12.135 8.238,12.135 3,12.135 3,60.954 3,105.323 	"/>
	<polygon fill="none" stroke="#35495E" stroke-width="6" stroke-miterlimit="10" points="52.961,3.253 129.478,3.253 
		129.478,124.543 33.252,124.543 33.252,23.055 	"/>
	<polyline fill="none" stroke="#35495E" stroke-width="3" stroke-miterlimit="10" points="52.961,2.633 52.961,22.342 
		33.252,22.342 	"/>
	<polyline fill="none" stroke="#35495E" stroke-width="6" stroke-miterlimit="10" points="158.149,15.132 168.694,15.132 
		168.694,63.898 168.694,112.664 158.149,112.664 	"/>
	<circle fill="#F8C957" stroke="#35495E" stroke-width="3" stroke-miterlimit="10" cx="96.432" cy="49.472" r="10.211"/>
	
		<rect x="86.223" y="68.117" fill="#F8C957" stroke="#35495E" stroke-width="3" stroke-miterlimit="10" width="20.421" height="20.42"/>
	
		<rect x="56.088" y="39.261" fill="#F8C957" stroke="#35495E" stroke-width="3" stroke-miterlimit="10" width="20.42" height="49.276"/>
	<rect x="3" y="3" fill="none" width="10.478" height="9.135"/>
	<line fill="none" stroke="#35495E" stroke-width="3" stroke-miterlimit="10" x1="3" y1="12.135" x2="13.478" y2="12.135"/>
	<polygon fill="none" points="3,105.703 8.24,117.796 13.478,105.703 	"/>
	<line fill="none" stroke="#35495E" stroke-width="3" stroke-miterlimit="10" x1="3" y1="105.69" x2="13.478" y2="105.69"/>
	<polygon fill="none" stroke="#35495E" stroke-width="6" stroke-miterlimit="10" points="3,107.703 3,57.852 3,3 8.238,3 13.478,3 
		13.478,57.852 13.478,107.703 8.24,119.796 	"/>
</g>
</svg>
