<?xml version="1.0" encoding="utf-8"?>
<!-- Generator: Adobe Illustrator 19.2.1, SVG Export Plug-In . SVG Version: 6.00 Build 0)  -->
<svg version="1.1" id="Layer_1" xmlns="http://www.w3.org/2000/svg" xmlns:xlink="http://www.w3.org/1999/xlink" x="0px" y="0px"
	 viewBox="0 0 38.188 75.399" enable-background="new 0 0 38.188 75.399" xml:space="preserve">
<path fill="#35495E" d="M38.188,75.399H19.089c-2.569,0-5.068-0.505-7.427-1.502c-2.278-0.962-4.32-2.34-6.067-4.094
	c-1.759-1.766-3.136-3.806-4.095-6.065c-0.995-2.356-1.5-4.856-1.5-7.434L0,42.743l0,0h0.007V0h20.087v55.306h18.094V75.399z
	 M2,49.229l0.001,7.075c0,2.309,0.451,4.547,1.341,6.654c0.857,2.021,2.092,3.85,3.67,5.433c1.564,1.57,3.39,2.803,5.429,3.664
	c2.111,0.892,4.348,1.344,6.648,1.344h17.099V57.306H19.087C11.615,57.306,5.132,54.013,2,49.229z M2.007,42.82
	c0.056,6.64,7.184,12.084,16.087,12.463V2H2.007V42.82z"/>
</svg>
