<?xml version="1.0" encoding="utf-8"?>
<!-- Generator: Adobe Illustrator 19.2.1, SVG Export Plug-In . SVG Version: 6.00 Build 0)  -->
<svg version="1.1" id="Layer_1" xmlns="http://www.w3.org/2000/svg" xmlns:xlink="http://www.w3.org/1999/xlink" x="0px" y="0px"
	 viewBox="0 0 479.372 419.719" enable-background="new 0 0 479.372 419.719" xml:space="preserve">
<g>
	<g enable-background="new    ">
		<path fill="#35495E" d="M0,333.344c0-1.25,1-2.375,2.375-2.375h11.5c1.25,0,2.375,1.125,2.375,2.375v70.125h31.875
			c1.375,0,2.375,1.125,2.375,2.375v10.25c0,1.25-1,2.375-2.375,2.375H2.375C1,418.469,0,417.344,0,416.094V333.344z"/>
		<path fill="#35495E" d="M73.749,415.219l38.875-84.125c0.375-0.75,1-1.375,2.125-1.375h1.25c1.25,0,1.75,0.625,2.125,1.375
			l38.5,84.125c0.75,1.625-0.25,3.25-2.125,3.25h-10.875c-1.875,0-2.75-0.75-3.625-2.5l-6.125-13.5H96.499l-6.125,13.5
			c-0.5,1.25-1.625,2.5-3.625,2.5H75.874C73.999,418.469,72.999,416.844,73.749,415.219z M127.749,388.594l-12.5-27.5h-0.375
			l-12.25,27.5H127.749z"/>
		<path fill="#35495E" d="M185.998,331.969c0-1.25,1.125-2.25,2.375-2.25h3.125l52,55.25h0.125v-51.625c0-1.25,1-2.375,2.375-2.375
			h11.5c1.25,0,2.375,1.125,2.375,2.375v84.125c0,1.25-1.125,2.25-2.375,2.25h-3l-52.25-57.375h-0.125v53.75
			c0,1.25-1,2.375-2.375,2.375h-11.375c-1.25,0-2.375-1.125-2.375-2.375V331.969z"/>
		<path fill="#35495E" d="M339.247,329.719c11.25,0,22,4.375,30.5,11.625c1,1,1.125,2.5,0.125,3.5l-7.75,8.125c-1,1-2.125,1-3.25,0
			c-5.375-4.75-12-7.25-18.875-7.25c-15.625,0-28,13.375-28,29c0,15.5,12.375,28.625,28.125,28.625c7,0,12.375-2.125,14.875-3.125
			v-10.625h-10c-1.375,0-2.375-1-2.375-2.25v-9.875c0-1.375,1-2.375,2.375-2.375h24c1.25,0,2.25,1.125,2.25,2.375v32
			c0,1-0.5,1.625-1,2c0,0-12.875,8.125-31,8.125c-24.875,0-44.875-19.75-44.875-44.75S314.372,329.719,339.247,329.719z"/>
		<path fill="#35495E" d="M396.246,415.219l38.875-84.125c0.375-0.75,1-1.375,2.125-1.375h1.25c1.25,0,1.75,0.625,2.125,1.375
			l38.5,84.125c0.75,1.625-0.25,3.25-2.125,3.25h-10.875c-1.875,0-2.75-0.75-3.625-2.5l-6.125-13.5h-37.375l-6.125,13.5
			c-0.5,1.25-1.625,2.5-3.625,2.5h-10.875C396.496,418.469,395.496,416.844,396.246,415.219z M450.246,388.594l-12.5-27.5h-0.375
			l-12.25,27.5H450.246z"/>
	</g>
	<g>
		<path fill="#3B97D3" d="M178.873,148.406c0,26.645,28.799,48.244,64.311,48.244h32.167h32.166v16.071v16.081v16.091v16.078
			h-16.086l-16.08,0.008h-16.076h-16.091c-8.878,0-17.339-1.809-25.032-5.067c-7.691-3.254-14.627-7.963-20.441-13.777
			c-5.819-5.824-10.525-12.751-13.789-20.444c-3.254-7.7-5.049-16.164-5.049-25.04V148.406z"/>
		<path fill="#35495E" d="M243.184,196.65h0.011v-3.687v-64.316V64.319V0h-16.078h-16.081h-16.083h-16.07v64.319v64.328v20.067
			C179.103,175.217,207.806,196.65,243.184,196.65z"/>
	</g>
</g>
</svg>
