<?xml version="1.0" encoding="UTF-8" standalone="no"?><!DOCTYPE svg PUBLIC "-//W3C//DTD SVG 1.1//EN" "http://www.w3.org/Graphics/SVG/1.1/DTD/svg11.dtd"><svg width="100%" height="100%" viewBox="0 0 183 44" version="1.1" xmlns="http://www.w3.org/2000/svg" xmlns:xlink="http://www.w3.org/1999/xlink" xml:space="preserve" style="fill-rule:evenodd;clip-rule:evenodd;stroke-linejoin:round;stroke-miterlimit:1.41421;"><g id="Layer-1"><path d="M21.9,1.28c-11.337,0 -20.561,9.224 -20.561,20.561c0,11.337 9.224,20.56 20.561,20.56c11.337,0 20.561,-9.223 20.561,-20.56c0,-11.337 -9.224,-20.561 -20.561,-20.561m0,42.381c-12.032,0 -21.821,-9.788 -21.821,-21.82c0,-12.032 9.789,-21.821 21.821,-21.821c12.032,0 21.821,9.789 21.821,21.821c0,12.032 -9.789,21.82 -21.821,21.82" style="fill:#34495e;fill-rule:nonzero;"/><path d="M16.202,23.455l0,-1.777l0,-5.699l0,-5.699l5.698,0l0,17.421l-0.002,0c-3.134,0 -5.677,-1.898 -5.696,-4.246" style="fill:#34495e;fill-rule:nonzero;"/><path d="M16.2,27.701c0,0.786 0.159,1.537 0.448,2.219c0.288,0.681 0.707,1.294 1.223,1.811c0.515,0.517 1.129,0.934 1.811,1.222c0.681,0.288 1.43,0.448 2.217,0.448l5.701,0l0,-1.425l0,-1.426l0,-1.424l0,-1.425l-2.853,0l-2.848,0c-3.147,0 -5.698,-1.913 -5.698,-4.272l0,4.272Z" style="fill:#3897d3;fill-rule:nonzero;"/><path d="M65.666,11.758c0,-0.302 0.242,-0.575 0.575,-0.575l2.781,0c0.303,0 0.575,0.273 0.575,0.575l0,16.963l7.71,0c0.333,0 0.575,0.272 0.575,0.575l0,2.479c0,0.303 -0.242,0.575 -0.575,0.575l-11.066,0c-0.333,0 -0.575,-0.272 -0.575,-0.575l0,-20.017Z" style="fill:#34495e;fill-rule:nonzero;"/><path d="M96.752,25.123l-3.024,-6.652l-0.09,0l-2.964,6.652l6.078,0Zm-13.063,6.441l9.404,-20.351c0.091,-0.181 0.242,-0.332 0.514,-0.332l0.303,0c0.302,0 0.423,0.151 0.514,0.332l9.313,20.351c0.182,0.393 -0.061,0.786 -0.514,0.786l-2.631,0c-0.453,0 -0.665,-0.182 -0.877,-0.605l-1.481,-3.266l-9.041,0l-1.482,3.266c-0.121,0.302 -0.393,0.605 -0.877,0.605l-2.631,0c-0.453,0 -0.695,-0.393 -0.514,-0.786" style="fill:#34495e;fill-rule:nonzero;"/><path d="M111.026,11.426c0,-0.302 0.272,-0.544 0.575,-0.544l0.755,0l12.58,13.365l0.03,0l0,-12.488c0,-0.303 0.241,-0.575 0.574,-0.575l2.782,0c0.302,0 0.574,0.272 0.574,0.575l0,20.35c0,0.302 -0.272,0.544 -0.574,0.544l-0.726,0l-12.639,-13.879l-0.03,0l0,13.002c0,0.302 -0.242,0.574 -0.575,0.574l-2.751,0c-0.303,0 -0.575,-0.272 -0.575,-0.574l0,-20.35Z" style="fill:#34495e;fill-rule:nonzero;"/><path d="M148.28,10.881c2.721,0 5.322,1.059 7.378,2.812c0.242,0.242 0.272,0.605 0.03,0.847l-1.875,1.965c-0.241,0.242 -0.514,0.242 -0.786,0c-1.3,-1.149 -2.903,-1.754 -4.565,-1.754c-3.78,0 -6.774,3.236 -6.774,7.016c0,3.749 2.994,6.924 6.804,6.924c1.693,0 2.993,-0.514 3.598,-0.756l0,-2.57l-2.419,0c-0.333,0 -0.575,-0.242 -0.575,-0.544l0,-2.389c0,-0.333 0.242,-0.575 0.575,-0.575l5.805,0c0.303,0 0.545,0.273 0.545,0.575l0,7.741c0,0.242 -0.121,0.393 -0.242,0.483c0,0 -3.115,1.966 -7.499,1.966c-6.017,0 -10.855,-4.777 -10.855,-10.825c0,-6.048 4.838,-10.916 10.855,-10.916" style="fill:#34495e;fill-rule:nonzero;"/><path d="M175.314,25.123l-3.024,-6.652l-0.09,0l-2.964,6.652l6.078,0Zm-13.063,6.441l9.404,-20.351c0.091,-0.181 0.242,-0.332 0.514,-0.332l0.303,0c0.302,0 0.423,0.151 0.514,0.332l9.313,20.351c0.182,0.393 -0.061,0.786 -0.514,0.786l-2.631,0c-0.453,0 -0.665,-0.182 -0.877,-0.605l-1.481,-3.266l-9.041,0l-1.482,3.266c-0.121,0.302 -0.393,0.605 -0.877,0.605l-2.631,0c-0.453,0 -0.695,-0.393 -0.514,-0.786" style="fill:#34495e;fill-rule:nonzero;"/></g></svg>