<?xml version="1.0" encoding="utf-8"?>
<!-- Generator: Adobe Illustrator 19.2.1, SVG Export Plug-In . SVG Version: 6.00 Build 0)  -->
<svg version="1.1" id="Layer_1" xmlns="http://www.w3.org/2000/svg" xmlns:xlink="http://www.w3.org/1999/xlink" x="0px" y="0px"
	 viewBox="0 0 1273.5 287.3" style="enable-background:new 0 0 1273.5 287.3;" xml:space="preserve">
<style type="text/css">
	.st0{fill:#35495E;}
	.st1{fill:#F8CA58;}
</style>
<g>
	<path class="st0" d="M285.3,81.7h-26.2V54.8h26.2V81.7z M265.1,75.7h14.2V60.8h-14.2V75.7z"/>
	<path class="st0" d="M707.7,197.6H577V91.4h130.7V197.6z M583,191.6h118.7V97.4H583V191.6z"/>
	<path class="st0" d="M583,252.7h-75.7V136.5H583V252.7z M513.3,246.7H577V142.5h-63.7V246.7z"/>
	<path class="st0" d="M809.8,197.8H701.7v-54.3h108.1V197.8z M707.7,191.8h96.1v-42.3h-96.1V191.8z"/>
	<rect x="709.8" y="156.9" class="st0" width="7" height="36.1"/>
	<rect x="718.9" y="156.9" class="st0" width="7" height="36.1"/>
	<rect x="728.1" y="156.9" class="st0" width="7" height="36.1"/>
	<rect x="737.3" y="156.9" class="st0" width="7" height="36.1"/>
	<rect x="746.4" y="156.9" class="st0" width="7" height="36.1"/>
	<rect x="758.1" y="157.2" class="st0" width="7" height="36.1"/>
	<rect x="767.2" y="157.2" class="st0" width="7" height="36.1"/>
	<rect x="776.4" y="157.2" class="st0" width="7" height="36.1"/>
	<rect x="785.6" y="157.2" class="st0" width="7" height="36.1"/>
	<rect x="794.7" y="157.2" class="st0" width="7" height="36.1"/>
	<g>
		<rect x="580" y="94.4" class="st0" width="33.2" height="98.6"/>
		<path class="st0" d="M614.7,194.4h-36.2V92.9h36.2V194.4z M581.5,191.4h30.2V95.9h-30.2V191.4z"/>
	</g>
	<path class="st0" d="M674.6,96.6h-64.4V80.5h64.4V96.6z M616.2,90.6h52.4v-4.1h-52.4V90.6z"/>
	<rect x="692" y="93.6" class="st0" width="6" height="63.5"/>
	<rect x="681" y="93.6" class="st0" width="6" height="63.5"/>
	<rect x="675.5" y="93.6" class="st0" width="6" height="63.5"/>
	<rect x="664.5" y="93.6" class="st0" width="6" height="63.5"/>
	<rect x="653.5" y="93.6" class="st0" width="6" height="63.5"/>
	<rect x="664.5" y="156.9" class="st0" width="6" height="38.3"/>
	<rect x="678.5" y="93.6" class="st0" width="6" height="63.5"/>
	<rect x="669.8" y="156.9" class="st0" width="6" height="38.3"/>
	<rect x="686.7" y="156.9" class="st0" width="6" height="38.3"/>
	<rect x="692" y="156.9" class="st0" width="6" height="38.3"/>
	<path class="st0" d="M583,252.4h-40.9v-98H583V252.4z M548.1,246.4H577v-86h-28.9V246.4z"/>
	<path class="st0" d="M583,159.9h-75.7v-24.2H583V159.9z M513.3,153.9H577v-12.2h-63.7V153.9z"/>
	<rect x="526.8" y="144.8" class="st0" width="16.5" height="6"/>
	<path class="st0" d="M513.3,253.3H362v-204h151.3V253.3z M368,247.3h139.3v-192H368V247.3z"/>
	<path class="st0" d="M440.6,84.4H362V49.3h78.6V84.4z M368,78.4h66.6V55.3H368V78.4z"/>
	<rect x="373.9" y="64.5" class="st0" width="55.4" height="6"/>
	<rect x="447.1" y="64.5" class="st0" width="55.4" height="6"/>
	<path class="st0" d="M513.3,252.7H362V77.8h151.3V252.7z M368,246.7h139.3V83.8H368V246.7z"/>
	<path class="st0" d="M440.6,253.3H362V77.8h78.6V253.3z M368,247.3h66.6V83.8H368V247.3z"/>
	<rect x="423.8" y="89" class="st0" width="5.5" height="5.5"/>
	<rect x="374.3" y="88.9" class="st0" width="5.5" height="5.5"/>
	<rect x="413.9" y="89" class="st0" width="5.5" height="5.5"/>
	<rect x="404" y="89" class="st0" width="5.5" height="5.5"/>
	<rect x="384.2" y="88.9" class="st0" width="5.5" height="5.5"/>
	<rect x="394.1" y="89" class="st0" width="5.5" height="5.5"/>
	<rect x="496.8" y="89" class="st0" width="5.5" height="5.5"/>
	<rect x="447.3" y="89" class="st0" width="5.5" height="5.5"/>
	<rect x="486.9" y="89" class="st0" width="5.5" height="5.5"/>
	<rect x="477" y="89" class="st0" width="5.5" height="5.5"/>
	<rect x="457.2" y="89" class="st0" width="5.5" height="5.5"/>
	<rect x="467.1" y="89.1" class="st0" width="5.5" height="5.5"/>
	<rect x="423.8" y="98.1" class="st0" width="5.5" height="5.5"/>
	<rect x="374.3" y="98.1" class="st0" width="5.5" height="5.5"/>
	<rect x="413.9" y="98.2" class="st0" width="5.5" height="5.5"/>
	<rect x="404" y="98.1" class="st0" width="5.5" height="5.5"/>
	<rect x="384.2" y="98.1" class="st0" width="5.5" height="5.5"/>
	<rect x="394.1" y="98.2" class="st0" width="5.5" height="5.5"/>
	<rect x="496.8" y="98.2" class="st0" width="5.5" height="5.5"/>
	<rect x="447.3" y="98.2" class="st0" width="5.5" height="5.5"/>
	<rect x="486.9" y="98.2" class="st0" width="5.5" height="5.5"/>
	<rect x="477" y="98.2" class="st0" width="5.5" height="5.5"/>
	<rect x="457.2" y="98.1" class="st0" width="5.5" height="5.5"/>
	<rect x="467.1" y="98.2" class="st0" width="5.5" height="5.5"/>
	<rect x="423.8" y="107.4" class="st0" width="5.5" height="5.5"/>
	<rect x="374.3" y="107.4" class="st0" width="5.5" height="5.5"/>
	<rect x="413.9" y="107.5" class="st0" width="5.5" height="5.5"/>
	<rect x="404" y="107.4" class="st0" width="5.5" height="5.5"/>
	<rect x="384.2" y="107.4" class="st0" width="5.5" height="5.5"/>
	<rect x="394.1" y="107.5" class="st0" width="5.5" height="5.5"/>
	<rect x="496.8" y="107.5" class="st0" width="5.5" height="5.5"/>
	<rect x="447.3" y="107.5" class="st0" width="5.5" height="5.5"/>
	<rect x="486.9" y="107.5" class="st0" width="5.5" height="5.5"/>
	<rect x="477" y="107.5" class="st0" width="5.5" height="5.5"/>
	<rect x="457.2" y="107.4" class="st0" width="5.5" height="5.5"/>
	<rect x="467.1" y="107.5" class="st0" width="5.5" height="5.5"/>
	<rect x="423.8" y="116.6" class="st0" width="5.5" height="5.5"/>
	<rect x="374.3" y="116.6" class="st0" width="5.5" height="5.5"/>
	<rect x="413.9" y="116.6" class="st0" width="5.5" height="5.5"/>
	<rect x="404" y="116.6" class="st0" width="5.5" height="5.5"/>
	<rect x="384.2" y="116.6" class="st0" width="5.5" height="5.5"/>
	<rect x="394.1" y="116.7" class="st0" width="5.5" height="5.5"/>
	<rect x="496.8" y="116.7" class="st0" width="5.5" height="5.5"/>
	<rect x="447.3" y="116.6" class="st0" width="5.5" height="5.5"/>
	<rect x="486.9" y="116.7" class="st0" width="5.5" height="5.5"/>
	<rect x="477" y="116.6" class="st0" width="5.5" height="5.5"/>
	<rect x="457.2" y="116.6" class="st0" width="5.5" height="5.5"/>
	<rect x="467.1" y="116.7" class="st0" width="5.5" height="5.5"/>
	<rect x="423.8" y="125.8" class="st0" width="5.5" height="5.5"/>
	<rect x="374.3" y="125.8" class="st0" width="5.5" height="5.5"/>
	<rect x="413.9" y="125.8" class="st0" width="5.5" height="5.5"/>
	<rect x="404" y="125.8" class="st0" width="5.5" height="5.5"/>
	<rect x="384.2" y="125.7" class="st0" width="5.5" height="5.5"/>
	<rect x="394.1" y="125.8" class="st0" width="5.5" height="5.5"/>
	<rect x="496.8" y="125.8" class="st0" width="5.5" height="5.5"/>
	<rect x="447.3" y="125.8" class="st0" width="5.5" height="5.5"/>
	<rect x="486.9" y="125.8" class="st0" width="5.5" height="5.5"/>
	<rect x="477" y="125.8" class="st0" width="5.5" height="5.5"/>
	<rect x="457.2" y="125.8" class="st0" width="5.5" height="5.5"/>
	<rect x="467.1" y="125.9" class="st0" width="5.5" height="5.5"/>
	<rect x="423.8" y="135" class="st0" width="5.5" height="5.5"/>
	<rect x="374.3" y="134.9" class="st0" width="5.5" height="5.5"/>
	<rect x="413.9" y="135" class="st0" width="5.5" height="5.5"/>
	<rect x="404" y="134.9" class="st0" width="5.5" height="5.5"/>
	<rect x="384.2" y="134.9" class="st0" width="5.5" height="5.5"/>
	<rect x="394.1" y="135" class="st0" width="5.5" height="5.5"/>
	<rect x="496.8" y="135" class="st0" width="5.5" height="5.5"/>
	<rect x="447.3" y="135" class="st0" width="5.5" height="5.5"/>
	<rect x="486.9" y="135" class="st0" width="5.5" height="5.5"/>
	<rect x="477" y="135" class="st0" width="5.5" height="5.5"/>
	<rect x="457.2" y="134.9" class="st0" width="5.5" height="5.5"/>
	<rect x="467.1" y="135" class="st0" width="5.5" height="5.5"/>
	<rect x="423.8" y="144.3" class="st0" width="5.5" height="5.5"/>
	<rect x="374.3" y="144.2" class="st0" width="5.5" height="5.5"/>
	<rect x="413.9" y="144.3" class="st0" width="5.5" height="5.5"/>
	<rect x="404" y="144.2" class="st0" width="5.5" height="5.5"/>
	<rect x="384.2" y="144.2" class="st0" width="5.5" height="5.5"/>
	<rect x="394.1" y="144.3" class="st0" width="5.5" height="5.5"/>
	<rect x="496.8" y="144.3" class="st0" width="5.5" height="5.5"/>
	<rect x="447.3" y="144.3" class="st0" width="5.5" height="5.5"/>
	<rect x="486.9" y="144.3" class="st0" width="5.5" height="5.5"/>
	<rect x="477" y="144.3" class="st0" width="5.5" height="5.5"/>
	<rect x="457.2" y="144.2" class="st0" width="5.5" height="5.5"/>
	<rect x="467.1" y="144.3" class="st0" width="5.5" height="5.5"/>
	<rect x="423.8" y="153.4" class="st0" width="5.5" height="5.5"/>
	<rect x="374.3" y="153.4" class="st0" width="5.5" height="5.5"/>
	<rect x="413.9" y="153.4" class="st0" width="5.5" height="5.5"/>
	<rect x="404" y="153.4" class="st0" width="5.5" height="5.5"/>
	<rect x="384.2" y="153.4" class="st0" width="5.5" height="5.5"/>
	<rect x="394.1" y="153.5" class="st0" width="5.5" height="5.5"/>
	<rect x="496.8" y="153.5" class="st0" width="5.5" height="5.5"/>
	<rect x="447.3" y="153.4" class="st0" width="5.5" height="5.5"/>
	<rect x="486.9" y="153.5" class="st0" width="5.5" height="5.5"/>
	<rect x="477" y="153.5" class="st0" width="5.5" height="5.5"/>
	<rect x="457.2" y="153.4" class="st0" width="5.5" height="5.5"/>
	<rect x="467.1" y="153.5" class="st0" width="5.5" height="5.5"/>
	<rect x="423.8" y="162.7" class="st0" width="5.5" height="5.5"/>
	<rect x="374.3" y="162.7" class="st0" width="5.5" height="5.5"/>
	<rect x="413.9" y="162.7" class="st0" width="5.5" height="5.5"/>
	<rect x="404" y="162.7" class="st0" width="5.5" height="5.5"/>
	<rect x="384.2" y="162.7" class="st0" width="5.5" height="5.5"/>
	<rect x="394.1" y="162.8" class="st0" width="5.5" height="5.5"/>
	<rect x="496.8" y="162.8" class="st0" width="5.5" height="5.5"/>
	<rect x="447.3" y="162.7" class="st0" width="5.5" height="5.5"/>
	<rect x="486.9" y="162.8" class="st0" width="5.5" height="5.5"/>
	<rect x="477" y="162.8" class="st0" width="5.5" height="5.5"/>
	<rect x="457.2" y="162.7" class="st0" width="5.5" height="5.5"/>
	<rect x="467.1" y="162.8" class="st0" width="5.5" height="5.5"/>
	<rect x="423.8" y="171.9" class="st0" width="5.5" height="5.5"/>
	<rect x="374.3" y="171.9" class="st0" width="5.5" height="5.5"/>
	<rect x="413.9" y="171.9" class="st0" width="5.5" height="5.5"/>
	<rect x="404" y="171.9" class="st0" width="5.5" height="5.5"/>
	<rect x="384.2" y="171.8" class="st0" width="5.5" height="5.5"/>
	<rect x="394.1" y="171.9" class="st0" width="5.5" height="5.5"/>
	<rect x="496.8" y="171.9" class="st0" width="5.5" height="5.5"/>
	<rect x="447.3" y="171.9" class="st0" width="5.5" height="5.5"/>
	<rect x="486.9" y="172" class="st0" width="5.5" height="5.5"/>
	<rect x="477" y="171.9" class="st0" width="5.5" height="5.5"/>
	<rect x="457.2" y="171.9" class="st0" width="5.5" height="5.5"/>
	<rect x="467.1" y="172" class="st0" width="5.5" height="5.5"/>
	<rect x="423.8" y="181.1" class="st0" width="5.5" height="5.5"/>
	<rect x="374.3" y="181" class="st0" width="5.5" height="5.5"/>
	<rect x="413.9" y="181.1" class="st0" width="5.5" height="5.5"/>
	<rect x="404" y="181" class="st0" width="5.5" height="5.5"/>
	<rect x="384.2" y="181" class="st0" width="5.5" height="5.5"/>
	<rect x="394.1" y="181.1" class="st0" width="5.5" height="5.5"/>
	<rect x="496.8" y="181.1" class="st0" width="5.5" height="5.5"/>
	<rect x="447.3" y="181.1" class="st0" width="5.5" height="5.5"/>
	<rect x="486.9" y="181.1" class="st0" width="5.5" height="5.5"/>
	<rect x="477" y="181.1" class="st0" width="5.5" height="5.5"/>
	<rect x="457.2" y="181.1" class="st0" width="5.5" height="5.5"/>
	<rect x="467.1" y="181.1" class="st0" width="5.5" height="5.5"/>
	<rect x="423.8" y="190.2" class="st0" width="5.5" height="5.5"/>
	<rect x="374.3" y="190.2" class="st0" width="5.5" height="5.5"/>
	<rect x="413.9" y="190.2" class="st0" width="5.5" height="5.5"/>
	<rect x="404" y="190.2" class="st0" width="5.5" height="5.5"/>
	<rect x="384.2" y="190.2" class="st0" width="5.5" height="5.5"/>
	<rect x="394.1" y="190.3" class="st0" width="5.5" height="5.5"/>
	<rect x="496.8" y="190.3" class="st0" width="5.5" height="5.5"/>
	<rect x="447.3" y="190.2" class="st0" width="5.5" height="5.5"/>
	<rect x="486.9" y="190.3" class="st0" width="5.5" height="5.5"/>
	<rect x="477" y="190.3" class="st0" width="5.5" height="5.5"/>
	<rect x="457.2" y="190.2" class="st0" width="5.5" height="5.5"/>
	<rect x="467.1" y="190.3" class="st0" width="5.5" height="5.5"/>
	<rect x="423.8" y="199.5" class="st0" width="5.5" height="5.5"/>
	<rect x="374.3" y="199.5" class="st0" width="5.5" height="5.5"/>
	<rect x="413.9" y="199.5" class="st0" width="5.5" height="5.5"/>
	<rect x="404" y="199.5" class="st0" width="5.5" height="5.5"/>
	<rect x="384.2" y="199.5" class="st0" width="5.5" height="5.5"/>
	<rect x="394.1" y="199.6" class="st0" width="5.5" height="5.5"/>
	<rect x="496.8" y="199.6" class="st0" width="5.5" height="5.5"/>
	<rect x="447.3" y="199.5" class="st0" width="5.5" height="5.5"/>
	<rect x="486.9" y="199.6" class="st0" width="5.5" height="5.5"/>
	<rect x="477" y="199.6" class="st0" width="5.5" height="5.5"/>
	<rect x="457.2" y="199.5" class="st0" width="5.5" height="5.5"/>
	<rect x="467.1" y="199.6" class="st0" width="5.5" height="5.5"/>
	<rect x="423.8" y="208.7" class="st0" width="5.5" height="5.5"/>
	<rect x="374.3" y="208.7" class="st0" width="5.5" height="5.5"/>
	<rect x="413.9" y="208.7" class="st0" width="5.5" height="5.5"/>
	<rect x="404" y="208.7" class="st0" width="5.5" height="5.5"/>
	<rect x="384.2" y="208.6" class="st0" width="5.5" height="5.5"/>
	<rect x="394.1" y="208.7" class="st0" width="5.5" height="5.5"/>
	<rect x="496.8" y="208.7" class="st0" width="5.5" height="5.5"/>
	<rect x="447.3" y="208.7" class="st0" width="5.5" height="5.5"/>
	<rect x="486.9" y="208.8" class="st0" width="5.5" height="5.5"/>
	<rect x="477" y="208.7" class="st0" width="5.5" height="5.5"/>
	<rect x="457.2" y="208.7" class="st0" width="5.5" height="5.5"/>
	<rect x="467.1" y="208.8" class="st0" width="5.5" height="5.5"/>
	<rect x="423.8" y="218" class="st0" width="5.5" height="5.5"/>
	<rect x="374.3" y="218" class="st0" width="5.5" height="5.5"/>
	<rect x="413.9" y="218" class="st0" width="5.5" height="5.5"/>
	<rect x="404" y="218" class="st0" width="5.5" height="5.5"/>
	<rect x="384.2" y="217.9" class="st0" width="5.5" height="5.5"/>
	<rect x="394.1" y="218" class="st0" width="5.5" height="5.5"/>
	<rect x="496.8" y="218" class="st0" width="5.5" height="5.5"/>
	<rect x="447.3" y="218" class="st0" width="5.5" height="5.5"/>
	<rect x="486.9" y="218.1" class="st0" width="5.5" height="5.5"/>
	<rect x="477" y="218" class="st0" width="5.5" height="5.5"/>
	<rect x="457.2" y="218" class="st0" width="5.5" height="5.5"/>
	<rect x="467.1" y="218.1" class="st0" width="5.5" height="5.5"/>
	<rect x="423.8" y="227.2" class="st0" width="5.5" height="5.5"/>
	<rect x="374.3" y="227.1" class="st0" width="5.5" height="5.5"/>
	<rect x="413.9" y="227.2" class="st0" width="5.5" height="5.5"/>
	<rect x="404" y="227.1" class="st0" width="5.5" height="5.5"/>
	<rect x="384.2" y="227.1" class="st0" width="5.5" height="5.5"/>
	<rect x="394.1" y="227.2" class="st0" width="5.5" height="5.5"/>
	<rect x="496.8" y="227.2" class="st0" width="5.5" height="5.5"/>
	<rect x="447.3" y="227.2" class="st0" width="5.5" height="5.5"/>
	<rect x="486.9" y="227.2" class="st0" width="5.5" height="5.5"/>
	<rect x="477" y="227.2" class="st0" width="5.5" height="5.5"/>
	<rect x="457.2" y="227.2" class="st0" width="5.5" height="5.5"/>
	<rect x="467.1" y="227.2" class="st0" width="5.5" height="5.5"/>
	<rect x="214.7" y="90.9" class="st0" width="5.5" height="5.5"/>
	<rect x="204.8" y="90.9" class="st0" width="5.5" height="5.5"/>
	<rect x="214.7" y="100.1" class="st0" width="5.5" height="5.5"/>
	<rect x="204.8" y="100.1" class="st0" width="5.5" height="5.5"/>
	<rect x="214.7" y="109.4" class="st0" width="5.5" height="5.5"/>
	<rect x="204.8" y="109.4" class="st0" width="5.5" height="5.5"/>
	<rect x="214.7" y="118.5" class="st0" width="5.5" height="5.5"/>
	<rect x="204.8" y="118.6" class="st0" width="5.5" height="5.5"/>
	<rect x="214.7" y="127.7" class="st0" width="5.5" height="5.5"/>
	<rect x="204.8" y="127.7" class="st0" width="5.5" height="5.5"/>
	<rect x="214.7" y="136.9" class="st0" width="5.5" height="5.5"/>
	<rect x="204.8" y="136.9" class="st0" width="5.5" height="5.5"/>
	<rect x="214.7" y="146.2" class="st0" width="5.5" height="5.5"/>
	<rect x="204.8" y="146.2" class="st0" width="5.5" height="5.5"/>
	<rect x="214.7" y="155.3" class="st0" width="5.5" height="5.5"/>
	<rect x="204.8" y="155.4" class="st0" width="5.5" height="5.5"/>
	<rect x="214.7" y="164.6" class="st0" width="5.5" height="5.5"/>
	<rect x="204.8" y="164.7" class="st0" width="5.5" height="5.5"/>
	<rect x="214.7" y="173.8" class="st0" width="5.5" height="5.5"/>
	<rect x="204.8" y="173.8" class="st0" width="5.5" height="5.5"/>
	<rect x="214.7" y="183" class="st0" width="5.5" height="5.5"/>
	<rect x="204.8" y="183" class="st0" width="5.5" height="5.5"/>
	<rect x="214.7" y="192.2" class="st0" width="5.5" height="5.5"/>
	<rect x="204.8" y="192.2" class="st0" width="5.5" height="5.5"/>
	<rect x="293.6" y="90.9" class="st0" width="5.5" height="5.5"/>
	<rect x="283.7" y="91" class="st0" width="5.5" height="5.5"/>
	<rect x="293.6" y="100.1" class="st0" width="5.5" height="5.5"/>
	<rect x="283.7" y="100.1" class="st0" width="5.5" height="5.5"/>
	<rect x="293.6" y="109.4" class="st0" width="5.5" height="5.5"/>
	<rect x="283.7" y="109.4" class="st0" width="5.5" height="5.5"/>
	<rect x="293.6" y="118.6" class="st0" width="5.5" height="5.5"/>
	<rect x="283.7" y="118.6" class="st0" width="5.5" height="5.5"/>
	<rect x="293.6" y="127.8" class="st0" width="5.5" height="5.5"/>
	<rect x="283.7" y="127.8" class="st0" width="5.5" height="5.5"/>
	<rect x="293.6" y="136.9" class="st0" width="5.5" height="5.5"/>
	<rect x="283.7" y="136.9" class="st0" width="5.5" height="5.5"/>
	<rect x="293.6" y="146.2" class="st0" width="5.5" height="5.5"/>
	<rect x="283.7" y="146.2" class="st0" width="5.5" height="5.5"/>
	<rect x="293.6" y="155.4" class="st0" width="5.5" height="5.5"/>
	<rect x="283.7" y="155.4" class="st0" width="5.5" height="5.5"/>
	<rect x="293.6" y="164.7" class="st0" width="5.5" height="5.5"/>
	<rect x="283.7" y="164.7" class="st0" width="5.5" height="5.5"/>
	<rect x="293.6" y="173.9" class="st0" width="5.5" height="5.5"/>
	<rect x="283.7" y="173.9" class="st0" width="5.5" height="5.5"/>
	<rect x="293.6" y="183" class="st0" width="5.5" height="5.5"/>
	<rect x="283.7" y="183" class="st0" width="5.5" height="5.5"/>
	<rect x="293.6" y="192.2" class="st0" width="5.5" height="5.5"/>
	<rect x="283.7" y="192.2" class="st0" width="5.5" height="5.5"/>
	<rect x="293.6" y="201.5" class="st0" width="5.5" height="5.5"/>
	<rect x="283.7" y="201.5" class="st0" width="5.5" height="5.5"/>
	<rect x="293.6" y="210.7" class="st0" width="5.5" height="5.5"/>
	<rect x="283.7" y="210.7" class="st0" width="5.5" height="5.5"/>
	<rect x="293.6" y="220" class="st0" width="5.5" height="5.5"/>
	<rect x="283.7" y="220" class="st0" width="5.5" height="5.5"/>
	<rect x="293.6" y="229.1" class="st0" width="5.5" height="5.5"/>
	<rect x="283.7" y="229.1" class="st0" width="5.5" height="5.5"/>
	<rect x="274.1" y="90.8" class="st0" width="5.5" height="14.7"/>
	<rect x="274.1" y="109.4" class="st0" width="5.5" height="14.7"/>
	<rect x="274.1" y="127.7" class="st0" width="5.5" height="14.7"/>
	<rect x="274.1" y="146.2" class="st0" width="5.5" height="14.7"/>
	<rect x="274.1" y="164.6" class="st0" width="5.5" height="14.7"/>
	<rect x="274.1" y="183" class="st0" width="5.5" height="14.7"/>
	<rect x="274.1" y="201.4" class="st0" width="5.5" height="14.7"/>
	<rect x="274.1" y="219.8" class="st0" width="5.5" height="14.7"/>
	<rect x="264.3" y="90.9" class="st0" width="5.5" height="14.7"/>
	<rect x="264.3" y="109.4" class="st0" width="5.5" height="14.7"/>
	<rect x="264.3" y="127.7" class="st0" width="5.5" height="14.7"/>
	<rect x="264.3" y="146.2" class="st0" width="5.5" height="14.7"/>
	<rect x="264.3" y="164.7" class="st0" width="5.5" height="14.7"/>
	<rect x="264.3" y="183" class="st0" width="5.5" height="14.7"/>
	<rect x="264.3" y="201.5" class="st0" width="5.5" height="9.9"/>
	<rect x="235.1" y="91.1" class="st0" width="5.5" height="14.7"/>
	<rect x="235.1" y="109.6" class="st0" width="5.5" height="14.7"/>
	<rect x="235.1" y="127.9" class="st0" width="5.5" height="14.7"/>
	<rect x="235.1" y="146.4" class="st0" width="5.5" height="14.7"/>
	<rect x="235.1" y="164.9" class="st0" width="5.5" height="14.7"/>
	<rect x="235.1" y="183.2" class="st0" width="5.5" height="14.7"/>
	<rect x="225.2" y="91.1" class="st0" width="5.5" height="14.7"/>
	<rect x="225.2" y="109.6" class="st0" width="5.5" height="14.7"/>
	<rect x="225.2" y="128" class="st0" width="5.5" height="14.7"/>
	<rect x="225.2" y="146.4" class="st0" width="5.5" height="14.7"/>
	<rect x="225.2" y="164.9" class="st0" width="5.5" height="14.7"/>
	<rect x="225.2" y="183.2" class="st0" width="5.5" height="14.7"/>
	<rect x="235.1" y="66" class="st0" width="5.5" height="14.7"/>
	<rect x="264.3" y="66" class="st0" width="5.1" height="14.7"/>
	<path class="st0" d="M54.9,212.5H0v-17.6h54.9V212.5z M6,206.5h42.9v-5.6H6V206.5z"/>
	<path class="st0" d="M152.9,212.5H99v-29.2h42.1v11.6h11.8V212.5z M105,206.5h41.9v-5.6h-11.8v-11.6H105
		C105,189.3,105,206.5,105,206.5z"/>
	<path class="st0" d="M249.7,212.5h-54.9v-17.6h54.9V212.5z M200.8,206.5h42.9v-5.6h-42.9V206.5z"/>
	<g>
		<polygon class="st0" points="238.5,184.9 205.9,184.9 196.1,193 248.3,193 		"/>
		<path class="st0" d="M256.6,196h-68.8l17-14.1h34.8L256.6,196z M204.5,190H240l-2.5-2.1H207L204.5,190z"/>
	</g>
	<rect x="3" y="247.4" class="st0" width="177.3" height="6"/>
	<rect x="3" y="258.4" class="st0" width="113.1" height="6"/>
	<rect x="3" y="269.4" class="st0" width="113.1" height="6"/>
	<path class="st0" d="M949.8,197.8H901v-21.1h48.8V197.8z M907,191.8h36.8v-9.1H907V191.8z"/>
	<path class="st0" d="M1069,197.6h-92.2v-21.7h92.2V197.6z M982.8,191.6h80.2v-9.7h-80.2V191.6z"/>
	<path class="st0" d="M1069,287.3H963.3v-95.5H1069V287.3z M969.3,281.3h93.6v-83.5h-93.6L969.3,281.3L969.3,281.3z"/>
	<path class="st0" d="M1224,25.6h-44.6V9.3h44.6V25.6z M1185.5,19.6h32.6v-4.3h-32.6V19.6z"/>
	<path class="st0" d="M1216.1,259.8h-28.7V19.6h28.7V259.8z M1193.4,253.8h16.7V25.6h-16.7V253.8z"/>
	<path class="st0" d="M1273.5,287.3H1130v-33.5h7.2l9.1-9.4l9.1,9.4h92.5l9.1-9.4l9.1,9.4h7.2L1273.5,287.3L1273.5,287.3z
		 M1136,281.3h131.5v-21.5h-3.8l-6.6-6.8l-6.6,6.8H1153l-6.6-6.8l-6.6,6.8h-3.8L1136,281.3L1136,281.3z"/>
	<rect x="1147.6" y="19.6" class="st0" width="28.4" height="6"/>
	<rect x="1227.6" y="19.6" class="st0" width="28.4" height="6"/>
	<path class="st0" d="M969.3,287.3H764.1v-95.5h205.3V287.3z M770.1,281.3h193.3v-83.5H770.1V281.3z"/>
	<rect x="775" y="203.4" class="st0" width="180.9" height="6"/>
	<rect x="775" y="214.4" class="st0" width="180.9" height="6"/>
	<rect x="775" y="225.4" class="st0" width="180.9" height="6"/>
	<rect x="775" y="236.4" class="st0" width="180.9" height="6"/>
	<rect x="775" y="247.4" class="st0" width="180.9" height="6"/>
	<rect x="775" y="258.4" class="st0" width="180.9" height="6"/>
	<rect x="589.8" y="203.4" class="st0" width="177.3" height="6"/>
	<rect x="589.8" y="214.4" class="st0" width="177.3" height="6"/>
	<rect x="589.8" y="225.4" class="st0" width="177.3" height="6"/>
	<rect x="589.8" y="236.4" class="st0" width="177.3" height="6"/>
	<rect x="589.8" y="247.4" class="st0" width="177.3" height="6"/>
	<rect x="625.2" y="258.4" class="st0" width="141.8" height="6"/>
	<rect x="625.2" y="269.4" class="st0" width="141.8" height="6"/>
	<rect x="775" y="269.4" class="st0" width="180.9" height="6"/>
	<rect x="966.3" y="203.4" class="st0" width="90.5" height="6"/>
	<rect x="966.3" y="214.4" class="st0" width="90.5" height="6"/>
	<rect x="966.3" y="225.4" class="st0" width="90.5" height="6"/>
	<rect x="966.3" y="236.4" class="st0" width="90.5" height="6"/>
	<rect x="966.3" y="247.4" class="st0" width="90.5" height="6"/>
	<rect x="966.3" y="258.4" class="st0" width="90.5" height="6"/>
	<rect x="966.3" y="269.4" class="st0" width="90.5" height="6"/>
	<path class="st0" d="M628.2,287.3H113.1v-39.9h515.2V287.3z M119.1,281.3h503.2v-27.9H119.1V281.3z"/>
	<g>
		<path class="st0" d="M134.4,264.4c0-2.5-2-4.5-4.5-4.5s-4.5,2-4.5,4.5c0,0.5,0.1,1,0.2,1.4h-0.2v9h9v-9h-0.2
			C134.3,265.4,134.4,264.9,134.4,264.4z"/>
		<path class="st0" d="M135.9,276.3h-12v-12c0-3.3,2.7-5.9,6-5.9c3.3,0,5.9,2.6,6,5.9l0,0V276.3z M127,273.3h6v-6h-0.8l0.7-2
			c0.1-0.3,0.2-0.6,0.2-0.9c0-1.6-1.3-3-3-3s-3,1.3-3,3c0,0.3,0.1,0.6,0.2,0.9l0.7,2H127L127,273.3L127,273.3z"/>
	</g>
	<g>
		<path class="st0" d="M154.4,264.4c0-2.5-2-4.5-4.5-4.5s-4.5,2-4.5,4.5c0,0.5,0.1,1,0.2,1.4h-0.2v9h9v-9h-0.2
			C154.3,265.4,154.4,264.9,154.4,264.4z"/>
		<path class="st0" d="M155.9,276.3h-12v-12c0-3.3,2.7-5.9,6-5.9c3.3,0,6,2.7,6,6c0,0,0,0.1,0,0.1L155.9,276.3L155.9,276.3z
			 M146.9,273.3h6v-6H152l0.7-2c0.1-0.3,0.2-0.6,0.2-0.9c0-1.6-1.3-3-3-3s-3,1.3-3,3c0,0.3,0.1,0.6,0.2,0.9l0.7,2h-0.8L146.9,273.3
			L146.9,273.3z"/>
	</g>
	<g>
		<path class="st0" d="M174.3,264.4c0-2.5-2-4.5-4.5-4.5s-4.5,2-4.5,4.5c0,0.5,0.1,1,0.2,1.4h-0.2v9h9v-9h-0.2
			C174.2,265.4,174.3,264.9,174.3,264.4z"/>
		<path class="st0" d="M175.8,276.3h-12v-12c0-3.3,2.7-5.9,6-5.9s5.9,2.6,6,5.9l0,0L175.8,276.3L175.8,276.3z M166.9,273.3h6v-6H172
			l0.7-2c0.1-0.3,0.2-0.6,0.2-0.9c0-1.6-1.3-3-3-3s-3,1.3-3,3c0,0.3,0.1,0.6,0.2,0.9l0.7,2h-0.8L166.9,273.3L166.9,273.3z"/>
	</g>
	<g>
		<path class="st0" d="M194.3,264.4c0-2.5-2-4.5-4.5-4.5s-4.5,2-4.5,4.5c0,0.5,0.1,1,0.2,1.4h-0.2v9h9v-9H194
			C194.2,265.4,194.3,264.9,194.3,264.4z"/>
		<path class="st0" d="M195.8,276.3h-12v-12c0-3.3,2.7-5.9,6-5.9c3.3,0,6,2.7,6,6c0,0,0,0.1,0,0.1L195.8,276.3L195.8,276.3z
			 M186.8,273.3h6v-6H192l0.7-2c0.1-0.3,0.2-0.6,0.2-0.9c0-1.6-1.3-3-3-3s-3,1.3-3,3c0,0.3,0.1,0.6,0.2,0.9l0.7,2h-0.8L186.8,273.3
			L186.8,273.3z"/>
	</g>
	<g>
		<path class="st0" d="M214.3,264.4c0-2.5-2-4.5-4.5-4.5s-4.5,2-4.5,4.5c0,0.5,0.1,1,0.2,1.4h-0.2v9h9v-9H214
			C214.2,265.4,214.3,264.9,214.3,264.4z"/>
		<path class="st0" d="M215.8,276.3h-12v-12c0-3.3,2.7-5.9,6-5.9c3.3,0,5.9,2.6,6,5.9l0,0L215.8,276.3L215.8,276.3z M206.8,273.3h6
			v-6h-0.8l0.7-2c0.1-0.3,0.2-0.7,0.2-0.9c0-1.6-1.3-3-3-3s-3,1.3-3,3c0,0.3,0.1,0.6,0.2,0.9l0.7,2h-0.8L206.8,273.3L206.8,273.3z"
			/>
	</g>
	<g>
		<path class="st0" d="M234.2,264.4c0-2.5-2-4.5-4.5-4.5s-4.5,2-4.5,4.5c0,0.5,0.1,1,0.2,1.4h-0.2v9h9v-9H234
			C234.1,265.4,234.2,264.9,234.2,264.4z"/>
		<path class="st0" d="M235.7,276.3h-12v-12c0-3.3,2.7-5.9,6-5.9c3.3,0,6,2.7,6,6c0,0,0,0.1,0,0.1L235.7,276.3L235.7,276.3z
			 M226.8,273.3h6v-6h-0.8l0.7-2c0.1-0.3,0.2-0.6,0.2-0.9c0-1.6-1.3-3-3-3c-1.6,0-3,1.3-3,3c0,0.3,0.1,0.6,0.2,0.9l0.7,2h-0.8
			L226.8,273.3L226.8,273.3z"/>
	</g>
	<g>
		<path class="st0" d="M254.2,264.4c0-2.5-2-4.5-4.5-4.5s-4.5,2-4.5,4.5c0,0.5,0.1,1,0.2,1.4h-0.2v9h9v-9h-0.2
			C254.1,265.4,254.2,264.9,254.2,264.4z"/>
		<path class="st0" d="M255.7,276.3h-12v-12c0-3.3,2.7-5.9,6-5.9s5.9,2.6,6,5.9l0,0V276.3z M246.7,273.3h6v-6h-0.8l0.7-2
			c0.1-0.3,0.2-0.6,0.2-0.9c0-1.6-1.3-3-3-3s-3,1.3-3,3c0,0.3,0.1,0.6,0.2,0.9l0.7,2h-0.8L246.7,273.3L246.7,273.3z"/>
	</g>
	<g>
		<path class="st0" d="M274.1,264.4c0-2.5-2-4.5-4.5-4.5s-4.5,2-4.5,4.5c0,0.5,0.1,1,0.2,1.4h-0.2v9h9v-9h-0.2
			C274,265.4,274.1,264.9,274.1,264.4z"/>
		<path class="st0" d="M275.6,276.3h-12v-12c0-3.3,2.7-5.9,6-5.9c3.3,0,6,2.7,6,6c0,0,0,0.1,0,0.1L275.6,276.3L275.6,276.3z
			 M266.7,273.3h6v-6h-0.8l0.7-2c0.1-0.3,0.2-0.7,0.2-0.9c0-1.6-1.3-3-3-3s-3,1.3-3,3c0,0.3,0.1,0.6,0.2,0.9l0.7,2h-0.8L266.7,273.3
			L266.7,273.3z"/>
	</g>
	<g>
		<path class="st0" d="M294.1,264.4c0-2.5-2-4.5-4.5-4.5s-4.5,2-4.5,4.5c0,0.5,0.1,1,0.2,1.4h-0.2v9h9v-9h-0.2
			C294,265.4,294.1,264.9,294.1,264.4z"/>
		<path class="st0" d="M295.6,276.3h-12v-12c0-3.3,2.7-5.9,6-5.9c3.3,0,6,2.7,6,6c0,0,0,0.1,0,0.1L295.6,276.3L295.6,276.3z
			 M286.6,273.3h6v-6h-0.8l0.7-2c0.1-0.3,0.2-0.6,0.2-0.9c0-1.6-1.3-3-3-3s-3,1.3-3,3c0,0.3,0.1,0.6,0.2,0.9l0.7,2h-0.8V273.3z"/>
	</g>
	<g>
		<path class="st0" d="M314.1,264.4c0-2.5-2-4.5-4.5-4.5s-4.5,2-4.5,4.5c0,0.5,0.1,1,0.2,1.4h-0.2v9h9v-9h-0.2
			C314,265.4,314.1,264.9,314.1,264.4z"/>
		<path class="st0" d="M315.6,276.3h-12v-12c0-3.3,2.7-5.9,6-5.9c3.3,0,6,2.7,6,6c0,0,0,0.1,0,0.1L315.6,276.3L315.6,276.3z
			 M306.6,273.3h6v-6h-0.8l0.7-2c0.1-0.3,0.2-0.6,0.2-0.9c0-1.6-1.3-3-3-3s-3,1.3-3,3c0,0.3,0.1,0.6,0.2,0.9l0.7,2h-0.8V273.3z"/>
	</g>
	<g>
		<path class="st0" d="M334,264.4c0-2.5-2-4.5-4.5-4.5s-4.5,2-4.5,4.5c0,0.5,0.1,1,0.2,1.4h-0.2v9h9v-9h-0.2
			C333.9,265.4,334,264.9,334,264.4z"/>
		<path class="st0" d="M335.5,276.3h-12v-12c0-3.3,2.7-5.9,6-5.9c3.3,0,6,2.7,6,6c0,0,0,0.1,0,0.1L335.5,276.3L335.5,276.3z
			 M326.6,273.3h6v-6h-0.8l0.7-2c0.1-0.3,0.2-0.7,0.2-0.9c0-1.6-1.3-3-3-3s-3,1.3-3,3c0,0.3,0.1,0.6,0.2,0.9l0.7,2h-0.8L326.6,273.3
			L326.6,273.3z"/>
	</g>
	<g>
		<path class="st0" d="M354,264.4c0-2.5-2-4.5-4.5-4.5s-4.5,2-4.5,4.5c0,0.5,0.1,1,0.2,1.4H345v9h9v-9h-0.2
			C353.9,265.4,354,264.9,354,264.4z"/>
		<path class="st0" d="M355.5,276.3h-12v-12c0-3.3,2.7-5.9,6-5.9c3.3,0,6,2.7,6,6c0,0,0,0.1,0,0.1L355.5,276.3L355.5,276.3z
			 M346.5,273.3h6v-6h-0.8l0.7-2c0.1-0.3,0.2-0.6,0.2-0.9c0-1.6-1.3-3-3-3s-3,1.3-3,3c0,0.3,0.1,0.6,0.2,0.9l0.7,2h-0.8V273.3z"/>
	</g>
	<g>
		<path class="st0" d="M373.9,264.4c0-2.5-2-4.5-4.5-4.5s-4.5,2-4.5,4.5c0,0.5,0.1,1,0.2,1.4H365v9h9v-9h-0.2
			C373.8,265.4,373.9,264.9,373.9,264.4z"/>
		<path class="st0" d="M375.4,276.3h-12v-12c0-3.3,2.7-5.9,6-5.9c3.3,0,6,2.7,6,6c0,0,0,0.1,0,0.1L375.4,276.3L375.4,276.3z
			 M366.5,273.3h6v-6h-0.8l0.7-2c0.1-0.3,0.2-0.6,0.2-0.9c0-1.6-1.3-3-3-3s-3,1.3-3,3c0,0.3,0.1,0.6,0.2,0.9l0.7,2h-0.8V273.3z"/>
	</g>
	<g>
		<path class="st0" d="M393.9,264.4c0-2.5-2-4.5-4.5-4.5s-4.5,2-4.5,4.5c0,0.5,0.1,1,0.2,1.4h-0.2v9h9v-9h-0.2
			C393.8,265.4,393.9,264.9,393.9,264.4z"/>
		<path class="st0" d="M395.4,276.3h-12v-12c0-3.3,2.7-5.9,6-5.9c3.3,0,5.9,2.6,6,5.9l0,0L395.4,276.3L395.4,276.3z M386.4,273.3h6
			v-6h-0.8l0.7-2c0.1-0.3,0.2-0.7,0.2-0.9c0-1.6-1.3-3-3-3s-3,1.3-3,3c0,0.3,0.1,0.6,0.2,0.9l0.7,2h-0.8L386.4,273.3L386.4,273.3z"
			/>
	</g>
	<g>
		<path class="st0" d="M413.9,264.4c0-2.5-2-4.5-4.5-4.5s-4.5,2-4.5,4.5c0,0.5,0.1,1,0.2,1.4h-0.2v9h9v-9h-0.2
			C413.8,265.4,413.9,264.9,413.9,264.4z"/>
		<path class="st0" d="M415.4,276.3h-12v-12c0-3.3,2.7-5.9,6-5.9c3.3,0,6,2.7,6,6c0,0,0,0.1,0,0.1L415.4,276.3L415.4,276.3z
			 M406.4,273.3h6v-6h-0.8l0.7-2c0.1-0.3,0.2-0.6,0.2-0.9c0-1.6-1.3-3-3-3s-3,1.3-3,3c0,0.3,0.1,0.6,0.2,0.9l0.7,2h-0.8L406.4,273.3
			L406.4,273.3z"/>
	</g>
	<g>
		<path class="st0" d="M433.8,264.4c0-2.5-2-4.5-4.5-4.5s-4.5,2-4.5,4.5c0,0.5,0.1,1,0.2,1.4h-0.2v9h9v-9h-0.2
			C433.7,265.4,433.8,264.9,433.8,264.4z"/>
		<path class="st0" d="M435.3,276.3h-12v-12c0-3.3,2.7-5.9,6-5.9s5.9,2.6,6,5.9l0,0V276.3z M426.4,273.3h6v-6h-0.8l0.7-2
			c0.1-0.3,0.2-0.7,0.2-0.9c0-1.6-1.3-3-3-3s-3,1.3-3,3c0,0.3,0.1,0.6,0.2,0.9l0.7,2h-0.8L426.4,273.3L426.4,273.3z"/>
	</g>
	<g>
		<path class="st0" d="M454.9,264.4c0-2.5-2-4.5-4.5-4.5s-4.5,2-4.5,4.5c0,0.5,0.1,1,0.2,1.4h-0.2v9h9v-9h-0.2
			C454.8,265.4,454.9,264.9,454.9,264.4z"/>
		<path class="st0" d="M456.4,276.3h-12v-12c0-3.3,2.7-5.9,6-5.9s5.9,2.6,6,5.9l0,0V276.3z M447.4,273.3h6v-6h-0.8l0.7-2
			c0.1-0.3,0.2-0.6,0.2-0.9c0-1.6-1.3-3-3-3s-3,1.3-3,3c0,0.3,0.1,0.6,0.2,0.9l0.7,2h-0.8L447.4,273.3L447.4,273.3z"/>
	</g>
	<g>
		<path class="st0" d="M474.8,264.4c0-2.5-2-4.5-4.5-4.5s-4.5,2-4.5,4.5c0,0.5,0.1,1,0.2,1.4h-0.2v9h9v-9h-0.2
			C474.7,265.4,474.8,264.9,474.8,264.4z"/>
		<path class="st0" d="M476.3,276.3h-12v-12c0-3.3,2.7-5.9,6-5.9c3.3,0,6,2.7,6,6c0,0,0,0.1,0,0.1L476.3,276.3L476.3,276.3z
			 M467.4,273.3h6v-6h-0.8l0.7-2c0.1-0.3,0.2-0.7,0.2-0.9c0-1.6-1.3-3-3-3s-3,1.3-3,3c0,0.3,0.1,0.6,0.2,0.9l0.7,2h-0.8L467.4,273.3
			L467.4,273.3z"/>
	</g>
	<g>
		<path class="st0" d="M494.8,264.4c0-2.5-2-4.5-4.5-4.5s-4.5,2-4.5,4.5c0,0.5,0.1,1,0.2,1.4h-0.2v9h9v-9h-0.2
			C494.7,265.4,494.8,264.9,494.8,264.4z"/>
		<path class="st0" d="M496.3,276.3h-12v-12c0-3.3,2.7-5.9,6-5.9s5.9,2.6,6,5.9l0,0V276.3z M487.3,273.3h6v-6h-0.8l0.7-2
			c0.1-0.3,0.2-0.6,0.2-0.9c0-1.6-1.3-3-3-3s-3,1.3-3,3c0,0.3,0.1,0.6,0.2,0.9l0.7,2h-0.8L487.3,273.3L487.3,273.3z"/>
	</g>
	<g>
		<path class="st0" d="M514.7,264.4c0-2.5-2-4.5-4.5-4.5s-4.5,2-4.5,4.5c0,0.5,0.1,1,0.2,1.4h-0.2v9h9v-9h-0.2
			C514.6,265.4,514.7,264.9,514.7,264.4z"/>
		<path class="st0" d="M516.2,276.3h-12v-12c0-3.3,2.7-5.9,6-5.9c3.3,0,6,2.7,6,6c0,0,0,0.1,0,0.1L516.2,276.3L516.2,276.3z
			 M507.3,273.3h6v-6h-0.8l0.7-2c0.1-0.3,0.2-0.6,0.2-0.9c0-1.6-1.3-3-3-3s-3,1.3-3,3c0,0.3,0.1,0.6,0.2,0.9l0.7,2h-0.8L507.3,273.3
			L507.3,273.3z"/>
	</g>
	<g>
		<path class="st0" d="M534.7,264.4c0-2.5-2-4.5-4.5-4.5s-4.5,2-4.5,4.5c0,0.5,0.1,1,0.2,1.4h-0.2v9h9v-9h-0.2
			C534.6,265.4,534.7,264.9,534.7,264.4z"/>
		<path class="st0" d="M536.2,276.3h-12v-12c0-3.3,2.7-5.9,6-5.9s5.9,2.6,6,5.9l0,0V276.3z M527.2,273.3h6v-6h-0.8l0.7-2
			c0.1-0.3,0.2-0.7,0.2-0.9c0-1.6-1.3-3-3-3s-3,1.3-3,3c0,0.3,0.1,0.6,0.2,0.9l0.7,2h-0.8V273.3z"/>
	</g>
	<g>
		<path class="st0" d="M554.7,264.4c0-2.5-2-4.5-4.5-4.5s-4.5,2-4.5,4.5c0,0.5,0.1,1,0.2,1.4h-0.2v9h9v-9h-0.2
			C554.6,265.4,554.7,264.9,554.7,264.4z"/>
		<path class="st0" d="M556.2,276.3h-12v-12c0-3.3,2.7-5.9,6-5.9c3.3,0,6,2.7,6,6c0,0,0,0.1,0,0.1L556.2,276.3L556.2,276.3z
			 M547.2,273.3h6v-6h-0.8l0.7-2c0.1-0.3,0.2-0.6,0.2-0.9c0-1.6-1.3-3-3-3s-3,1.3-3,3c0,0.3,0.1,0.6,0.2,0.9l0.7,2h-0.8L547.2,273.3
			L547.2,273.3z"/>
	</g>
	<g>
		<path class="st0" d="M574.6,264.4c0-2.5-2-4.5-4.5-4.5s-4.5,2-4.5,4.5c0,0.5,0.1,1,0.2,1.4h-0.2v9h9v-9h-0.2
			C574.5,265.4,574.6,264.9,574.6,264.4z"/>
		<path class="st0" d="M576.1,276.3h-12v-12c0-3.3,2.7-5.9,6-5.9c3.3,0,6,2.7,6,6c0,0,0,0.1,0,0.1L576.1,276.3L576.1,276.3z
			 M567.2,273.3h6v-6h-0.8l0.7-2c0.1-0.3,0.2-0.6,0.2-0.9c0-1.6-1.3-3-3-3s-3,1.3-3,3c0,0.3,0.1,0.6,0.2,0.9l0.7,2h-0.8L567.2,273.3
			L567.2,273.3z"/>
	</g>
	<g>
		<path class="st0" d="M594.6,264.4c0-2.5-2-4.5-4.5-4.5s-4.5,2-4.5,4.5c0,0.5,0.1,1,0.2,1.4h-0.2v9h9v-9h-0.2
			C594.5,265.4,594.6,264.9,594.6,264.4z"/>
		<path class="st0" d="M596.1,276.3h-12v-12c0-3.3,2.7-5.9,6-5.9c3.3,0,6,2.7,6,6c0,0,0,0.1,0,0.1V276.3z M587.1,273.3h6v-6h-0.8
			l0.7-2c0.1-0.3,0.2-0.6,0.2-0.9c0-1.6-1.3-3-3-3c-1.6,0-3,1.3-3,3c0,0.3,0.1,0.6,0.2,0.9l0.7,2h-0.8L587.1,273.3L587.1,273.3z"/>
	</g>
	<g>
		<path class="st0" d="M614.5,264.4c0-2.5-2-4.5-4.5-4.5s-4.5,2-4.5,4.5c0,0.5,0.1,1,0.2,1.4h-0.2v9h9v-9h-0.2
			C614.5,265.4,614.5,264.9,614.5,264.4z"/>
		<path class="st0" d="M616,276.3h-12v-12c0-3.3,2.7-5.9,6-5.9c3.3,0,6,2.7,6,6c0,0,0,0.1,0,0.1L616,276.3L616,276.3z M607.1,273.3
			h6v-6h-0.8l0.7-2c0.1-0.3,0.2-0.6,0.2-0.9c0-1.6-1.3-3-3-3s-3,1.3-3,3c0,0.3,0.1,0.6,0.2,0.9l0.7,2h-0.8V273.3z"/>
	</g>
	<g>
		<polygon class="st0" points="595,239.4 167.1,239.4 167.4,246.1 614.8,246.1 		"/>
		<path class="st0" d="M633,249.1H164.6l-0.6-12.8h431.5L633,249.1z M170.3,243.1h426.4l-2.2-0.8H170.2L170.3,243.1z"/>
	</g>
	<g>
		<polygon class="st0" points="114.2,250.1 179,229 243.7,250.1 		"/>
		<path class="st0" d="M243.7,253.1H114.2l-0.9-5.9l64.7-21.1h1.9l64.7,21.1L243.7,253.1z M133.1,247.1h91.7L179,232.1L133.1,247.1z
			"/>
	</g>
	<g>
		<polygon class="st0" points="244.8,249.9 309.6,228.8 374.3,249.9 		"/>
		<path class="st0" d="M374.3,252.9H244.8l-0.9-5.9l64.7-21.1h1.9l64.7,21.1L374.3,252.9z M263.7,246.9h91.7L309.6,232L263.7,246.9z
			"/>
	</g>
	<rect x="1144.6" y="105" class="st0" width="5.5" height="5.5"/>
	<rect x="1174.3" y="105" class="st0" width="5.5" height="5.5"/>
	<rect x="1154.5" y="104.9" class="st0" width="5.5" height="5.5"/>
	<rect x="1164.4" y="105" class="st0" width="5.5" height="5.5"/>
	<rect x="1144.6" y="114.1" class="st0" width="5.5" height="5.5"/>
	<rect x="1174.3" y="114.1" class="st0" width="5.5" height="5.5"/>
	<rect x="1154.5" y="114.1" class="st0" width="5.5" height="5.5"/>
	<rect x="1164.4" y="114.2" class="st0" width="5.5" height="5.5"/>
	<rect x="1144.6" y="123.4" class="st0" width="5.5" height="5.5"/>
	<rect x="1174.3" y="123.4" class="st0" width="5.5" height="5.5"/>
	<rect x="1154.5" y="123.4" class="st0" width="5.5" height="5.5"/>
	<rect x="1164.4" y="123.5" class="st0" width="5.5" height="5.5"/>
	<rect x="1144.6" y="132.6" class="st0" width="5.5" height="5.5"/>
	<rect x="1174.3" y="132.6" class="st0" width="5.5" height="5.5"/>
	<rect x="1154.5" y="132.6" class="st0" width="5.5" height="5.5"/>
	<rect x="1164.4" y="132.7" class="st0" width="5.5" height="5.5"/>
	<rect x="1144.6" y="141.7" class="st0" width="5.5" height="5.5"/>
	<rect x="1174.3" y="141.8" class="st0" width="5.5" height="5.5"/>
	<rect x="1154.5" y="141.7" class="st0" width="5.5" height="5.5"/>
	<rect x="1164.4" y="141.8" class="st0" width="5.5" height="5.5"/>
	<rect x="1144.6" y="150.9" class="st0" width="5.5" height="5.5"/>
	<rect x="1174.3" y="150.9" class="st0" width="5.5" height="5.5"/>
	<rect x="1154.5" y="150.9" class="st0" width="5.5" height="5.5"/>
	<rect x="1164.4" y="151" class="st0" width="5.5" height="5.5"/>
	<rect x="1144.6" y="160.2" class="st0" width="5.5" height="5.5"/>
	<rect x="1174.3" y="160.2" class="st0" width="5.5" height="5.5"/>
	<rect x="1154.5" y="160.2" class="st0" width="5.5" height="5.5"/>
	<rect x="1164.4" y="160.3" class="st0" width="5.5" height="5.5"/>
	<rect x="1144.6" y="169.4" class="st0" width="5.5" height="5.5"/>
	<rect x="1174.3" y="169.4" class="st0" width="5.5" height="5.5"/>
	<rect x="1154.5" y="169.4" class="st0" width="5.5" height="5.5"/>
	<rect x="1164.4" y="169.4" class="st0" width="5.5" height="5.5"/>
	<rect x="1144.6" y="178.7" class="st0" width="5.5" height="5.5"/>
	<rect x="1174.3" y="178.7" class="st0" width="5.5" height="5.5"/>
	<rect x="1154.5" y="178.7" class="st0" width="5.5" height="5.5"/>
	<rect x="1164.4" y="178.7" class="st0" width="5.5" height="5.5"/>
	<rect x="1144.6" y="187.8" class="st0" width="5.5" height="5.5"/>
	<rect x="1174.3" y="187.9" class="st0" width="5.5" height="5.5"/>
	<rect x="1154.5" y="187.8" class="st0" width="5.5" height="5.5"/>
	<rect x="1164.4" y="187.9" class="st0" width="5.5" height="5.5"/>
	<rect x="1144.6" y="197" class="st0" width="5.5" height="5.5"/>
	<rect x="1174.3" y="197" class="st0" width="5.5" height="5.5"/>
	<rect x="1154.5" y="197" class="st0" width="5.5" height="5.5"/>
	<rect x="1164.4" y="197.1" class="st0" width="5.5" height="5.5"/>
	<rect x="1144.6" y="206.2" class="st0" width="5.5" height="5.5"/>
	<rect x="1174.3" y="206.2" class="st0" width="5.5" height="5.5"/>
	<rect x="1154.5" y="206.1" class="st0" width="5.5" height="5.5"/>
	<rect x="1164.4" y="206.2" class="st0" width="5.5" height="5.5"/>
	<rect x="1144.6" y="215.5" class="st0" width="5.5" height="5.5"/>
	<rect x="1174.3" y="215.5" class="st0" width="5.5" height="5.5"/>
	<rect x="1154.5" y="215.4" class="st0" width="5.5" height="5.5"/>
	<rect x="1164.4" y="215.5" class="st0" width="5.5" height="5.5"/>
	<rect x="1144.6" y="224.6" class="st0" width="5.5" height="5.5"/>
	<rect x="1174.3" y="224.6" class="st0" width="5.5" height="5.5"/>
	<rect x="1154.5" y="224.6" class="st0" width="5.5" height="5.5"/>
	<rect x="1164.4" y="224.7" class="st0" width="5.5" height="5.5"/>
	<rect x="1144.6" y="233.9" class="st0" width="5.5" height="5.5"/>
	<rect x="1174.3" y="233.9" class="st0" width="5.5" height="5.5"/>
	<rect x="1154.5" y="233.9" class="st0" width="5.5" height="5.5"/>
	<rect x="1164.4" y="234" class="st0" width="5.5" height="5.5"/>
	<rect x="1144.6" y="243.1" class="st0" width="5.5" height="5.5"/>
	<rect x="1174.3" y="243.1" class="st0" width="5.5" height="5.5"/>
	<rect x="1154.5" y="243.1" class="st0" width="5.5" height="5.5"/>
	<rect x="1164.4" y="243.2" class="st0" width="5.5" height="5.5"/>
	<rect x="1144.1" y="40.5" class="st0" width="5.5" height="5.5"/>
	<rect x="1173.8" y="40.5" class="st0" width="5.5" height="5.5"/>
	<rect x="1154" y="40.4" class="st0" width="5.5" height="5.5"/>
	<rect x="1163.9" y="40.5" class="st0" width="5.5" height="5.5"/>
	<rect x="1144.1" y="49.6" class="st0" width="5.5" height="5.5"/>
	<rect x="1173.8" y="49.6" class="st0" width="5.5" height="5.5"/>
	<rect x="1154" y="49.6" class="st0" width="5.5" height="5.5"/>
	<rect x="1163.9" y="49.7" class="st0" width="5.5" height="5.5"/>
	<rect x="1144.1" y="58.9" class="st0" width="5.5" height="5.5"/>
	<rect x="1173.8" y="58.9" class="st0" width="5.5" height="5.5"/>
	<rect x="1154" y="58.9" class="st0" width="5.5" height="5.5"/>
	<rect x="1163.9" y="59" class="st0" width="5.5" height="5.5"/>
	<rect x="1144.1" y="68.1" class="st0" width="5.5" height="5.5"/>
	<rect x="1173.8" y="68.1" class="st0" width="5.5" height="5.5"/>
	<rect x="1154" y="68.1" class="st0" width="5.5" height="5.5"/>
	<rect x="1163.9" y="68.2" class="st0" width="5.5" height="5.5"/>
	<rect x="1144.1" y="77.2" class="st0" width="5.5" height="5.5"/>
	<rect x="1173.8" y="77.3" class="st0" width="5.5" height="5.5"/>
	<rect x="1154" y="77.2" class="st0" width="5.5" height="5.5"/>
	<rect x="1163.9" y="77.3" class="st0" width="5.5" height="5.5"/>
	<rect x="1144.1" y="86.4" class="st0" width="5.5" height="5.5"/>
	<rect x="1173.8" y="86.4" class="st0" width="5.5" height="5.5"/>
	<rect x="1154" y="86.4" class="st0" width="5.5" height="5.5"/>
	<rect x="1163.9" y="86.5" class="st0" width="5.5" height="5.5"/>
	<rect x="1144.1" y="95.7" class="st0" width="5.5" height="5.5"/>
	<rect x="1173.8" y="95.7" class="st0" width="5.5" height="5.5"/>
	<rect x="1154" y="95.7" class="st0" width="5.5" height="5.5"/>
	<rect x="1163.9" y="95.8" class="st0" width="5.5" height="5.5"/>
	<rect x="1144.3" y="30.9" class="st1" width="5.5" height="5.5"/>
	<rect x="1174" y="31" class="st0" width="5.5" height="5.5"/>
	<rect x="1154.2" y="30.9" class="st1" width="5.5" height="5.5"/>
	<rect x="1164.1" y="31" class="st1" width="5.5" height="5.5"/>
	<rect x="1224.6" y="105" class="st0" width="5.5" height="5.5"/>
	<rect x="1254.3" y="105" class="st0" width="5.5" height="5.5"/>
	<rect x="1234.5" y="104.9" class="st0" width="5.5" height="5.5"/>
	<rect x="1244.4" y="105" class="st0" width="5.5" height="5.5"/>
	<rect x="1224.6" y="114.1" class="st0" width="5.5" height="5.5"/>
	<rect x="1254.3" y="114.1" class="st0" width="5.5" height="5.5"/>
	<rect x="1234.5" y="114.1" class="st0" width="5.5" height="5.5"/>
	<rect x="1244.4" y="114.2" class="st0" width="5.5" height="5.5"/>
	<rect x="1224.6" y="123.4" class="st0" width="5.5" height="5.5"/>
	<rect x="1254.3" y="123.4" class="st0" width="5.5" height="5.5"/>
	<rect x="1234.5" y="123.4" class="st0" width="5.5" height="5.5"/>
	<rect x="1244.4" y="123.5" class="st0" width="5.5" height="5.5"/>
	<rect x="1224.6" y="132.6" class="st0" width="5.5" height="5.5"/>
	<rect x="1254.3" y="132.6" class="st0" width="5.5" height="5.5"/>
	<rect x="1234.5" y="132.6" class="st0" width="5.5" height="5.5"/>
	<rect x="1244.4" y="132.7" class="st0" width="5.5" height="5.5"/>
	<rect x="1224.6" y="141.8" class="st0" width="5.5" height="5.5"/>
	<rect x="1254.3" y="141.8" class="st0" width="5.5" height="5.5"/>
	<rect x="1234.5" y="141.7" class="st0" width="5.5" height="5.5"/>
	<rect x="1244.4" y="141.8" class="st0" width="5.5" height="5.5"/>
	<rect x="1224.6" y="150.9" class="st0" width="5.5" height="5.5"/>
	<rect x="1254.3" y="150.9" class="st0" width="5.5" height="5.5"/>
	<rect x="1234.5" y="150.9" class="st0" width="5.5" height="5.5"/>
	<rect x="1244.4" y="151" class="st0" width="5.5" height="5.5"/>
	<rect x="1224.6" y="160.2" class="st0" width="5.5" height="5.5"/>
	<rect x="1254.3" y="160.2" class="st0" width="5.5" height="5.5"/>
	<rect x="1234.5" y="160.2" class="st0" width="5.5" height="5.5"/>
	<rect x="1244.4" y="160.3" class="st0" width="5.5" height="5.5"/>
	<rect x="1224.6" y="169.4" class="st0" width="5.5" height="5.5"/>
	<rect x="1254.3" y="169.4" class="st0" width="5.5" height="5.5"/>
	<rect x="1234.5" y="169.4" class="st0" width="5.5" height="5.5"/>
	<rect x="1244.4" y="169.4" class="st0" width="5.5" height="5.5"/>
	<rect x="1224.6" y="178.7" class="st0" width="5.5" height="5.5"/>
	<rect x="1254.3" y="178.7" class="st0" width="5.5" height="5.5"/>
	<rect x="1234.5" y="178.7" class="st0" width="5.5" height="5.5"/>
	<rect x="1244.4" y="178.7" class="st0" width="5.5" height="5.5"/>
	<rect x="1224.6" y="187.8" class="st0" width="5.5" height="5.5"/>
	<rect x="1254.3" y="187.9" class="st0" width="5.5" height="5.5"/>
	<rect x="1234.5" y="187.8" class="st0" width="5.5" height="5.5"/>
	<rect x="1244.4" y="187.9" class="st0" width="5.5" height="5.5"/>
	<rect x="1224.6" y="197" class="st0" width="5.5" height="5.5"/>
	<rect x="1254.3" y="197" class="st0" width="5.5" height="5.5"/>
	<rect x="1234.5" y="197" class="st0" width="5.5" height="5.5"/>
	<rect x="1244.4" y="197.1" class="st0" width="5.5" height="5.5"/>
	<rect x="1224.6" y="206.2" class="st0" width="5.5" height="5.5"/>
	<rect x="1254.3" y="206.2" class="st0" width="5.5" height="5.5"/>
	<rect x="1234.5" y="206.1" class="st0" width="5.5" height="5.5"/>
	<rect x="1244.4" y="206.2" class="st0" width="5.5" height="5.5"/>
	<rect x="1224.6" y="215.5" class="st0" width="5.5" height="5.5"/>
	<rect x="1254.3" y="215.5" class="st0" width="5.5" height="5.5"/>
	<rect x="1234.5" y="215.4" class="st0" width="5.5" height="5.5"/>
	<rect x="1244.4" y="215.5" class="st0" width="5.5" height="5.5"/>
	<rect x="1224.6" y="224.6" class="st0" width="5.5" height="5.5"/>
	<rect x="1254.3" y="224.6" class="st0" width="5.5" height="5.5"/>
	<rect x="1234.5" y="224.6" class="st0" width="5.5" height="5.5"/>
	<rect x="1244.4" y="224.7" class="st0" width="5.5" height="5.5"/>
	<rect x="1224.6" y="233.9" class="st0" width="5.5" height="5.5"/>
	<rect x="1254.3" y="233.9" class="st0" width="5.5" height="5.5"/>
	<rect x="1234.5" y="233.9" class="st0" width="5.5" height="5.5"/>
	<rect x="1244.4" y="234" class="st0" width="5.5" height="5.5"/>
	<rect x="1224.6" y="243.1" class="st0" width="5.5" height="5.5"/>
	<rect x="1254.3" y="243.1" class="st0" width="5.5" height="5.5"/>
	<rect x="1234.5" y="243.1" class="st0" width="5.5" height="5.5"/>
	<rect x="1244.4" y="243.2" class="st0" width="5.5" height="5.5"/>
	<rect x="1224" y="40.5" class="st0" width="5.5" height="5.5"/>
	<rect x="1253.7" y="40.5" class="st0" width="5.5" height="5.5"/>
	<rect x="1233.9" y="40.4" class="st0" width="5.5" height="5.5"/>
	<rect x="1243.8" y="40.5" class="st0" width="5.5" height="5.5"/>
	<rect x="1224" y="49.6" class="st0" width="5.5" height="5.5"/>
	<rect x="1253.7" y="49.6" class="st0" width="5.5" height="5.5"/>
	<rect x="1233.9" y="49.6" class="st0" width="5.5" height="5.5"/>
	<rect x="1243.8" y="49.7" class="st0" width="5.5" height="5.5"/>
	<rect x="1224" y="58.9" class="st0" width="5.5" height="5.5"/>
	<rect x="1253.7" y="58.9" class="st0" width="5.5" height="5.5"/>
	<rect x="1233.9" y="58.9" class="st0" width="5.5" height="5.5"/>
	<rect x="1243.8" y="59" class="st0" width="5.5" height="5.5"/>
	<rect x="1224" y="68.1" class="st0" width="5.5" height="5.5"/>
	<rect x="1253.7" y="68.1" class="st0" width="5.5" height="5.5"/>
	<rect x="1233.9" y="68.1" class="st0" width="5.5" height="5.5"/>
	<rect x="1243.8" y="68.2" class="st0" width="5.5" height="5.5"/>
	<rect x="1224" y="77.2" class="st0" width="5.5" height="5.5"/>
	<rect x="1253.7" y="77.3" class="st0" width="5.5" height="5.5"/>
	<rect x="1233.9" y="77.2" class="st0" width="5.5" height="5.5"/>
	<rect x="1243.8" y="77.3" class="st0" width="5.5" height="5.5"/>
	<rect x="1224" y="86.4" class="st0" width="5.5" height="5.5"/>
	<rect x="1253.7" y="86.4" class="st0" width="5.5" height="5.5"/>
	<rect x="1233.9" y="86.4" class="st0" width="5.5" height="5.5"/>
	<rect x="1243.8" y="86.5" class="st0" width="5.5" height="5.5"/>
	<rect x="1224" y="95.7" class="st0" width="5.5" height="5.5"/>
	<rect x="1253.7" y="95.7" class="st0" width="5.5" height="5.5"/>
	<rect x="1233.9" y="95.7" class="st0" width="5.5" height="5.5"/>
	<rect x="1243.8" y="95.8" class="st0" width="5.5" height="5.5"/>
	<rect x="1224.3" y="30.9" class="st0" width="5.5" height="5.5"/>
	<rect x="1254" y="31" class="st0" width="5.5" height="5.5"/>
	<rect x="1234.2" y="30.9" class="st0" width="5.5" height="5.5"/>
	<rect x="1244.1" y="31" class="st0" width="5.5" height="5.5"/>
	<rect x="1217.8" y="272.4" class="st0" width="5.5" height="5.5"/>
	<rect x="1217.7" y="262.5" class="st0" width="5.5" height="5.5"/>
	<rect x="1236.2" y="272.4" class="st0" width="5.5" height="5.5"/>
	<rect x="1236.2" y="262.5" class="st0" width="5.5" height="5.5"/>
	<rect x="1254.6" y="272.4" class="st0" width="5.5" height="5.5"/>
	<rect x="1254.5" y="262.5" class="st0" width="5.5" height="5.5"/>
	<rect x="1162.4" y="272.9" class="st0" width="5.5" height="5.5"/>
	<rect x="1162.4" y="263" class="st0" width="5.5" height="5.5"/>
	<rect x="1180.9" y="272.9" class="st0" width="5.5" height="5.5"/>
	<rect x="1180.9" y="263" class="st0" width="5.5" height="5.5"/>
	<rect x="1199.2" y="272.9" class="st0" width="5.5" height="5.5"/>
	<rect x="1199.2" y="263" class="st0" width="5.5" height="5.5"/>
	<rect x="1143.7" y="272.6" class="st0" width="5.5" height="5.5"/>
	<rect x="1143.7" y="262.7" class="st0" width="5.5" height="5.5"/>
	<path class="st0" d="M245.9,81.7h-26.6V54.8h26.6V81.7z M225.2,75.7h14.6V60.8h-14.6V75.7z"/>
	<rect x="3" y="236.5" class="st0" width="177.3" height="6"/>
	<path class="st0" d="M769.4,287.3h-149v-33.9H577v-61.6h192.4V287.3z M626.4,281.3h137v-83.5H583v49.6h43.4V281.3z"/>
	<path class="st0" d="M322.6,253.4h-48.7v-39.8h-91.6V75.7h57.5V54.8h25.3v20.9h57.5L322.6,253.4L322.6,253.4z M279.9,247.4h36.7
		V81.7h-57.5V60.8h-13.3v20.9h-57.5v125.9h91.6L279.9,247.4L279.9,247.4z"/>
	<path class="st0" d="M119.1,287.3H0v-79.7h279.9v45.8H119.1V287.3z M6,281.3h107.1v-33.9h160.8v-33.8H6V281.3z"/>
	<path class="st0" d="M1193.4,259.8h-40.2l-6.6-6.8l-6.6,6.8h-10V19.6h8V9.3h11.8c1.3-5.3,6.2-9.3,11.9-9.3s10.6,4,11.9,9.3h11.8
		v10.3h8V259.8z M1155.7,253.8h31.7V25.6h-8V15.3H1168v-3c0-3.5-2.8-6.3-6.3-6.3s-6.3,2.8-6.3,6.3v3H1144v10.3h-8v228.2h1.5l9.1-9.4
		L1155.7,253.8z"/>
	<path class="st0" d="M1273.5,259.8h-9.8l-6.6-6.8l-6.6,6.8h-40.4V19.6h8V9.3h11.8c1.3-5.3,6.2-9.3,11.9-9.3s10.6,4,11.9,9.3h11.8
		v10.3h7.9V259.8z M1266.2,253.8h1.2V25.6h-7.9V15.3h-11.4v-3c0-3.5-2.8-6.3-6.3-6.3s-6.3,2.8-6.3,6.3v3H1224v10.3h-8v228.2h31.9
		l9.1-9.4L1266.2,253.8z"/>
</g>
</svg>
