<?xml version="1.0" encoding="UTF-8" standalone="no"?><!DOCTYPE svg PUBLIC "-//W3C//DTD SVG 1.1//EN" "http://www.w3.org/Graphics/SVG/1.1/DTD/svg11.dtd"><svg width="100%" height="100%" viewBox="0 0 360 360" version="1.1" xmlns="http://www.w3.org/2000/svg" xmlns:xlink="http://www.w3.org/1999/xlink" xml:space="preserve" style="fill-rule:evenodd;clip-rule:evenodd;stroke-linejoin:round;stroke-miterlimit:1.41421;"><path d="M354.469,6.821l0,346.358l-348.938,0l0,-346.358l348.938,0m5.531,-6.821l-360,0l0,360l360,0l0,-360Z" style="fill:#35495e;fill-rule:nonzero;"/><g><circle cx="279.838" cy="80.359" r="16.065" style="fill:#f9ca4b;"/><path d="M280.083,61.295l0.245,0.005l0.244,0.008l0.244,0.011l0.243,0.014l0.242,0.016l0.241,0.02l0.241,0.023l0.239,0.026l0.239,0.029l0.238,0.032l0.237,0.035l0.237,0.037l0.235,0.041l0.234,0.043l0.234,0.047l0.232,0.049l0.231,0.052l0.23,0.054l0.23,0.058l0.228,0.06l0.227,0.063l0.226,0.066l0.224,0.068l0.224,0.071l0.222,0.074l0.221,0.077l0.22,0.079l0.219,0.081l0.217,0.084l0.216,0.087l0.215,0.09l0.213,0.091l0.212,0.095l0.21,0.097l0.21,0.099l0.207,0.102l0.207,0.104l0.205,0.106l0.203,0.109l0.202,0.112l0.2,0.113l0.199,0.116l0.198,0.119l0.195,0.12l0.194,0.123l0.193,0.125l0.191,0.128l0.189,0.129l0.188,0.132l0.186,0.134l0.184,0.136l0.182,0.138l0.181,0.141l0.179,0.142l0.178,0.145l0.175,0.146l0.174,0.149l0.172,0.151l0.17,0.152l0.168,0.155l0.166,0.157l0.165,0.159l0.162,0.16l0.161,0.163l0.159,0.164l0.156,0.166l0.155,0.169l0.153,0.17l0.15,0.172l0.149,0.173l0.147,0.176l0.144,0.177l0.143,0.179l0.14,0.181l0.139,0.183l0.136,0.184l0.134,0.186l0.131,0.187l0.13,0.19l0.127,0.191l0.125,0.192l0.123,0.194l0.121,0.196l0.118,0.197l0.116,0.199l0.114,0.201l0.111,0.201l0.109,0.204l0.107,0.205l0.104,0.206l0.102,0.208l0.099,0.209l0.097,0.211l0.094,0.212l0.092,0.213l0.089,0.215l0.087,0.216l0.084,0.217l0.082,0.219l0.079,0.219l0.076,0.221l0.074,0.223l0.071,0.223l0.069,0.225l0.065,0.226l0.063,0.227l0.061,0.228l0.057,0.229l0.055,0.23l0.052,0.232l0.049,0.232l0.046,0.233l0.044,0.235l0.04,0.235l0.038,0.236l0.035,0.237l0.031,0.238l0.029,0.239l0.026,0.24l0.023,0.241l0.02,0.241l0.017,0.242l0.014,0.243l0.011,0.243l0.007,0.245l0.005,0.244l0.002,0.246l-0.002,0.246l-0.005,0.244l-0.007,0.245l-0.011,0.243l-0.014,0.243l-0.017,0.242l-0.02,0.241l-0.023,0.241l-0.026,0.24l-0.029,0.239l-0.031,0.238l-0.035,0.237l-0.038,0.236l-0.04,0.235l-0.044,0.235l-0.046,0.233l-0.049,0.232l-0.052,0.232l-0.055,0.23l-0.057,0.229l-0.061,0.228l-0.063,0.227l-0.065,0.226l-0.069,0.225l-0.071,0.223l-0.074,0.223l-0.076,0.221l-0.079,0.219l-0.082,0.219l-0.084,0.217l-0.087,0.216l-0.089,0.215l-0.092,0.213l-0.094,0.212l-0.097,0.211l-0.099,0.209l-0.102,0.208l-0.104,0.206l-0.107,0.205l-0.109,0.204l-0.111,0.201l-0.114,0.201l-0.116,0.199l-0.118,0.197l-0.121,0.196l-0.123,0.194l-0.125,0.192l-0.127,0.191l-0.13,0.19l-0.131,0.187l-0.134,0.186l-0.136,0.184l-0.139,0.183l-0.14,0.181l-0.143,0.179l-0.144,0.177l-0.147,0.176l-0.149,0.173l-0.15,0.172l-0.153,0.17l-0.155,0.169l-0.156,0.166l-0.159,0.164l-0.161,0.163l-0.162,0.16l-0.165,0.159l-0.166,0.157l-0.168,0.155l-0.17,0.152l-0.172,0.151l-0.174,0.149l-0.175,0.146l-0.178,0.145l-0.179,0.142l-0.181,0.141l-0.182,0.138l-0.184,0.136l-0.186,0.134l-0.188,0.132l-0.189,0.129l-0.191,0.128l-0.193,0.125l-0.194,0.123l-0.195,0.12l-0.198,0.119l-0.199,0.116l-0.2,0.113l-0.202,0.112l-0.203,0.109l-0.205,0.106l-0.207,0.104l-0.207,0.102l-0.21,0.099l-0.21,0.097l-0.212,0.095l-0.213,0.091l-0.215,0.09l-0.216,0.087l-0.217,0.084l-0.219,0.081l-0.22,0.079l-0.221,0.077l-0.222,0.074l-0.224,0.071l-0.224,0.068l-0.226,0.066l-0.227,0.063l-0.228,0.06l-0.23,0.058l-0.23,0.054l-0.231,0.052l-0.232,0.049l-0.234,0.047l-0.234,0.043l-0.235,0.041l-0.237,0.037l-0.237,0.035l-0.238,0.032l-0.239,0.029l-0.239,0.026l-0.241,0.023l-0.241,0.02l-0.242,0.016l-0.243,0.014l-0.244,0.011l-0.244,0.008l-0.245,0.005l-0.246,0.001l-0.245,-0.001l-0.245,-0.005l-0.244,-0.008l-0.244,-0.011l-0.243,-0.014l-0.242,-0.016l-0.241,-0.02l-0.241,-0.023l-0.239,-0.026l-0.239,-0.029l-0.238,-0.032l-0.237,-0.035l-0.237,-0.037l-0.235,-0.041l-0.234,-0.043l-0.234,-0.047l-0.232,-0.049l-0.231,-0.052l-0.23,-0.054l-0.23,-0.058l-0.228,-0.06l-0.227,-0.063l-0.226,-0.066l-0.224,-0.068l-0.224,-0.071l-0.222,-0.074l-0.221,-0.077l-0.22,-0.079l-0.219,-0.081l-0.217,-0.084l-0.216,-0.087l-0.215,-0.09l-0.213,-0.091l-0.212,-0.095l-0.21,-0.097l-0.21,-0.099l-0.207,-0.102l-0.207,-0.104l-0.205,-0.106l-0.203,-0.109l-0.202,-0.112l-0.2,-0.113l-0.199,-0.116l-0.198,-0.119l-0.195,-0.12l-0.194,-0.123l-0.193,-0.125l-0.191,-0.128l-0.189,-0.129l-0.188,-0.132l-0.186,-0.134l-0.184,-0.136l-0.182,-0.138l-0.181,-0.141l-0.179,-0.142l-0.178,-0.145l-0.175,-0.146l-0.174,-0.149l-0.172,-0.151l-0.17,-0.152l-0.168,-0.155l-0.166,-0.157l-0.165,-0.159l-0.162,-0.16l-0.161,-0.163l-0.159,-0.164l-0.156,-0.167l-0.155,-0.168l-0.153,-0.17l-0.15,-0.172l-0.149,-0.173l-0.147,-0.176l-0.144,-0.177l-0.143,-0.179l-0.14,-0.181l-0.139,-0.183l-0.136,-0.184l-0.134,-0.186l-0.131,-0.187l-0.13,-0.19l-0.127,-0.191l-0.125,-0.192l-0.123,-0.194l-0.121,-0.196l-0.118,-0.197l-0.116,-0.199l-0.114,-0.201l-0.111,-0.201l-0.109,-0.204l-0.107,-0.205l-0.104,-0.206l-0.102,-0.208l-0.099,-0.209l-0.097,-0.211l-0.094,-0.212l-0.092,-0.213l-0.089,-0.215l-0.087,-0.216l-0.084,-0.217l-0.082,-0.218l-0.079,-0.22l-0.076,-0.222l-0.074,-0.222l-0.071,-0.223l-0.069,-0.225l-0.065,-0.226l-0.063,-0.227l-0.061,-0.228l-0.057,-0.229l-0.055,-0.23l-0.052,-0.232l-0.049,-0.232l-0.046,-0.233l-0.044,-0.235l-0.04,-0.235l-0.038,-0.236l-0.035,-0.237l-0.031,-0.238l-0.029,-0.239l-0.026,-0.24l-0.023,-0.241l-0.02,-0.241l-0.017,-0.242l-0.014,-0.243l-0.011,-0.243l-0.007,-0.245l-0.005,-0.244l-0.002,-0.246l0.002,-0.246l0.005,-0.244l0.007,-0.245l0.011,-0.243l0.014,-0.243l0.017,-0.242l0.02,-0.241l0.023,-0.241l0.026,-0.24l0.029,-0.239l0.031,-0.238l0.035,-0.237l0.038,-0.236l0.04,-0.235l0.044,-0.235l0.046,-0.233l0.049,-0.232l0.052,-0.232l0.055,-0.23l0.057,-0.229l0.061,-0.228l0.063,-0.227l0.065,-0.226l0.069,-0.225l0.071,-0.223l0.074,-0.222l0.076,-0.222l0.079,-0.22l0.082,-0.218l0.084,-0.217l0.087,-0.216l0.089,-0.215l0.092,-0.213l0.094,-0.212l0.097,-0.211l0.099,-0.209l0.102,-0.208l0.104,-0.206l0.107,-0.205l0.109,-0.204l0.111,-0.201l0.114,-0.201l0.116,-0.199l0.118,-0.197l0.121,-0.196l0.123,-0.194l0.125,-0.192l0.127,-0.191l0.13,-0.19l0.131,-0.187l0.134,-0.186l0.136,-0.184l0.139,-0.183l0.14,-0.181l0.143,-0.179l0.144,-0.177l0.147,-0.176l0.149,-0.173l0.15,-0.172l0.153,-0.17l0.155,-0.168l0.156,-0.167l0.159,-0.164l0.161,-0.163l0.162,-0.16l0.165,-0.159l0.166,-0.157l0.168,-0.155l0.17,-0.152l0.172,-0.151l0.174,-0.149l0.175,-0.146l0.178,-0.145l0.179,-0.142l0.181,-0.141l0.182,-0.138l0.184,-0.136l0.186,-0.134l0.188,-0.132l0.189,-0.129l0.191,-0.128l0.193,-0.125l0.194,-0.123l0.195,-0.12l0.198,-0.119l0.199,-0.116l0.2,-0.113l0.202,-0.112l0.203,-0.109l0.205,-0.106l0.207,-0.104l0.207,-0.102l0.21,-0.099l0.21,-0.097l0.212,-0.095l0.213,-0.091l0.215,-0.09l0.216,-0.087l0.217,-0.084l0.219,-0.081l0.22,-0.079l0.221,-0.077l0.222,-0.074l0.224,-0.071l0.224,-0.068l0.226,-0.066l0.227,-0.063l0.228,-0.06l0.23,-0.058l0.23,-0.054l0.231,-0.052l0.232,-0.049l0.234,-0.047l0.234,-0.043l0.235,-0.041l0.237,-0.037l0.237,-0.035l0.238,-0.032l0.239,-0.029l0.239,-0.026l0.241,-0.023l0.241,-0.02l0.242,-0.016l0.243,-0.014l0.244,-0.011l0.244,-0.008l0.245,-0.005l0.245,-0.001l0.246,0.001Zm-0.415,6l-0.169,0.003l-0.168,0.006l-0.168,0.007l-0.167,0.01l-0.166,0.011l-0.166,0.014l-0.165,0.016l-0.164,0.017l-0.164,0.02l-0.163,0.022l-0.162,0.024l-0.162,0.026l-0.161,0.027l-0.16,0.03l-0.159,0.032l-0.159,0.033l-0.158,0.036l-0.158,0.037l-0.156,0.039l-0.156,0.042l-0.155,0.043l-0.154,0.044l-0.154,0.047l-0.153,0.049l-0.151,0.05l-0.151,0.052l-0.151,0.054l-0.149,0.056l-0.148,0.058l-0.148,0.059l-0.147,0.061l-0.146,0.063l-0.145,0.064l-0.144,0.067l-0.143,0.068l-0.142,0.069l-0.141,0.071l-0.141,0.073l-0.139,0.075l-0.138,0.076l-0.137,0.078l-0.137,0.08l-0.135,0.081l-0.134,0.082l-0.133,0.085l-0.132,0.086l-0.131,0.087l-0.13,0.089l-0.129,0.09l-0.127,0.092l-0.127,0.094l-0.125,0.095l-0.124,0.096l-0.123,0.098l-0.122,0.099l-0.121,0.101l-0.119,0.102l-0.118,0.103l-0.117,0.106l-0.116,0.106l-0.114,0.108l-0.113,0.109l-0.112,0.11l-0.11,0.112l-0.109,0.113l-0.108,0.114l-0.106,0.116l-0.105,0.116l-0.104,0.119l-0.102,0.119l-0.1,0.12l-0.1,0.122l-0.098,0.123l-0.096,0.124l-0.095,0.126l-0.093,0.126l-0.092,0.128l-0.091,0.128l-0.089,0.13l-0.087,0.131l-0.086,0.132l-0.084,0.134l-0.083,0.134l-0.081,0.135l-0.079,0.136l-0.078,0.137l-0.076,0.139l-0.075,0.139l-0.073,0.14l-0.071,0.141l-0.07,0.143l-0.068,0.143l-0.066,0.144l-0.065,0.145l-0.062,0.146l-0.061,0.146l-0.06,0.148l-0.057,0.149l-0.056,0.149l-0.054,0.15l-0.052,0.151l-0.051,0.152l-0.048,0.153l-0.047,0.153l-0.045,0.155l-0.043,0.155l-0.041,0.155l-0.039,0.157l-0.038,0.157l-0.035,0.158l-0.034,0.159l-0.031,0.16l-0.03,0.16l-0.028,0.161l-0.026,0.162l-0.023,0.162l-0.022,0.163l-0.02,0.164l-0.018,0.164l-0.016,0.165l-0.013,0.166l-0.012,0.166l-0.009,0.167l-0.008,0.167l-0.005,0.169l-0.003,0.169l-0.001,0.169l0.001,0.169l0.003,0.169l0.005,0.169l0.008,0.167l0.009,0.167l0.012,0.166l0.013,0.166l0.016,0.165l0.018,0.164l0.02,0.164l0.022,0.163l0.023,0.162l0.026,0.162l0.028,0.161l0.03,0.16l0.031,0.16l0.034,0.159l0.035,0.158l0.038,0.157l0.039,0.157l0.041,0.155l0.043,0.155l0.045,0.155l0.047,0.153l0.048,0.153l0.051,0.152l0.052,0.151l0.054,0.15l0.056,0.149l0.057,0.149l0.06,0.148l0.061,0.146l0.062,0.146l0.065,0.145l0.066,0.144l0.068,0.143l0.07,0.143l0.071,0.141l0.073,0.14l0.075,0.139l0.076,0.139l0.078,0.137l0.079,0.136l0.081,0.135l0.083,0.134l0.084,0.134l0.086,0.132l0.087,0.131l0.089,0.13l0.091,0.128l0.092,0.128l0.093,0.126l0.095,0.126l0.096,0.124l0.098,0.123l0.1,0.122l0.1,0.12l0.102,0.119l0.104,0.119l0.105,0.116l0.106,0.116l0.108,0.114l0.109,0.113l0.11,0.112l0.112,0.11l0.113,0.109l0.114,0.108l0.116,0.106l0.117,0.106l0.118,0.103l0.119,0.102l0.121,0.101l0.122,0.099l0.123,0.098l0.124,0.096l0.125,0.095l0.127,0.094l0.127,0.092l0.129,0.09l0.13,0.089l0.131,0.087l0.132,0.086l0.133,0.085l0.134,0.082l0.135,0.081l0.137,0.08l0.137,0.078l0.138,0.076l0.139,0.075l0.141,0.073l0.141,0.071l0.142,0.069l0.143,0.068l0.144,0.067l0.145,0.064l0.146,0.063l0.147,0.061l0.148,0.059l0.148,0.058l0.149,0.056l0.151,0.054l0.151,0.052l0.151,0.05l0.153,0.049l0.154,0.047l0.154,0.044l0.155,0.043l0.156,0.042l0.156,0.039l0.158,0.037l0.158,0.036l0.159,0.033l0.159,0.032l0.16,0.03l0.161,0.027l0.162,0.026l0.162,0.024l0.163,0.022l0.164,0.02l0.164,0.017l0.165,0.016l0.166,0.014l0.166,0.011l0.167,0.01l0.168,0.007l0.168,0.006l0.169,0.003l0.169,0.001l0.17,-0.001l0.169,-0.003l0.168,-0.006l0.168,-0.007l0.167,-0.01l0.166,-0.011l0.166,-0.014l0.165,-0.016l0.164,-0.017l0.164,-0.02l0.163,-0.022l0.162,-0.024l0.162,-0.026l0.161,-0.027l0.16,-0.03l0.159,-0.032l0.159,-0.033l0.158,-0.036l0.158,-0.037l0.156,-0.039l0.156,-0.042l0.155,-0.043l0.154,-0.044l0.154,-0.047l0.152,-0.049l0.152,-0.05l0.151,-0.052l0.151,-0.054l0.149,-0.056l0.148,-0.058l0.148,-0.059l0.147,-0.061l0.146,-0.063l0.145,-0.064l0.144,-0.067l0.143,-0.068l0.142,-0.069l0.141,-0.071l0.141,-0.073l0.139,-0.075l0.138,-0.076l0.137,-0.078l0.137,-0.08l0.135,-0.081l0.134,-0.082l0.133,-0.085l0.132,-0.085l0.131,-0.088l0.13,-0.089l0.129,-0.09l0.127,-0.092l0.127,-0.094l0.125,-0.095l0.124,-0.096l0.123,-0.098l0.122,-0.099l0.121,-0.101l0.119,-0.102l0.118,-0.103l0.117,-0.106l0.116,-0.106l0.114,-0.107l0.113,-0.11l0.112,-0.11l0.11,-0.112l0.109,-0.113l0.108,-0.114l0.106,-0.116l0.105,-0.116l0.104,-0.119l0.102,-0.119l0.1,-0.12l0.1,-0.122l0.098,-0.123l0.096,-0.124l0.095,-0.126l0.093,-0.126l0.092,-0.128l0.091,-0.128l0.089,-0.13l0.087,-0.131l0.086,-0.132l0.084,-0.134l0.083,-0.134l0.081,-0.135l0.079,-0.136l0.078,-0.138l0.076,-0.138l0.075,-0.139l0.073,-0.14l0.071,-0.141l0.07,-0.143l0.068,-0.143l0.066,-0.144l0.065,-0.145l0.062,-0.146l0.061,-0.146l0.06,-0.148l0.057,-0.149l0.056,-0.149l0.054,-0.15l0.052,-0.151l0.051,-0.152l0.048,-0.153l0.047,-0.153l0.045,-0.154l0.043,-0.156l0.041,-0.155l0.039,-0.157l0.038,-0.157l0.035,-0.158l0.034,-0.159l0.031,-0.16l0.03,-0.16l0.028,-0.161l0.026,-0.162l0.023,-0.162l0.022,-0.163l0.02,-0.164l0.018,-0.164l0.016,-0.165l0.013,-0.166l0.012,-0.166l0.009,-0.167l0.008,-0.167l0.005,-0.169l0.003,-0.169l0.001,-0.169l-0.001,-0.169l-0.003,-0.169l-0.005,-0.169l-0.008,-0.167l-0.009,-0.167l-0.012,-0.166l-0.013,-0.166l-0.016,-0.165l-0.018,-0.164l-0.02,-0.164l-0.022,-0.163l-0.023,-0.162l-0.026,-0.162l-0.028,-0.161l-0.03,-0.16l-0.031,-0.16l-0.034,-0.159l-0.035,-0.158l-0.038,-0.157l-0.039,-0.157l-0.041,-0.155l-0.043,-0.156l-0.045,-0.154l-0.047,-0.153l-0.048,-0.153l-0.051,-0.152l-0.052,-0.151l-0.054,-0.15l-0.056,-0.149l-0.057,-0.149l-0.06,-0.148l-0.061,-0.146l-0.062,-0.146l-0.065,-0.145l-0.066,-0.144l-0.068,-0.143l-0.07,-0.143l-0.071,-0.141l-0.073,-0.14l-0.075,-0.139l-0.076,-0.138l-0.078,-0.138l-0.079,-0.136l-0.081,-0.135l-0.083,-0.134l-0.084,-0.134l-0.086,-0.132l-0.087,-0.131l-0.089,-0.13l-0.091,-0.128l-0.092,-0.128l-0.093,-0.126l-0.095,-0.126l-0.096,-0.124l-0.098,-0.123l-0.1,-0.122l-0.1,-0.12l-0.102,-0.119l-0.104,-0.119l-0.105,-0.116l-0.106,-0.116l-0.108,-0.114l-0.109,-0.113l-0.11,-0.112l-0.112,-0.11l-0.113,-0.11l-0.114,-0.107l-0.116,-0.106l-0.117,-0.106l-0.118,-0.103l-0.119,-0.102l-0.121,-0.101l-0.122,-0.099l-0.123,-0.098l-0.124,-0.096l-0.125,-0.095l-0.127,-0.094l-0.127,-0.092l-0.129,-0.09l-0.13,-0.089l-0.131,-0.088l-0.132,-0.085l-0.133,-0.085l-0.134,-0.082l-0.135,-0.081l-0.137,-0.08l-0.137,-0.078l-0.138,-0.076l-0.139,-0.075l-0.141,-0.073l-0.141,-0.071l-0.142,-0.069l-0.143,-0.068l-0.144,-0.067l-0.145,-0.064l-0.146,-0.063l-0.147,-0.061l-0.148,-0.059l-0.148,-0.058l-0.149,-0.056l-0.151,-0.054l-0.151,-0.052l-0.152,-0.05l-0.152,-0.049l-0.154,-0.047l-0.154,-0.044l-0.155,-0.043l-0.156,-0.042l-0.156,-0.039l-0.158,-0.037l-0.158,-0.036l-0.159,-0.033l-0.159,-0.032l-0.16,-0.03l-0.161,-0.027l-0.162,-0.026l-0.162,-0.024l-0.163,-0.022l-0.164,-0.02l-0.164,-0.017l-0.165,-0.016l-0.166,-0.014l-0.166,-0.011l-0.167,-0.01l-0.168,-0.007l-0.168,-0.006l-0.169,-0.003l-0.17,-0.001l-0.169,0.001Z" style="fill:#35495e;"/><g><path d="M273.16,56.396l-5.543,2.296l-5.994,-14.467l5.543,-2.296l5.994,14.467Z" style="fill:#35495e;"/><path d="M298.051,44.225l-5.992,14.467l-5.543,-2.296l5.992,-14.467l5.543,2.296Z" style="fill:#35495e;"/><path d="M318.267,67.688l-14.467,5.992l-2.295,-5.544l14.467,-5.992l2.295,5.544Z" style="fill:#35495e;"/><path d="M318.268,93.031l-2.297,5.544l-14.467,-5.993l2.297,-5.544l14.467,5.993Z" style="fill:#35495e;"/><path d="M298.051,116.494l-5.543,2.296l-5.992,-14.468l5.543,-2.296l5.992,14.468Z" style="fill:#35495e;"/><path d="M273.16,104.322l-5.994,14.468l-5.543,-2.296l5.994,-14.468l5.543,2.296Z" style="fill:#35495e;"/><path d="M258.171,92.582l-14.467,5.993l-2.297,-5.544l14.467,-5.993l2.297,5.544Z" style="fill:#35495e;"/><path d="M258.17,68.136l-2.295,5.544l-14.467,-5.992l2.295,-5.544l14.467,5.992Z" style="fill:#35495e;"/></g></g><path d="M193.63,171.357l-9.642,-5.566l9.642,-5.566l0,11.132Z" style="fill:#35495e;fill-rule:nonzero;"/><g><path d="M194.225,256.56c0,-0.36 0.288,-0.685 0.684,-0.685l3.313,0c0.359,0 0.684,0.324 0.684,0.685l0,20.193l9.179,0c0.395,0 0.685,0.324 0.685,0.684l0,2.952c0,0.359 -0.289,0.684 -0.685,0.684l-13.176,0c-0.395,0 -0.684,-0.324 -0.684,-0.684l0,-23.829l0,0Z" style="fill:#35495e;fill-rule:nonzero;"/><path d="M213.268,280.137l11.194,-24.226c0.108,-0.216 0.288,-0.396 0.612,-0.396l0.361,0c0.359,0 0.504,0.18 0.611,0.396l11.087,24.226c0.216,0.468 -0.072,0.936 -0.612,0.936l-3.131,0c-0.541,0 -0.793,-0.216 -1.045,-0.72l-1.764,-3.888l-10.76,0l-1.764,3.888c-0.145,0.359 -0.469,0.72 -1.045,0.72l-3.131,0c-0.54,-0.001 -0.827,-0.468 -0.612,-0.936Zm15.55,-7.667l-3.6,-7.919l-0.107,0l-3.527,7.919l7.233,0Z" style="fill:#35495e;fill-rule:nonzero;"/><path d="M243.401,256.163c0,-0.359 0.324,-0.647 0.684,-0.647l0.9,0l14.974,15.91l0.036,0l0,-14.866c0,-0.36 0.288,-0.685 0.684,-0.685l3.313,0c0.358,0 0.684,0.324 0.684,0.685l0,24.225c0,0.36 -0.325,0.648 -0.685,0.648l-0.865,0l-15.045,-16.522l-0.037,0l0,15.479c0,0.359 -0.286,0.684 -0.684,0.684l-3.275,0c-0.358,0 -0.684,-0.324 -0.684,-0.684l0,-24.227l-0.001,0Z" style="fill:#35495e;fill-rule:nonzero;"/><path d="M285.34,255.516c3.238,0 6.334,1.26 8.781,3.348c0.289,0.288 0.324,0.72 0.037,1.008l-2.232,2.34c-0.288,0.288 -0.611,0.288 -0.936,0c-1.549,-1.368 -3.456,-2.088 -5.436,-2.088c-4.5,0 -8.063,3.852 -8.063,8.351c0,4.464 3.563,8.243 8.099,8.243c2.016,0 3.563,-0.612 4.283,-0.899l0,-3.061l-2.88,0c-0.396,0 -0.684,-0.287 -0.684,-0.647l0,-2.844c0,-0.396 0.288,-0.684 0.684,-0.684l6.912,0c0.359,0 0.647,0.324 0.647,0.684l0,9.215c0,0.288 -0.144,0.468 -0.288,0.576c0,0 -3.707,2.34 -8.927,2.34c-7.163,0 -12.923,-5.688 -12.923,-12.887c0,-7.199 5.762,-12.995 12.926,-12.995Z" style="fill:#35495e;fill-rule:nonzero;"/><path d="M299.561,280.137l11.194,-24.226c0.108,-0.216 0.288,-0.396 0.612,-0.396l0.358,0c0.359,0 0.505,0.18 0.611,0.396l11.089,24.226c0.214,0.468 -0.072,0.936 -0.613,0.936l-3.131,0c-0.541,0 -0.792,-0.216 -1.044,-0.72l-1.764,-3.888l-10.763,0l-1.764,3.888c-0.145,0.359 -0.469,0.72 -1.044,0.72l-3.132,0c-0.538,-0.001 -0.826,-0.468 -0.61,-0.936Zm15.55,-7.667l-3.6,-7.919l-0.108,0l-3.527,7.919l7.235,0Z" style="fill:#35495e;fill-rule:nonzero;"/></g><path d="M259.585,241.171l-2.524,0l0,-74.341l-63.392,0l0,-2.524l65.916,0l0,76.865Z" style="fill:#35495e;"/><path d="M113.899,97.583l-44.569,0l0,-16.277l44.569,0l0,16.277Zm-38.569,-10.277l0,4.277l32.569,0l0,-4.277l-32.569,0Z" style="fill:#35495e;"/><path d="M105.945,91.583l0,240.201l-28.661,0l0,-240.201l28.661,0Zm-22.661,6l0,228.201l16.661,0l0,-228.201l-16.661,0Z" style="fill:#35495e;"/><path d="M137.847,325.785l9.135,-9.435l9.136,9.435l7.231,0l0,33.506l-143.468,0l0,-33.506l7.23,0l9.136,-9.435l9.135,9.435l92.465,0Zm-108.195,6l-3.771,0l0,21.506l131.468,0l0,-21.506l-3.772,0l-6.595,-6.809l-6.594,6.809l-97.547,0l-6.594,-6.809l-6.595,6.809Z" style="fill:#35495e;"/><rect x="37.432" y="91.583" width="28.423" height="6" style="fill:#35495e;"/><rect x="117.435" y="91.583" width="28.423" height="6" style="fill:#35495e;"/><rect x="34.467" y="176.952" width="5.498" height="5.502" style="fill:#35495e;"/><rect x="64.171" y="176.973" width="5.494" height="5.496" style="fill:#35495e;"/><rect x="44.371" y="176.935" width="5.493" height="5.501" style="fill:#35495e;"/><rect x="54.268" y="177.022" width="5.502" height="5.502" style="fill:#35495e;"/><rect x="34.467" y="186.117" width="5.498" height="5.5" style="fill:#35495e;"/><rect x="64.171" y="186.135" width="5.494" height="5.499" style="fill:#35495e;"/><rect x="44.371" y="186.099" width="5.493" height="5.499" style="fill:#35495e;"/><rect x="54.268" y="186.19" width="5.502" height="5.499" style="fill:#35495e;"/><rect x="34.467" y="195.413" width="5.498" height="5.501" style="fill:#35495e;"/><rect x="64.171" y="195.432" width="5.494" height="5.5" style="fill:#35495e;"/><rect x="44.371" y="195.396" width="5.493" height="5.498" style="fill:#35495e;"/><rect x="54.268" y="195.48" width="5.502" height="5.5" style="fill:#35495e;"/><rect x="34.467" y="204.58" width="5.498" height="5.498" style="fill:#35495e;"/><rect x="64.171" y="204.596" width="5.494" height="5.5" style="fill:#35495e;"/><rect x="44.371" y="204.561" width="5.493" height="5.499" style="fill:#35495e;"/><rect x="54.268" y="204.648" width="5.502" height="5.497" style="fill:#35495e;"/><rect x="34.467" y="213.742" width="5.498" height="5.497" style="fill:#35495e;"/><rect x="64.171" y="213.76" width="5.494" height="5.499" style="fill:#35495e;"/><rect x="44.371" y="213.724" width="5.493" height="5.499" style="fill:#35495e;"/><rect x="54.268" y="213.813" width="5.502" height="5.497" style="fill:#35495e;"/><rect x="34.467" y="222.908" width="5.498" height="5.496" style="fill:#35495e;"/><rect x="64.171" y="222.924" width="5.494" height="5.5" style="fill:#35495e;"/><rect x="44.371" y="222.889" width="5.493" height="5.498" style="fill:#35495e;"/><rect x="54.268" y="222.978" width="5.502" height="5.498" style="fill:#35495e;"/><rect x="34.467" y="232.206" width="5.498" height="5.496" style="fill:#35495e;"/><rect x="64.171" y="232.223" width="5.494" height="5.499" style="fill:#35495e;"/><rect x="44.371" y="232.187" width="5.493" height="5.498" style="fill:#35495e;"/><rect x="54.268" y="232.275" width="5.502" height="5.496" style="fill:#35495e;"/><rect x="34.467" y="241.367" width="5.498" height="5.499" style="fill:#35495e;"/><rect x="64.171" y="241.385" width="5.494" height="5.5" style="fill:#35495e;"/><rect x="44.371" y="241.352" width="5.493" height="5.498" style="fill:#35495e;"/><rect x="54.268" y="241.437" width="5.502" height="5.498" style="fill:#35495e;"/><rect x="34.467" y="250.66" width="5.498" height="5.5" style="fill:#35495e;"/><rect x="64.171" y="250.679" width="5.494" height="5.497" style="fill:#35495e;"/><rect x="44.371" y="250.645" width="5.493" height="5.498" style="fill:#35495e;"/><rect x="54.268" y="250.733" width="5.502" height="5.498" style="fill:#35495e;"/><rect x="34.467" y="259.827" width="5.498" height="5.498" style="fill:#35495e;"/><rect x="64.171" y="259.845" width="5.494" height="5.497" style="fill:#35495e;"/><rect x="44.371" y="259.808" width="5.493" height="5.499" style="fill:#35495e;"/><rect x="54.268" y="259.899" width="5.502" height="5.498" style="fill:#35495e;"/><rect x="34.467" y="268.992" width="5.498" height="5.499" style="fill:#35495e;"/><rect x="64.171" y="269.007" width="5.494" height="5.499" style="fill:#35495e;"/><rect x="44.371" y="268.973" width="5.493" height="5.498" style="fill:#35495e;"/><rect x="54.268" y="269.062" width="5.502" height="5.499" style="fill:#35495e;"/><rect x="34.467" y="278.152" width="5.498" height="5.502" style="fill:#35495e;"/><rect x="64.171" y="278.172" width="5.494" height="5.499" style="fill:#35495e;"/><rect x="44.371" y="278.137" width="5.493" height="5.498" style="fill:#35495e;"/><rect x="54.268" y="278.225" width="5.502" height="5.499" style="fill:#35495e;"/><rect x="34.467" y="287.451" width="5.498" height="5.5" style="fill:#35495e;"/><rect x="64.171" y="287.468" width="5.494" height="5.502" style="fill:#35495e;"/><rect x="44.371" y="287.431" width="5.493" height="5.502" style="fill:#35495e;"/><rect x="54.268" y="287.518" width="5.502" height="5.501" style="fill:#35495e;"/><rect x="34.467" y="296.616" width="5.498" height="5.499" style="fill:#35495e;"/><rect x="64.171" y="296.633" width="5.494" height="5.499" style="fill:#35495e;"/><rect x="44.371" y="296.599" width="5.493" height="5.496" style="fill:#35495e;"/><rect x="54.268" y="296.683" width="5.502" height="5.497" style="fill:#35495e;"/><rect x="34.467" y="305.908" width="5.498" height="5.5" style="fill:#35495e;"/><rect x="64.171" y="305.929" width="5.494" height="5.497" style="fill:#35495e;"/><rect x="44.371" y="305.891" width="5.493" height="5.499" style="fill:#35495e;"/><rect x="54.268" y="305.981" width="5.502" height="5.498" style="fill:#35495e;"/><rect x="34.467" y="315.073" width="5.498" height="5.498" style="fill:#35495e;"/><rect x="64.171" y="315.09" width="5.494" height="5.502" style="fill:#35495e;"/><rect x="44.371" y="315.055" width="5.493" height="5.5" style="fill:#35495e;"/><rect x="54.268" y="315.145" width="5.502" height="5.499" style="fill:#35495e;"/><rect x="33.948" y="112.45" width="5.498" height="5.502" style="fill:#35495e;"/><rect x="63.653" y="112.471" width="5.494" height="5.496" style="fill:#35495e;"/><rect x="43.85" y="112.433" width="5.493" height="5.501" style="fill:#35495e;"/><rect x="53.75" y="112.519" width="5.502" height="5.502" style="fill:#35495e;"/><rect x="33.948" y="121.615" width="5.498" height="5.5" style="fill:#35495e;"/><rect x="63.653" y="121.633" width="5.494" height="5.499" style="fill:#35495e;"/><rect x="43.85" y="121.596" width="5.493" height="5.499" style="fill:#35495e;"/><rect x="53.75" y="121.688" width="5.502" height="5.499" style="fill:#35495e;"/><rect x="33.948" y="130.911" width="5.498" height="5.501" style="fill:#35495e;"/><rect x="63.653" y="130.93" width="5.494" height="5.5" style="fill:#35495e;"/><rect x="43.85" y="130.894" width="5.493" height="5.498" style="fill:#35495e;"/><rect x="53.75" y="130.977" width="5.502" height="5.5" style="fill:#35495e;"/><rect x="33.948" y="140.077" width="5.498" height="5.498" style="fill:#35495e;"/><rect x="63.653" y="140.094" width="5.494" height="5.5" style="fill:#35495e;"/><rect x="43.85" y="140.058" width="5.493" height="5.499" style="fill:#35495e;"/><rect x="53.75" y="140.146" width="5.502" height="5.497" style="fill:#35495e;"/><rect x="33.948" y="149.24" width="5.498" height="5.497" style="fill:#35495e;"/><rect x="63.653" y="149.258" width="5.494" height="5.499" style="fill:#35495e;"/><rect x="43.85" y="149.222" width="5.493" height="5.499" style="fill:#35495e;"/><rect x="53.75" y="149.311" width="5.502" height="5.497" style="fill:#35495e;"/><rect x="33.948" y="158.406" width="5.498" height="5.496" style="fill:#35495e;"/><rect x="63.653" y="158.422" width="5.494" height="5.5" style="fill:#35495e;"/><rect x="43.85" y="158.387" width="5.493" height="5.498" style="fill:#35495e;"/><rect x="53.75" y="158.476" width="5.502" height="5.498" style="fill:#35495e;"/><rect x="33.948" y="167.704" width="5.498" height="5.496" style="fill:#35495e;"/><rect x="63.653" y="167.721" width="5.494" height="5.499" style="fill:#35495e;"/><rect x="43.85" y="167.685" width="5.493" height="5.498" style="fill:#35495e;"/><rect x="53.75" y="167.773" width="5.502" height="5.496" style="fill:#35495e;"/><rect x="34.207" y="102.923" width="5.498" height="5.502" style="fill:#f9ca4b;"/><rect x="63.912" y="102.944" width="5.494" height="5.496" style="fill:#35495e;"/><rect x="44.11" y="102.906" width="5.493" height="5.501" style="fill:#f9ca4b;"/><rect x="54.009" y="102.993" width="5.502" height="5.502" style="fill:#f9ca4b;"/><rect x="114.434" y="176.956" width="5.498" height="5.502" style="fill:#35495e;"/><rect x="144.139" y="176.977" width="5.494" height="5.496" style="fill:#35495e;"/><rect x="124.337" y="176.939" width="5.493" height="5.501" style="fill:#35495e;"/><rect x="134.236" y="177.026" width="5.502" height="5.502" style="fill:#35495e;"/><rect x="114.434" y="186.121" width="5.498" height="5.5" style="fill:#35495e;"/><rect x="144.139" y="186.139" width="5.494" height="5.499" style="fill:#35495e;"/><rect x="124.337" y="186.102" width="5.493" height="5.499" style="fill:#35495e;"/><rect x="134.236" y="186.194" width="5.502" height="5.499" style="fill:#35495e;"/><rect x="114.434" y="195.417" width="5.498" height="5.501" style="fill:#35495e;"/><rect x="144.139" y="195.436" width="5.494" height="5.5" style="fill:#35495e;"/><rect x="124.337" y="195.4" width="5.493" height="5.498" style="fill:#35495e;"/><rect x="134.236" y="195.484" width="5.502" height="5.5" style="fill:#35495e;"/><rect x="114.434" y="204.583" width="5.498" height="5.498" style="fill:#35495e;"/><rect x="144.139" y="204.6" width="5.494" height="5.5" style="fill:#35495e;"/><rect x="124.337" y="204.564" width="5.493" height="5.499" style="fill:#35495e;"/><rect x="134.236" y="204.652" width="5.502" height="5.497" style="fill:#35495e;"/><rect x="114.434" y="213.746" width="5.498" height="5.497" style="fill:#35495e;"/><rect x="144.139" y="213.764" width="5.494" height="5.499" style="fill:#35495e;"/><rect x="124.337" y="213.728" width="5.493" height="5.499" style="fill:#35495e;"/><rect x="134.236" y="213.817" width="5.502" height="5.497" style="fill:#35495e;"/><rect x="114.434" y="222.912" width="5.498" height="5.496" style="fill:#35495e;"/><rect x="144.139" y="222.928" width="5.494" height="5.5" style="fill:#35495e;"/><rect x="124.337" y="222.893" width="5.493" height="5.498" style="fill:#35495e;"/><rect x="134.236" y="222.982" width="5.502" height="5.498" style="fill:#35495e;"/><rect x="114.434" y="232.21" width="5.498" height="5.496" style="fill:#35495e;"/><rect x="144.139" y="232.227" width="5.494" height="5.499" style="fill:#35495e;"/><rect x="124.337" y="232.191" width="5.493" height="5.498" style="fill:#35495e;"/><rect x="134.236" y="232.279" width="5.502" height="5.496" style="fill:#35495e;"/><rect x="114.434" y="241.371" width="5.498" height="5.499" style="fill:#35495e;"/><rect x="144.139" y="241.389" width="5.494" height="5.5" style="fill:#35495e;"/><rect x="124.337" y="241.356" width="5.493" height="5.498" style="fill:#35495e;"/><rect x="134.236" y="241.441" width="5.502" height="5.498" style="fill:#35495e;"/><rect x="114.434" y="250.664" width="5.498" height="5.5" style="fill:#35495e;"/><rect x="144.139" y="250.683" width="5.494" height="5.497" style="fill:#35495e;"/><rect x="124.337" y="250.649" width="5.493" height="5.498" style="fill:#35495e;"/><rect x="134.236" y="250.737" width="5.502" height="5.498" style="fill:#35495e;"/><rect x="114.434" y="259.831" width="5.498" height="5.498" style="fill:#35495e;"/><rect x="144.139" y="259.849" width="5.494" height="5.497" style="fill:#35495e;"/><rect x="124.337" y="259.812" width="5.493" height="5.499" style="fill:#35495e;"/><rect x="134.236" y="259.903" width="5.502" height="5.498" style="fill:#35495e;"/><rect x="114.434" y="268.996" width="5.498" height="5.499" style="fill:#35495e;"/><rect x="144.139" y="269.011" width="5.494" height="5.499" style="fill:#35495e;"/><rect x="124.337" y="268.977" width="5.493" height="5.498" style="fill:#35495e;"/><rect x="134.236" y="269.066" width="5.502" height="5.499" style="fill:#35495e;"/><rect x="114.434" y="278.156" width="5.498" height="5.502" style="fill:#35495e;"/><rect x="144.139" y="278.176" width="5.494" height="5.499" style="fill:#35495e;"/><rect x="124.337" y="278.141" width="5.493" height="5.498" style="fill:#35495e;"/><rect x="134.236" y="278.229" width="5.502" height="5.499" style="fill:#35495e;"/><rect x="114.434" y="287.455" width="5.498" height="5.5" style="fill:#35495e;"/><rect x="144.139" y="287.472" width="5.494" height="5.502" style="fill:#35495e;"/><rect x="124.337" y="287.435" width="5.493" height="5.502" style="fill:#35495e;"/><rect x="134.236" y="287.522" width="5.502" height="5.501" style="fill:#35495e;"/><rect x="114.434" y="296.62" width="5.498" height="5.499" style="fill:#35495e;"/><rect x="144.139" y="296.637" width="5.494" height="5.499" style="fill:#35495e;"/><rect x="124.337" y="296.603" width="5.493" height="5.496" style="fill:#35495e;"/><rect x="134.236" y="296.687" width="5.502" height="5.497" style="fill:#35495e;"/><rect x="114.434" y="305.911" width="5.498" height="5.5" style="fill:#35495e;"/><rect x="144.139" y="305.932" width="5.494" height="5.497" style="fill:#35495e;"/><rect x="124.337" y="305.895" width="5.493" height="5.499" style="fill:#35495e;"/><rect x="134.236" y="305.985" width="5.502" height="5.498" style="fill:#35495e;"/><rect x="114.434" y="315.077" width="5.498" height="5.498" style="fill:#35495e;"/><rect x="144.139" y="315.094" width="5.494" height="5.501" style="fill:#35495e;"/><rect x="124.337" y="315.059" width="5.493" height="5.5" style="fill:#35495e;"/><rect x="134.236" y="315.149" width="5.502" height="5.499" style="fill:#35495e;"/><rect x="113.915" y="112.454" width="5.498" height="5.502" style="fill:#35495e;"/><rect x="143.619" y="112.475" width="5.494" height="5.496" style="fill:#35495e;"/><rect x="123.818" y="112.436" width="5.493" height="5.501" style="fill:#35495e;"/><rect x="133.717" y="112.523" width="5.502" height="5.502" style="fill:#35495e;"/><rect x="113.915" y="121.619" width="5.498" height="5.5" style="fill:#35495e;"/><rect x="143.619" y="121.637" width="5.494" height="5.499" style="fill:#35495e;"/><rect x="123.818" y="121.6" width="5.493" height="5.499" style="fill:#35495e;"/><rect x="133.717" y="121.692" width="5.502" height="5.499" style="fill:#35495e;"/><rect x="113.915" y="130.914" width="5.498" height="5.501" style="fill:#35495e;"/><rect x="143.619" y="130.933" width="5.494" height="5.5" style="fill:#35495e;"/><rect x="123.818" y="130.898" width="5.493" height="5.498" style="fill:#35495e;"/><rect x="133.717" y="130.981" width="5.502" height="5.5" style="fill:#35495e;"/><rect x="113.915" y="140.081" width="5.498" height="5.498" style="fill:#35495e;"/><rect x="143.619" y="140.098" width="5.494" height="5.5" style="fill:#35495e;"/><rect x="123.818" y="140.062" width="5.493" height="5.499" style="fill:#35495e;"/><rect x="133.717" y="140.15" width="5.502" height="5.497" style="fill:#35495e;"/><rect x="113.915" y="149.244" width="5.498" height="5.497" style="fill:#35495e;"/><rect x="143.619" y="149.262" width="5.494" height="5.499" style="fill:#35495e;"/><rect x="123.818" y="149.226" width="5.493" height="5.499" style="fill:#35495e;"/><rect x="133.717" y="149.315" width="5.502" height="5.497" style="fill:#35495e;"/><rect x="113.915" y="158.41" width="5.498" height="5.496" style="fill:#35495e;"/><rect x="143.619" y="158.426" width="5.494" height="5.5" style="fill:#35495e;"/><rect x="123.818" y="158.391" width="5.493" height="5.498" style="fill:#35495e;"/><rect x="133.717" y="158.48" width="5.502" height="5.498" style="fill:#35495e;"/><rect x="113.915" y="167.708" width="5.498" height="5.496" style="fill:#35495e;"/><rect x="143.619" y="167.725" width="5.494" height="5.499" style="fill:#35495e;"/><rect x="123.818" y="167.688" width="5.493" height="5.498" style="fill:#35495e;"/><rect x="133.717" y="167.777" width="5.502" height="5.496" style="fill:#35495e;"/><rect x="114.174" y="102.927" width="5.498" height="5.502" style="fill:#35495e;"/><rect x="143.879" y="102.948" width="5.494" height="5.496" style="fill:#35495e;"/><rect x="124.077" y="102.91" width="5.493" height="5.501" style="fill:#35495e;"/><rect x="133.976" y="102.997" width="5.502" height="5.502" style="fill:#35495e;"/><rect x="107.64" y="344.345" width="5.501" height="5.498" style="fill:#35495e;"/><rect x="107.622" y="334.447" width="5.501" height="5.493" style="fill:#35495e;"/><rect x="126.1" y="344.345" width="5.501" height="5.498" style="fill:#35495e;"/><rect x="126.083" y="334.447" width="5.498" height="5.493" style="fill:#35495e;"/><rect x="144.43" y="344.345" width="5.497" height="5.498" style="fill:#35495e;"/><rect x="144.412" y="334.447" width="5.499" height="5.493" style="fill:#35495e;"/><rect x="52.301" y="344.865" width="5.5" height="5.498" style="fill:#35495e;"/><rect x="52.283" y="334.967" width="5.499" height="5.493" style="fill:#35495e;"/><rect x="70.765" y="344.865" width="5.498" height="5.498" style="fill:#35495e;"/><rect x="70.745" y="334.967" width="5.499" height="5.493" style="fill:#35495e;"/><rect x="89.093" y="344.865" width="5.496" height="5.498" style="fill:#35495e;"/><rect x="89.075" y="334.967" width="5.498" height="5.493" style="fill:#35495e;"/><rect x="33.61" y="344.605" width="5.502" height="5.498" style="fill:#35495e;"/><rect x="33.594" y="334.707" width="5.501" height="5.493" style="fill:#35495e;"/><path d="M51.741,71.995l0.158,0.003l0.157,0.005l0.158,0.007l0.156,0.009l0.157,0.011l0.155,0.013l0.156,0.014l0.154,0.017l0.155,0.019l0.154,0.02l0.153,0.023l0.152,0.024l0.152,0.026l0.152,0.028l0.151,0.03l0.15,0.032l0.149,0.033l0.149,0.036l0.148,0.037l0.148,0.039l0.146,0.04l0.146,0.043l0.146,0.044l0.144,0.046l0.144,0.048l0.143,0.049l0.142,0.051l0.141,0.053l0.141,0.054l0.139,0.056l0.139,0.058l0.138,0.059l0.137,0.061l0.136,0.062l0.135,0.065l0.134,0.065l0.133,0.068l0.133,0.068l0.131,0.071l0.131,0.072l0.129,0.073l0.129,0.075l0.127,0.076l0.126,0.078l0.126,0.079l0.124,0.081l0.123,0.082l0.123,0.084l0.121,0.085l0.12,0.087l0.119,0.087l0.118,0.09l0.116,0.09l0.116,0.092l0.114,0.094l0.114,0.094l0.112,0.096l0.111,0.097l0.11,0.099l0.108,0.1l0.107,0.101l0.107,0.102l0.105,0.104l0.103,0.105l0.103,0.106l0.101,0.107l0.1,0.109l0.098,0.11l0.097,0.111l0.096,0.112l0.095,0.113l0.093,0.115l0.092,0.115l0.091,0.117l0.089,0.118l0.088,0.119l0.086,0.12l0.085,0.121l0.084,0.122l0.082,0.123l0.081,0.125l0.079,0.125l0.078,0.126l0.077,0.128l0.075,0.128l0.073,0.13l0.072,0.13l0.07,0.132l0.069,0.132l0.067,0.133l0.066,0.135l0.064,0.135l0.063,0.136l0.061,0.137l0.059,0.138l0.058,0.138l0.056,0.14l0.054,0.14l0.053,0.142l0.051,0.142l0.049,0.143l0.048,0.143l0.046,0.145l0.044,0.145l0.042,0.146l0.041,0.147l0.039,0.147l0.019,0.075l11.803,0l0,10.277l7.955,0l0,240.202l-40.217,0l-6.595,-6.809l-10.865,11.219l0,-4.411l-5.726,0l0,-240.201l7.95,0l0,-10.277l11.808,0l0.019,-0.075l0.039,-0.147l0.041,-0.147l0.042,-0.146l0.044,-0.145l0.046,-0.145l0.048,-0.143l0.049,-0.143l0.051,-0.142l0.053,-0.142l0.054,-0.14l0.056,-0.14l0.058,-0.138l0.059,-0.138l0.061,-0.137l0.063,-0.136l0.064,-0.135l0.066,-0.135l0.067,-0.133l0.069,-0.132l0.07,-0.132l0.072,-0.13l0.073,-0.13l0.075,-0.128l0.077,-0.128l0.078,-0.126l0.079,-0.125l0.081,-0.125l0.082,-0.123l0.084,-0.122l0.085,-0.121l0.086,-0.12l0.088,-0.119l0.089,-0.118l0.091,-0.117l0.092,-0.115l0.093,-0.115l0.095,-0.113l0.096,-0.112l0.097,-0.111l0.098,-0.11l0.1,-0.109l0.101,-0.107l0.103,-0.106l0.103,-0.105l0.105,-0.104l0.107,-0.102l0.107,-0.101l0.108,-0.1l0.11,-0.099l0.111,-0.097l0.112,-0.096l0.114,-0.094l0.114,-0.094l0.116,-0.092l0.116,-0.09l0.118,-0.09l0.119,-0.087l0.12,-0.087l0.121,-0.085l0.123,-0.084l0.123,-0.082l0.124,-0.081l0.126,-0.079l0.126,-0.078l0.127,-0.076l0.129,-0.075l0.129,-0.073l0.131,-0.072l0.131,-0.071l0.133,-0.068l0.133,-0.068l0.134,-0.065l0.135,-0.065l0.136,-0.062l0.137,-0.061l0.138,-0.059l0.139,-0.058l0.139,-0.056l0.141,-0.054l0.141,-0.053l0.142,-0.051l0.143,-0.049l0.144,-0.048l0.144,-0.046l0.146,-0.044l0.146,-0.043l0.146,-0.04l0.148,-0.039l0.148,-0.037l0.149,-0.036l0.149,-0.033l0.15,-0.032l0.151,-0.03l0.152,-0.028l0.152,-0.026l0.152,-0.024l0.153,-0.023l0.154,-0.02l0.155,-0.019l0.154,-0.017l0.156,-0.014l0.155,-0.013l0.157,-0.011l0.156,-0.009l0.158,-0.007l0.157,-0.005l0.158,-0.003l0.158,-0.001l0.159,0.001Zm-0.241,6l-0.082,0.001l-0.082,0.003l-0.081,0.003l-0.081,0.005l-0.08,0.006l-0.081,0.006l-0.08,0.008l-0.079,0.008l-0.079,0.01l-0.079,0.01l-0.079,0.012l-0.078,0.012l-0.077,0.014l-0.078,0.014l-0.077,0.015l-0.076,0.017l-0.077,0.017l-0.076,0.018l-0.075,0.019l-0.075,0.019l-0.075,0.021l-0.075,0.022l-0.074,0.022l-0.073,0.024l-0.074,0.024l-0.072,0.025l-0.073,0.026l-0.072,0.027l-0.072,0.028l-0.071,0.028l-0.071,0.03l-0.07,0.03l-0.07,0.031l-0.069,0.032l-0.069,0.033l-0.069,0.034l-0.068,0.034l-0.068,0.035l-0.067,0.036l-0.067,0.037l-0.066,0.037l-0.066,0.039l-0.065,0.039l-0.065,0.04l-0.064,0.041l-0.064,0.041l-0.064,0.042l-0.062,0.043l-0.063,0.044l-0.061,0.044l-0.061,0.045l-0.061,0.046l-0.06,0.047l-0.059,0.047l-0.059,0.048l-0.059,0.049l-0.057,0.049l-0.057,0.05l-0.057,0.051l-0.056,0.052l-0.055,0.052l-0.055,0.052l-0.054,0.054l-0.053,0.054l-0.053,0.054l-0.052,0.056l-0.051,0.056l-0.051,0.056l-0.05,0.057l-0.05,0.058l-0.048,0.058l-0.048,0.059l-0.048,0.06l-0.046,0.06l-0.046,0.06l-0.045,0.061l-0.045,0.062l-0.043,0.062l-0.043,0.063l-0.042,0.063l-0.042,0.064l-0.041,0.064l-0.04,0.065l-0.039,0.065l-0.038,0.066l-0.038,0.067l-0.036,0.066l-0.036,0.068l-0.036,0.067l-0.034,0.068l-0.034,0.069l-0.032,0.069l-0.032,0.07l-0.031,0.07l-0.031,0.07l-0.029,0.071l-0.029,0.071l-0.027,0.072l-0.027,0.072l-0.026,0.072l-0.025,0.073l-0.025,0.073l-0.023,0.074l-0.023,0.074l-0.021,0.074l-0.021,0.075l-0.02,0.075l-0.019,0.076l-0.018,0.076l-0.017,0.076l-0.016,0.077l-0.015,0.077l-0.015,0.077l-0.013,0.078l-0.013,0.078l-0.011,0.078l-0.011,0.079l-0.009,0.079l-0.009,0.08l-0.007,0.08l-0.007,0.08l-0.006,0.081l-0.004,0.081l-0.004,0.081l-0.002,0.082l-0.002,0.082l-0.019,3.082l-11.421,0l0,10.277l-7.95,0l0,228.201l1.457,0l9.134,-9.432l9.136,9.433l31.676,0l0,-228.202l-7.955,0l0,-10.277l-11.416,0l-0.019,-3.082l-0.002,-0.082l-0.002,-0.082l-0.004,-0.081l-0.004,-0.081l-0.006,-0.081l-0.007,-0.08l-0.007,-0.08l-0.009,-0.08l-0.009,-0.079l-0.011,-0.079l-0.011,-0.078l-0.013,-0.078l-0.013,-0.078l-0.015,-0.077l-0.015,-0.077l-0.016,-0.077l-0.017,-0.076l-0.018,-0.076l-0.019,-0.076l-0.02,-0.075l-0.021,-0.075l-0.021,-0.074l-0.023,-0.074l-0.023,-0.074l-0.025,-0.073l-0.025,-0.073l-0.026,-0.072l-0.027,-0.072l-0.027,-0.072l-0.029,-0.071l-0.029,-0.071l-0.031,-0.07l-0.031,-0.07l-0.032,-0.07l-0.032,-0.069l-0.034,-0.069l-0.034,-0.068l-0.036,-0.067l-0.036,-0.068l-0.036,-0.066l-0.038,-0.067l-0.038,-0.066l-0.039,-0.065l-0.04,-0.065l-0.041,-0.064l-0.042,-0.064l-0.042,-0.063l-0.043,-0.063l-0.043,-0.062l-0.045,-0.062l-0.045,-0.061l-0.046,-0.06l-0.046,-0.06l-0.048,-0.06l-0.048,-0.059l-0.048,-0.058l-0.05,-0.058l-0.05,-0.057l-0.051,-0.056l-0.051,-0.056l-0.052,-0.056l-0.053,-0.054l-0.053,-0.054l-0.054,-0.054l-0.055,-0.052l-0.055,-0.052l-0.056,-0.052l-0.057,-0.051l-0.057,-0.05l-0.057,-0.049l-0.059,-0.049l-0.059,-0.048l-0.059,-0.047l-0.06,-0.047l-0.061,-0.046l-0.061,-0.045l-0.061,-0.044l-0.063,-0.044l-0.062,-0.043l-0.064,-0.042l-0.064,-0.041l-0.064,-0.041l-0.065,-0.04l-0.065,-0.039l-0.066,-0.039l-0.066,-0.037l-0.067,-0.037l-0.067,-0.036l-0.068,-0.035l-0.068,-0.034l-0.069,-0.034l-0.069,-0.033l-0.069,-0.032l-0.07,-0.031l-0.07,-0.03l-0.071,-0.03l-0.071,-0.028l-0.072,-0.028l-0.072,-0.027l-0.073,-0.026l-0.072,-0.025l-0.074,-0.024l-0.073,-0.024l-0.074,-0.022l-0.075,-0.022l-0.075,-0.021l-0.075,-0.019l-0.075,-0.019l-0.076,-0.018l-0.077,-0.017l-0.076,-0.017l-0.077,-0.015l-0.078,-0.014l-0.077,-0.014l-0.078,-0.012l-0.079,-0.012l-0.079,-0.01l-0.079,-0.01l-0.079,-0.008l-0.08,-0.008l-0.081,-0.006l-0.08,-0.006l-0.081,-0.005l-0.081,-0.003l-0.082,-0.003l-0.082,-0.001l-0.083,-0.001l-0.082,0.001Z" style="fill:#35495e;"/><path d="M131.806,71.995l0.158,0.003l0.157,0.005l0.158,0.007l0.156,0.009l0.157,0.011l0.155,0.013l0.156,0.014l0.154,0.017l0.155,0.019l0.154,0.02l0.153,0.023l0.152,0.024l0.152,0.026l0.152,0.028l0.151,0.03l0.15,0.032l0.149,0.033l0.149,0.036l0.148,0.037l0.148,0.039l0.146,0.04l0.146,0.043l0.146,0.044l0.144,0.046l0.144,0.048l0.143,0.049l0.142,0.051l0.141,0.053l0.141,0.054l0.139,0.056l0.139,0.058l0.138,0.059l0.137,0.061l0.136,0.062l0.135,0.065l0.134,0.065l0.133,0.067l0.133,0.069l0.131,0.071l0.131,0.072l0.129,0.073l0.129,0.075l0.127,0.076l0.126,0.078l0.126,0.079l0.124,0.081l0.123,0.082l0.123,0.084l0.121,0.085l0.12,0.087l0.119,0.087l0.118,0.09l0.116,0.09l0.116,0.092l0.114,0.094l0.114,0.094l0.112,0.096l0.111,0.097l0.11,0.099l0.108,0.1l0.107,0.101l0.107,0.102l0.105,0.104l0.103,0.105l0.103,0.106l0.101,0.107l0.099,0.109l0.099,0.11l0.097,0.111l0.096,0.112l0.095,0.113l0.093,0.115l0.092,0.115l0.091,0.117l0.089,0.118l0.088,0.119l0.086,0.12l0.085,0.121l0.084,0.122l0.082,0.123l0.081,0.125l0.079,0.125l0.078,0.127l0.077,0.127l0.075,0.128l0.073,0.13l0.072,0.13l0.07,0.132l0.069,0.132l0.067,0.133l0.066,0.135l0.064,0.135l0.063,0.136l0.06,0.137l0.06,0.138l0.058,0.138l0.056,0.14l0.054,0.14l0.053,0.142l0.051,0.142l0.049,0.143l0.048,0.143l0.046,0.145l0.044,0.145l0.042,0.146l0.041,0.147l0.039,0.147l0.019,0.075l11.807,0l0,10.277l7.95,0l0,240.201l-9.771,0l-6.594,-6.809l-6.595,6.809l-40.443,0l0,-240.201l7.955,0l0,-10.277l11.804,0l0.019,-0.075l0.039,-0.147l0.041,-0.147l0.042,-0.146l0.044,-0.145l0.046,-0.145l0.048,-0.143l0.049,-0.143l0.051,-0.142l0.053,-0.142l0.054,-0.14l0.056,-0.14l0.058,-0.138l0.06,-0.138l0.06,-0.137l0.063,-0.136l0.064,-0.135l0.066,-0.135l0.067,-0.133l0.069,-0.132l0.07,-0.132l0.072,-0.13l0.073,-0.13l0.075,-0.128l0.077,-0.128l0.078,-0.126l0.079,-0.125l0.081,-0.125l0.082,-0.123l0.084,-0.122l0.085,-0.121l0.086,-0.12l0.088,-0.119l0.089,-0.118l0.091,-0.117l0.092,-0.115l0.093,-0.115l0.095,-0.113l0.096,-0.112l0.097,-0.111l0.099,-0.11l0.099,-0.109l0.101,-0.107l0.103,-0.106l0.103,-0.105l0.105,-0.104l0.107,-0.102l0.107,-0.101l0.108,-0.1l0.11,-0.099l0.111,-0.097l0.112,-0.096l0.114,-0.094l0.114,-0.094l0.116,-0.092l0.116,-0.09l0.118,-0.09l0.119,-0.087l0.12,-0.087l0.121,-0.085l0.123,-0.084l0.123,-0.082l0.124,-0.081l0.126,-0.079l0.126,-0.078l0.127,-0.076l0.129,-0.075l0.129,-0.073l0.131,-0.072l0.131,-0.071l0.133,-0.068l0.133,-0.068l0.134,-0.065l0.135,-0.065l0.136,-0.062l0.137,-0.061l0.138,-0.059l0.139,-0.058l0.139,-0.056l0.141,-0.054l0.141,-0.053l0.142,-0.051l0.143,-0.049l0.144,-0.048l0.144,-0.046l0.146,-0.044l0.146,-0.043l0.146,-0.04l0.148,-0.039l0.148,-0.037l0.149,-0.036l0.149,-0.033l0.15,-0.032l0.151,-0.03l0.152,-0.028l0.152,-0.026l0.152,-0.024l0.153,-0.023l0.154,-0.02l0.155,-0.019l0.154,-0.017l0.156,-0.014l0.155,-0.013l0.157,-0.011l0.156,-0.009l0.158,-0.007l0.157,-0.005l0.158,-0.003l0.159,-0.001l0.158,0.001Zm25.542,253.789l0,-228.201l-7.95,0l0,-10.277l-11.42,0l-0.019,-3.082l-0.002,-0.082l-0.002,-0.082l-0.004,-0.081l-0.004,-0.081l-0.006,-0.081l-0.007,-0.08l-0.007,-0.08l-0.009,-0.08l-0.009,-0.079l-0.011,-0.079l-0.011,-0.078l-0.013,-0.078l-0.013,-0.078l-0.015,-0.077l-0.015,-0.077l-0.016,-0.077l-0.017,-0.076l-0.018,-0.076l-0.019,-0.076l-0.02,-0.075l-0.021,-0.075l-0.021,-0.074l-0.023,-0.074l-0.023,-0.074l-0.025,-0.073l-0.025,-0.073l-0.026,-0.072l-0.027,-0.072l-0.027,-0.072l-0.029,-0.071l-0.029,-0.071l-0.031,-0.07l-0.031,-0.07l-0.032,-0.07l-0.032,-0.069l-0.034,-0.069l-0.034,-0.068l-0.036,-0.067l-0.036,-0.068l-0.036,-0.067l-0.038,-0.066l-0.038,-0.066l-0.04,-0.065l-0.039,-0.065l-0.041,-0.064l-0.042,-0.064l-0.042,-0.063l-0.043,-0.063l-0.043,-0.062l-0.045,-0.062l-0.045,-0.061l-0.046,-0.06l-0.046,-0.061l-0.048,-0.059l-0.048,-0.059l-0.048,-0.058l-0.05,-0.058l-0.05,-0.057l-0.051,-0.056l-0.051,-0.056l-0.052,-0.056l-0.053,-0.054l-0.053,-0.054l-0.054,-0.054l-0.055,-0.052l-0.055,-0.052l-0.056,-0.052l-0.057,-0.051l-0.057,-0.05l-0.057,-0.049l-0.059,-0.049l-0.059,-0.048l-0.059,-0.047l-0.06,-0.047l-0.061,-0.046l-0.061,-0.045l-0.062,-0.044l-0.062,-0.044l-0.062,-0.043l-0.064,-0.042l-0.064,-0.041l-0.064,-0.041l-0.065,-0.04l-0.065,-0.039l-0.066,-0.039l-0.066,-0.037l-0.067,-0.037l-0.067,-0.036l-0.068,-0.035l-0.068,-0.035l-0.069,-0.033l-0.069,-0.033l-0.069,-0.032l-0.07,-0.031l-0.07,-0.03l-0.071,-0.03l-0.072,-0.028l-0.071,-0.028l-0.072,-0.027l-0.073,-0.026l-0.072,-0.025l-0.074,-0.024l-0.073,-0.024l-0.074,-0.022l-0.075,-0.022l-0.075,-0.021l-0.075,-0.019l-0.075,-0.019l-0.076,-0.018l-0.077,-0.017l-0.076,-0.017l-0.077,-0.015l-0.078,-0.014l-0.077,-0.014l-0.078,-0.012l-0.079,-0.012l-0.079,-0.01l-0.079,-0.01l-0.079,-0.008l-0.08,-0.008l-0.081,-0.006l-0.08,-0.006l-0.081,-0.005l-0.081,-0.003l-0.082,-0.003l-0.082,-0.001l-0.082,-0.001l-0.083,0.001l-0.082,0.001l-0.082,0.003l-0.081,0.003l-0.081,0.005l-0.08,0.006l-0.081,0.006l-0.08,0.008l-0.079,0.008l-0.079,0.01l-0.079,0.01l-0.079,0.012l-0.078,0.012l-0.077,0.014l-0.078,0.014l-0.077,0.015l-0.076,0.017l-0.077,0.017l-0.076,0.018l-0.075,0.019l-0.075,0.019l-0.075,0.021l-0.075,0.022l-0.074,0.022l-0.073,0.024l-0.074,0.024l-0.072,0.025l-0.073,0.026l-0.072,0.027l-0.071,0.028l-0.072,0.028l-0.071,0.03l-0.07,0.03l-0.07,0.031l-0.069,0.032l-0.069,0.033l-0.069,0.034l-0.068,0.034l-0.068,0.035l-0.067,0.036l-0.067,0.037l-0.066,0.037l-0.066,0.039l-0.065,0.039l-0.065,0.04l-0.064,0.041l-0.064,0.041l-0.064,0.042l-0.062,0.043l-0.063,0.044l-0.061,0.044l-0.061,0.045l-0.061,0.046l-0.06,0.047l-0.059,0.047l-0.059,0.048l-0.059,0.049l-0.057,0.049l-0.057,0.05l-0.057,0.051l-0.056,0.052l-0.055,0.052l-0.055,0.052l-0.054,0.054l-0.053,0.054l-0.053,0.054l-0.052,0.056l-0.051,0.056l-0.051,0.056l-0.05,0.057l-0.05,0.058l-0.048,0.058l-0.048,0.059l-0.048,0.06l-0.046,0.06l-0.046,0.06l-0.045,0.061l-0.045,0.062l-0.043,0.062l-0.043,0.063l-0.042,0.063l-0.042,0.064l-0.041,0.064l-0.04,0.065l-0.039,0.065l-0.038,0.066l-0.038,0.066l-0.036,0.067l-0.036,0.068l-0.036,0.067l-0.034,0.068l-0.034,0.069l-0.032,0.069l-0.032,0.07l-0.031,0.07l-0.031,0.07l-0.029,0.071l-0.029,0.071l-0.027,0.072l-0.027,0.072l-0.026,0.072l-0.025,0.073l-0.025,0.073l-0.023,0.074l-0.023,0.074l-0.021,0.074l-0.021,0.075l-0.02,0.075l-0.019,0.076l-0.018,0.076l-0.017,0.076l-0.016,0.077l-0.015,0.077l-0.015,0.077l-0.013,0.078l-0.013,0.078l-0.011,0.078l-0.011,0.079l-0.009,0.079l-0.009,0.08l-0.007,0.08l-0.007,0.08l-0.006,0.081l-0.004,0.081l-0.004,0.081l-0.002,0.082l-0.002,0.082l-0.019,3.082l-11.417,0l0,10.277l-7.955,0l0,228.201l31.902,0l9.136,-9.433l9.135,9.433l1.23,0Z" style="fill:#35495e;"/></svg>