<?xml version="1.0" encoding="utf-8"?>
<!-- Generator: Adobe Illustrator 19.2.1, SVG Export Plug-In . SVG Version: 6.00 Build 0)  -->
<svg version="1.1" id="Layer_1" xmlns="http://www.w3.org/2000/svg" xmlns:xlink="http://www.w3.org/1999/xlink" x="0px" y="0px"
	 viewBox="0 0 390.519 316.648" enable-background="new 0 0 390.519 316.648" xml:space="preserve">
<g>
	<path fill="#35495E" d="M384.519,6v304.648H6V6H384.519 M390.519,0H0v316.648h390.519V0L390.519,0z"/>
</g>
<g>
	<circle fill="none" stroke="#35495E" stroke-width="6" stroke-miterlimit="10" cx="279.097" cy="68.683" r="16.065"/>
	<g>
		<line fill="none" stroke="#35495E" stroke-width="6" stroke-miterlimit="10" x1="263.654" y1="31.401" x2="269.648" y2="45.868"/>
		<line fill="none" stroke="#35495E" stroke-width="6" stroke-miterlimit="10" x1="294.539" y1="31.401" x2="288.547" y2="45.868"/>
		<line fill="none" stroke="#35495E" stroke-width="6" stroke-miterlimit="10" x1="316.379" y1="53.24" x2="301.912" y2="59.232"/>
		<line fill="none" stroke="#35495E" stroke-width="6" stroke-miterlimit="10" x1="316.379" y1="84.127" x2="301.912" y2="78.134"/>
		
			<line fill="none" stroke="#35495E" stroke-width="6" stroke-miterlimit="10" x1="294.539" y1="105.966" x2="288.547" y2="91.498"/>
		
			<line fill="none" stroke="#35495E" stroke-width="6" stroke-miterlimit="10" x1="263.654" y1="105.966" x2="269.648" y2="91.498"/>
		<line fill="none" stroke="#35495E" stroke-width="6" stroke-miterlimit="10" x1="241.815" y1="84.127" x2="256.282" y2="78.134"/>
		<line fill="none" stroke="#35495E" stroke-width="6" stroke-miterlimit="10" x1="241.815" y1="53.24" x2="256.282" y2="59.232"/>
	</g>
</g>
<polygon fill="#35495E" points="192.89,141.681 183.248,136.115 192.89,130.549 "/>
<g enable-background="new    ">
	<path fill="#35495E" d="M213.484,234.884c0-0.36,0.288-0.685,0.684-0.685h3.313c0.359,0,0.684,0.324,0.684,0.685v20.193h9.179
		c0.396,0,0.685,0.324,0.685,0.684v2.952c0,0.359-0.289,0.684-0.685,0.684h-13.175c-0.396,0-0.684-0.324-0.684-0.684V234.884z"/>
	<path fill="#35495E" d="M232.528,258.461l11.194-24.226c0.108-0.216,0.288-0.396,0.612-0.396h0.36c0.359,0,0.504,0.18,0.611,0.396
		l11.087,24.226c0.216,0.468-0.072,0.936-0.612,0.936h-3.131c-0.541,0-0.793-0.216-1.045-0.72l-1.764-3.888H239.08l-1.764,3.888
		c-0.145,0.359-0.469,0.72-1.045,0.72h-3.131C232.6,259.396,232.313,258.929,232.528,258.461z M248.078,250.794l-3.6-7.919h-0.107
		l-3.527,7.919H248.078z"/>
	<path fill="#35495E" d="M262.66,234.487c0-0.359,0.324-0.647,0.684-0.647h0.9l14.974,15.91h0.036v-14.866
		c0-0.36,0.288-0.685,0.684-0.685h3.313c0.359,0,0.684,0.324,0.684,0.685v24.225c0,0.36-0.324,0.648-0.684,0.648h-0.865
		l-15.045-16.522h-0.037v15.479c0,0.359-0.287,0.684-0.684,0.684h-3.275c-0.359,0-0.684-0.324-0.684-0.684V234.487z"/>
	<path fill="#35495E" d="M304.599,233.84c3.239,0,6.335,1.26,8.782,3.348c0.289,0.288,0.324,0.72,0.037,1.008l-2.232,2.34
		c-0.288,0.288-0.611,0.288-0.936,0c-1.549-1.368-3.456-2.088-5.436-2.088c-4.5,0-8.063,3.852-8.063,8.351
		c0,4.464,3.563,8.243,8.099,8.243c2.016,0,3.563-0.612,4.283-0.899v-3.061h-2.88c-0.396,0-0.684-0.287-0.684-0.647v-2.844
		c0-0.396,0.288-0.684,0.684-0.684h6.912c0.359,0,0.647,0.324,0.647,0.684v9.215c0,0.288-0.144,0.468-0.288,0.576
		c0,0-3.707,2.34-8.927,2.34c-7.163,0-12.923-5.688-12.923-12.887S297.436,233.84,304.599,233.84z"/>
	<path fill="#35495E" d="M318.82,258.461l11.194-24.226c0.108-0.216,0.288-0.396,0.612-0.396h0.359c0.359,0,0.504,0.18,0.611,0.396
		l11.088,24.226c0.215,0.468-0.072,0.936-0.613,0.936h-3.131c-0.54,0-0.792-0.216-1.044-0.72l-1.764-3.888h-10.763l-1.764,3.888
		c-0.145,0.359-0.469,0.72-1.044,0.72h-3.132C318.892,259.396,318.604,258.929,318.82,258.461z M334.37,250.794l-3.6-7.919h-0.108
		l-3.527,7.919H334.37z"/>
</g>
<line fill="none" stroke="#35495E" stroke-width="3" stroke-miterlimit="10" x1="213.667" y1="271.145" x2="342.757" y2="271.145"/>
<polyline fill="none" stroke="#35495E" stroke-width="3" stroke-linecap="square" stroke-miterlimit="10" points="279.097,218.233 
	279.097,136.115 196.979,136.115 "/>
<rect x="76.589" y="41.63" fill="none" stroke="#35495E" stroke-width="6" stroke-miterlimit="10" width="38.569" height="10.277"/>
<rect x="84.544" y="51.907" fill="none" stroke="#35495E" stroke-width="6" stroke-miterlimit="10" width="22.66" height="234.201"/>
<polygon fill="none" stroke="#35495E" stroke-width="6" stroke-miterlimit="10" points="159.107,286.109 151.242,277.987 
	143.377,286.109 48.371,286.109 40.506,277.987 32.641,286.109 27.14,286.109 27.14,313.615 164.609,313.615 164.609,286.109 "/>
<line fill="none" stroke="#35495E" stroke-width="6" stroke-miterlimit="10" x1="41.691" y1="51.907" x2="70.114" y2="51.907"/>
<line fill="none" stroke="#35495E" stroke-width="6" stroke-miterlimit="10" x1="121.695" y1="51.907" x2="150.118" y2="51.907"/>
<rect x="38.727" y="134.276" fill="#35495E" width="5.498" height="5.502"/>
<rect x="68.431" y="134.297" fill="#35495E" width="5.494" height="5.496"/>
<rect x="48.63" y="134.259" fill="#35495E" width="5.493" height="5.501"/>
<rect x="58.528" y="134.346" fill="#35495E" width="5.502" height="5.502"/>
<rect x="38.727" y="143.441" fill="#35495E" width="5.498" height="5.5"/>
<rect x="68.431" y="143.459" fill="#35495E" width="5.494" height="5.499"/>
<rect x="48.63" y="143.423" fill="#35495E" width="5.493" height="5.499"/>
<rect x="58.528" y="143.514" fill="#35495E" width="5.502" height="5.499"/>
<rect x="38.727" y="152.737" fill="#35495E" width="5.498" height="5.501"/>
<rect x="68.431" y="152.756" fill="#35495E" width="5.494" height="5.5"/>
<rect x="48.63" y="152.72" fill="#35495E" width="5.493" height="5.498"/>
<rect x="58.528" y="152.804" fill="#35495E" width="5.502" height="5.5"/>
<rect x="38.727" y="161.904" fill="#35495E" width="5.498" height="5.498"/>
<rect x="68.431" y="161.92" fill="#35495E" width="5.494" height="5.5"/>
<rect x="48.63" y="161.885" fill="#35495E" width="5.493" height="5.499"/>
<rect x="58.528" y="161.972" fill="#35495E" width="5.502" height="5.497"/>
<rect x="38.727" y="171.066" fill="#35495E" width="5.498" height="5.497"/>
<rect x="68.431" y="171.084" fill="#35495E" width="5.494" height="5.499"/>
<rect x="48.63" y="171.048" fill="#35495E" width="5.493" height="5.499"/>
<rect x="58.528" y="171.137" fill="#35495E" width="5.502" height="5.497"/>
<rect x="38.727" y="180.232" fill="#35495E" width="5.498" height="5.496"/>
<rect x="68.431" y="180.248" fill="#35495E" width="5.494" height="5.5"/>
<rect x="48.63" y="180.213" fill="#35495E" width="5.493" height="5.498"/>
<rect x="58.528" y="180.302" fill="#35495E" width="5.502" height="5.498"/>
<rect x="38.727" y="189.53" fill="#35495E" width="5.498" height="5.496"/>
<rect x="68.431" y="189.547" fill="#35495E" width="5.494" height="5.499"/>
<rect x="48.63" y="189.511" fill="#35495E" width="5.493" height="5.498"/>
<rect x="58.528" y="189.599" fill="#35495E" width="5.502" height="5.496"/>
<rect x="38.727" y="198.691" fill="#35495E" width="5.498" height="5.499"/>
<rect x="68.431" y="198.709" fill="#35495E" width="5.494" height="5.5"/>
<rect x="48.63" y="198.676" fill="#35495E" width="5.493" height="5.498"/>
<rect x="58.528" y="198.761" fill="#35495E" width="5.502" height="5.498"/>
<rect x="38.727" y="207.984" fill="#35495E" width="5.498" height="5.5"/>
<rect x="68.431" y="208.003" fill="#35495E" width="5.494" height="5.497"/>
<rect x="48.63" y="207.969" fill="#35495E" width="5.493" height="5.498"/>
<rect x="58.528" y="208.057" fill="#35495E" width="5.502" height="5.498"/>
<rect x="38.727" y="217.151" fill="#35495E" width="5.498" height="5.498"/>
<rect x="68.431" y="217.169" fill="#35495E" width="5.494" height="5.497"/>
<rect x="48.63" y="217.132" fill="#35495E" width="5.493" height="5.499"/>
<rect x="58.528" y="217.223" fill="#35495E" width="5.502" height="5.498"/>
<rect x="38.727" y="226.316" fill="#35495E" width="5.498" height="5.499"/>
<rect x="68.431" y="226.331" fill="#35495E" width="5.494" height="5.499"/>
<rect x="48.63" y="226.297" fill="#35495E" width="5.493" height="5.498"/>
<rect x="58.528" y="226.386" fill="#35495E" width="5.502" height="5.499"/>
<rect x="38.727" y="235.476" fill="#35495E" width="5.498" height="5.502"/>
<rect x="68.431" y="235.496" fill="#35495E" width="5.494" height="5.499"/>
<rect x="48.63" y="235.461" fill="#35495E" width="5.493" height="5.498"/>
<rect x="58.528" y="235.549" fill="#35495E" width="5.502" height="5.499"/>
<rect x="38.727" y="244.775" fill="#35495E" width="5.498" height="5.5"/>
<rect x="68.431" y="244.792" fill="#35495E" width="5.494" height="5.502"/>
<rect x="48.63" y="244.755" fill="#35495E" width="5.493" height="5.502"/>
<rect x="58.528" y="244.842" fill="#35495E" width="5.502" height="5.501"/>
<rect x="38.727" y="253.94" fill="#35495E" width="5.498" height="5.499"/>
<rect x="68.431" y="253.957" fill="#35495E" width="5.494" height="5.499"/>
<rect x="48.63" y="253.923" fill="#35495E" width="5.493" height="5.496"/>
<rect x="58.528" y="254.007" fill="#35495E" width="5.502" height="5.497"/>
<rect x="38.727" y="263.232" fill="#35495E" width="5.498" height="5.5"/>
<rect x="68.431" y="263.253" fill="#35495E" width="5.494" height="5.497"/>
<rect x="48.63" y="263.215" fill="#35495E" width="5.493" height="5.499"/>
<rect x="58.528" y="263.305" fill="#35495E" width="5.502" height="5.498"/>
<rect x="38.727" y="272.397" fill="#35495E" width="5.498" height="5.498"/>
<rect x="68.431" y="272.414" fill="#35495E" width="5.494" height="5.502"/>
<rect x="48.63" y="272.379" fill="#35495E" width="5.493" height="5.5"/>
<rect x="58.528" y="272.469" fill="#35495E" width="5.502" height="5.499"/>
<rect x="38.207" y="69.774" fill="#35495E" width="5.498" height="5.502"/>
<rect x="67.912" y="69.795" fill="#35495E" width="5.494" height="5.496"/>
<rect x="48.11" y="69.757" fill="#35495E" width="5.493" height="5.501"/>
<rect x="58.009" y="69.843" fill="#35495E" width="5.502" height="5.502"/>
<rect x="38.207" y="78.939" fill="#35495E" width="5.498" height="5.5"/>
<rect x="67.912" y="78.957" fill="#35495E" width="5.494" height="5.499"/>
<rect x="48.11" y="78.92" fill="#35495E" width="5.493" height="5.499"/>
<rect x="58.009" y="79.012" fill="#35495E" width="5.502" height="5.499"/>
<rect x="38.207" y="88.235" fill="#35495E" width="5.498" height="5.501"/>
<rect x="67.912" y="88.254" fill="#35495E" width="5.494" height="5.5"/>
<rect x="48.11" y="88.218" fill="#35495E" width="5.493" height="5.498"/>
<rect x="58.009" y="88.301" fill="#35495E" width="5.502" height="5.5"/>
<rect x="38.207" y="97.401" fill="#35495E" width="5.498" height="5.498"/>
<rect x="67.912" y="97.418" fill="#35495E" width="5.494" height="5.5"/>
<rect x="48.11" y="97.382" fill="#35495E" width="5.493" height="5.499"/>
<rect x="58.009" y="97.47" fill="#35495E" width="5.502" height="5.497"/>
<rect x="38.207" y="106.564" fill="#35495E" width="5.498" height="5.497"/>
<rect x="67.912" y="106.582" fill="#35495E" width="5.494" height="5.499"/>
<rect x="48.11" y="106.546" fill="#35495E" width="5.493" height="5.499"/>
<rect x="58.009" y="106.635" fill="#35495E" width="5.502" height="5.497"/>
<rect x="38.207" y="115.73" fill="#35495E" width="5.498" height="5.496"/>
<rect x="67.912" y="115.746" fill="#35495E" width="5.494" height="5.5"/>
<rect x="48.11" y="115.711" fill="#35495E" width="5.493" height="5.498"/>
<rect x="58.009" y="115.8" fill="#35495E" width="5.502" height="5.498"/>
<rect x="38.207" y="125.028" fill="#35495E" width="5.498" height="5.496"/>
<rect x="67.912" y="125.045" fill="#35495E" width="5.494" height="5.499"/>
<rect x="48.11" y="125.009" fill="#35495E" width="5.493" height="5.498"/>
<rect x="58.009" y="125.097" fill="#35495E" width="5.502" height="5.496"/>
<rect x="38.467" y="60.247" fill="#35495E" width="5.498" height="5.502"/>
<rect x="68.172" y="60.268" fill="#35495E" width="5.494" height="5.496"/>
<rect x="48.37" y="60.23" fill="#35495E" width="5.493" height="5.501"/>
<rect x="58.269" y="60.317" fill="#35495E" width="5.502" height="5.502"/>
<rect x="118.693" y="134.28" fill="#35495E" width="5.498" height="5.502"/>
<rect x="148.398" y="134.301" fill="#35495E" width="5.494" height="5.496"/>
<rect x="128.596" y="134.263" fill="#35495E" width="5.493" height="5.501"/>
<rect x="138.495" y="134.35" fill="#35495E" width="5.502" height="5.502"/>
<rect x="118.693" y="143.445" fill="#35495E" width="5.498" height="5.5"/>
<rect x="148.398" y="143.463" fill="#35495E" width="5.494" height="5.499"/>
<rect x="128.596" y="143.426" fill="#35495E" width="5.493" height="5.499"/>
<rect x="138.495" y="143.518" fill="#35495E" width="5.502" height="5.499"/>
<rect x="118.693" y="152.741" fill="#35495E" width="5.498" height="5.501"/>
<rect x="148.398" y="152.76" fill="#35495E" width="5.494" height="5.5"/>
<rect x="128.596" y="152.724" fill="#35495E" width="5.493" height="5.498"/>
<rect x="138.495" y="152.808" fill="#35495E" width="5.502" height="5.5"/>
<rect x="118.693" y="161.907" fill="#35495E" width="5.498" height="5.498"/>
<rect x="148.398" y="161.924" fill="#35495E" width="5.494" height="5.5"/>
<rect x="128.596" y="161.888" fill="#35495E" width="5.493" height="5.499"/>
<rect x="138.495" y="161.976" fill="#35495E" width="5.502" height="5.497"/>
<rect x="118.693" y="171.07" fill="#35495E" width="5.498" height="5.497"/>
<rect x="148.398" y="171.088" fill="#35495E" width="5.494" height="5.499"/>
<rect x="128.596" y="171.052" fill="#35495E" width="5.493" height="5.499"/>
<rect x="138.495" y="171.141" fill="#35495E" width="5.502" height="5.497"/>
<rect x="118.693" y="180.236" fill="#35495E" width="5.498" height="5.496"/>
<rect x="148.398" y="180.252" fill="#35495E" width="5.494" height="5.5"/>
<rect x="128.596" y="180.217" fill="#35495E" width="5.493" height="5.498"/>
<rect x="138.495" y="180.306" fill="#35495E" width="5.502" height="5.498"/>
<rect x="118.693" y="189.534" fill="#35495E" width="5.498" height="5.496"/>
<rect x="148.398" y="189.551" fill="#35495E" width="5.494" height="5.499"/>
<rect x="128.596" y="189.515" fill="#35495E" width="5.493" height="5.498"/>
<rect x="138.495" y="189.603" fill="#35495E" width="5.502" height="5.496"/>
<rect x="118.693" y="198.695" fill="#35495E" width="5.498" height="5.499"/>
<rect x="148.398" y="198.713" fill="#35495E" width="5.494" height="5.5"/>
<rect x="128.596" y="198.68" fill="#35495E" width="5.493" height="5.498"/>
<rect x="138.495" y="198.765" fill="#35495E" width="5.502" height="5.498"/>
<rect x="118.693" y="207.988" fill="#35495E" width="5.498" height="5.5"/>
<rect x="148.398" y="208.007" fill="#35495E" width="5.494" height="5.497"/>
<rect x="128.596" y="207.973" fill="#35495E" width="5.493" height="5.498"/>
<rect x="138.495" y="208.061" fill="#35495E" width="5.502" height="5.498"/>
<rect x="118.693" y="217.155" fill="#35495E" width="5.498" height="5.498"/>
<rect x="148.398" y="217.173" fill="#35495E" width="5.494" height="5.497"/>
<rect x="128.596" y="217.136" fill="#35495E" width="5.493" height="5.499"/>
<rect x="138.495" y="217.227" fill="#35495E" width="5.502" height="5.498"/>
<rect x="118.693" y="226.32" fill="#35495E" width="5.498" height="5.499"/>
<rect x="148.398" y="226.335" fill="#35495E" width="5.494" height="5.499"/>
<rect x="128.596" y="226.301" fill="#35495E" width="5.493" height="5.498"/>
<rect x="138.495" y="226.39" fill="#35495E" width="5.502" height="5.499"/>
<rect x="118.693" y="235.48" fill="#35495E" width="5.498" height="5.502"/>
<rect x="148.398" y="235.5" fill="#35495E" width="5.494" height="5.499"/>
<rect x="128.596" y="235.465" fill="#35495E" width="5.493" height="5.498"/>
<rect x="138.495" y="235.553" fill="#35495E" width="5.502" height="5.499"/>
<rect x="118.693" y="244.779" fill="#35495E" width="5.498" height="5.5"/>
<rect x="148.398" y="244.796" fill="#35495E" width="5.494" height="5.502"/>
<rect x="128.596" y="244.759" fill="#35495E" width="5.493" height="5.502"/>
<rect x="138.495" y="244.846" fill="#35495E" width="5.502" height="5.501"/>
<rect x="118.693" y="253.944" fill="#35495E" width="5.498" height="5.499"/>
<rect x="148.398" y="253.961" fill="#35495E" width="5.494" height="5.499"/>
<rect x="128.596" y="253.927" fill="#35495E" width="5.493" height="5.496"/>
<rect x="138.495" y="254.011" fill="#35495E" width="5.502" height="5.497"/>
<rect x="118.693" y="263.235" fill="#35495E" width="5.498" height="5.5"/>
<rect x="148.398" y="263.256" fill="#35495E" width="5.494" height="5.497"/>
<rect x="128.596" y="263.219" fill="#35495E" width="5.493" height="5.499"/>
<rect x="138.495" y="263.309" fill="#35495E" width="5.502" height="5.498"/>
<rect x="118.693" y="272.401" fill="#35495E" width="5.498" height="5.498"/>
<rect x="148.398" y="272.418" fill="#35495E" width="5.494" height="5.501"/>
<rect x="128.596" y="272.383" fill="#35495E" width="5.493" height="5.5"/>
<rect x="138.495" y="272.473" fill="#35495E" width="5.502" height="5.499"/>
<rect x="118.174" y="69.778" fill="#35495E" width="5.498" height="5.502"/>
<rect x="147.879" y="69.799" fill="#35495E" width="5.494" height="5.496"/>
<rect x="128.077" y="69.76" fill="#35495E" width="5.493" height="5.501"/>
<rect x="137.976" y="69.847" fill="#35495E" width="5.502" height="5.502"/>
<rect x="118.174" y="78.943" fill="#35495E" width="5.498" height="5.5"/>
<rect x="147.879" y="78.961" fill="#35495E" width="5.494" height="5.499"/>
<rect x="128.077" y="78.924" fill="#35495E" width="5.493" height="5.499"/>
<rect x="137.976" y="79.016" fill="#35495E" width="5.502" height="5.499"/>
<rect x="118.174" y="88.238" fill="#35495E" width="5.498" height="5.501"/>
<rect x="147.879" y="88.257" fill="#35495E" width="5.494" height="5.5"/>
<rect x="128.077" y="88.222" fill="#35495E" width="5.493" height="5.498"/>
<rect x="137.976" y="88.305" fill="#35495E" width="5.502" height="5.5"/>
<rect x="118.174" y="97.405" fill="#35495E" width="5.498" height="5.498"/>
<rect x="147.879" y="97.422" fill="#35495E" width="5.494" height="5.5"/>
<rect x="128.077" y="97.386" fill="#35495E" width="5.493" height="5.499"/>
<rect x="137.976" y="97.474" fill="#35495E" width="5.502" height="5.497"/>
<rect x="118.174" y="106.568" fill="#35495E" width="5.498" height="5.497"/>
<rect x="147.879" y="106.586" fill="#35495E" width="5.494" height="5.499"/>
<rect x="128.077" y="106.55" fill="#35495E" width="5.493" height="5.499"/>
<rect x="137.976" y="106.639" fill="#35495E" width="5.502" height="5.497"/>
<rect x="118.174" y="115.734" fill="#35495E" width="5.498" height="5.496"/>
<rect x="147.879" y="115.75" fill="#35495E" width="5.494" height="5.5"/>
<rect x="128.077" y="115.715" fill="#35495E" width="5.493" height="5.498"/>
<rect x="137.976" y="115.804" fill="#35495E" width="5.502" height="5.498"/>
<rect x="118.174" y="125.032" fill="#35495E" width="5.498" height="5.496"/>
<rect x="147.879" y="125.049" fill="#35495E" width="5.494" height="5.499"/>
<rect x="128.077" y="125.012" fill="#35495E" width="5.493" height="5.498"/>
<rect x="137.976" y="125.101" fill="#35495E" width="5.502" height="5.496"/>
<rect x="118.434" y="60.251" fill="#35495E" width="5.498" height="5.502"/>
<rect x="148.138" y="60.272" fill="#35495E" width="5.494" height="5.496"/>
<rect x="128.337" y="60.234" fill="#35495E" width="5.493" height="5.501"/>
<rect x="138.235" y="60.321" fill="#35495E" width="5.502" height="5.502"/>
<rect x="111.899" y="301.669" fill="#35495E" width="5.501" height="5.498"/>
<rect x="111.881" y="291.771" fill="#35495E" width="5.501" height="5.493"/>
<rect x="130.359" y="301.669" fill="#35495E" width="5.501" height="5.498"/>
<rect x="130.343" y="291.771" fill="#35495E" width="5.498" height="5.493"/>
<rect x="148.689" y="301.669" fill="#35495E" width="5.497" height="5.498"/>
<rect x="148.671" y="291.771" fill="#35495E" width="5.499" height="5.493"/>
<rect x="56.561" y="302.189" fill="#35495E" width="5.5" height="5.498"/>
<rect x="56.543" y="292.291" fill="#35495E" width="5.499" height="5.493"/>
<rect x="75.024" y="302.189" fill="#35495E" width="5.498" height="5.498"/>
<rect x="75.005" y="292.291" fill="#35495E" width="5.499" height="5.493"/>
<rect x="93.352" y="302.189" fill="#35495E" width="5.496" height="5.498"/>
<rect x="93.334" y="292.291" fill="#35495E" width="5.498" height="5.493"/>
<rect x="37.87" y="301.929" fill="#35495E" width="5.502" height="5.498"/>
<rect x="37.853" y="292.031" fill="#35495E" width="5.501" height="5.493"/>
<path fill="none" stroke="#35495E" stroke-width="6" stroke-miterlimit="10" d="M32.867,286.109l7.865-8.121l7.865,8.121h35.947
	V51.907h-7.955V41.63H65.154c0-5.143-4.169-9.312-9.312-9.312s-9.312,4.169-9.312,9.312H35.09v10.277h-7.95v234.201h0.227h5.5
	V286.109z"/>
<path fill="none" stroke="#35495E" stroke-width="6" stroke-miterlimit="10" d="M156.658,51.907V41.63h-11.439
	c0-5.143-4.169-9.312-9.312-9.312c-5.143,0-9.312,4.169-9.312,9.312h-11.436v10.277h-7.955v234.201h36.173l7.865-8.121l7.865,8.121
	h5.501V51.907H156.658z"/>
</svg>
