<?xml version="1.0" encoding="utf-8"?>
<!-- Generator: Adobe Illustrator 20.1.0, SVG Export Plug-In . SVG Version: 6.00 Build 0)  -->
<svg version="1.1" id="Layer_1" xmlns="http://www.w3.org/2000/svg" xmlns:xlink="http://www.w3.org/1999/xlink" x="0px" y="0px"
	 viewBox="0 0 400 400" style="enable-background:new 0 0 400 400;" xml:space="preserve">
<style type="text/css">
	.st0{fill:#62A87B;}
</style>
<g>
	<path class="st0" d="M400,187.9V0H211.3c20.2,40.4,46.7,77.1,78.3,108.7C321.6,140.7,358.9,167.5,400,187.9z"/>
	<path class="st0" d="M200,0l-11.3,0v124.8v124.8c-10.1,17.5-22.3,34.1-36.5,49.8c-14.2,15.7-30.4,30.4-48.6,44
		c-15.3,11.5-31.7,21.9-49,31.3c-17.3,9.4-35.6,17.7-54.6,25l0,0.1v0.1h27.5h27.5c11-5.6,21.8-11.7,32.1-18.1s20.3-13.2,30-20.4
		c17-12.8,32.5-26.5,46.3-41s26-29.9,36.5-46c10.5,16.1,22.7,31.5,36.5,46s29.3,28.2,46.3,41c9.6,7.2,19.6,14,30,20.4
		c10.4,6.4,21.1,12.5,32.1,18.1h27.5H400v-0.1v-0.1c-19.1-7.3-37.3-15.6-54.6-25c-17.3-9.4-33.7-19.8-49-31.3
		c-18.2-13.6-34.4-28.4-48.6-44c-14.2-15.7-26.4-32.3-36.5-49.8V124.8V0L200,0z"/>
	<path class="st0" d="M200,0l-11.3,0v124.8v124.8c-10.1,17.5-22.3,34.1-36.5,49.8c-14.2,15.7-30.4,30.4-48.6,44
		c-15.3,11.5-31.7,21.9-49,31.3c-17.3,9.4-35.6,17.7-54.6,25v0.1v0.1h27.5h27.5c11-5.6,21.8-11.7,32.1-18.1s20.3-13.2,30-20.4
		c17-12.8,32.5-26.5,46.3-41s26-29.9,36.5-46c10.5,16.1,22.7,31.5,36.5,46s29.3,28.2,46.3,41c9.6,7.2,19.6,14,30,20.4
		c10.4,6.4,21.1,12.5,32.1,18.1h27.5H400v-0.1v-0.1c-19.1-7.3-37.3-15.6-54.6-25c-17.3-9.4-33.7-19.8-49-31.3
		c-18.2-13.6-34.4-28.4-48.6-44c-14.2-15.7-26.4-32.3-36.5-49.8V124.8V0L200,0z"/>
	<path class="st0" d="M0,187.9L0,0l188.7,0c-20.2,40.4-46.7,77.1-78.3,108.7C78.4,140.7,41.1,167.5,0,187.9z"/>
	<path class="st0" d="M211.3,345.6c-3.9-4.1-7.7-8.3-11.3-12.5c-3.6,4.2-7.4,8.4-11.3,12.5c-13.8,14.5-29.3,28.2-46.3,41
		c-6.2,4.6-12.5,9.1-19,13.4H200h76.6c-6.5-4.3-12.8-8.7-19-13.4C240.6,373.8,225.2,360.1,211.3,345.6z"/>
</g>
</svg>
