<?xml version="1.0" encoding="UTF-8" standalone="no"?><!DOCTYPE svg PUBLIC "-//W3C//DTD SVG 1.1//EN" "http://www.w3.org/Graphics/SVG/1.1/DTD/svg11.dtd"><svg width="100%" height="100%" viewBox="0 0 1152 840" version="1.1" xmlns="http://www.w3.org/2000/svg" xmlns:xlink="http://www.w3.org/1999/xlink" xml:space="preserve" style="fill-rule:evenodd;clip-rule:evenodd;stroke-linecap:round;stroke-linejoin:round;"><g id="Layer-1"><rect x="0" y="0" width="1152" height="780.902" style="fill:#3a5466;fill-rule:nonzero;"/><rect x="0" y="780.902" width="1152" height="59.098" style="fill:#d4e59d;fill-rule:nonzero;"/></g><g id="Layer-11"><g><g opacity="0.5"><g><clipPath id="_clip1"><rect x="495.54" y="614.42" width="656.46" height="166.48"/></clipPath><g clip-path="url(#_clip1)"><path d="M1152,780.9l-157.59,0l-24,-68.24l24,-68.24l157.59,136.48Z" style="fill:#3d3931;fill-rule:nonzero;"/><path d="M994.41,644.42l-24,68.24l24,68.24l-0.011,0l-78.8,-68.24l39.401,-34.12l2.479,-2.14l36.92,-31.98l0.011,0Z" style="fill:#d4e59d;fill-rule:nonzero;"/><path d="M994.399,780.9l-78.8,0l-78.79,0l39.391,-34.12l39.399,-34.12l78.8,68.24Z" style="fill:#3d3931;fill-rule:nonzero;"/><path d="M915.6,712.66l-39.399,34.12l-39.391,34.12l-34.859,0l-25,-83.19l24.96,-83.071l0.25,-0.219l113.439,98.24Z" style="fill:#3d3931;fill-rule:nonzero;"/><path d="M776.95,697.71l25,83.19l-96.07,0l-45.951,0l-25,-21.65l166.981,-144.61l-24.96,83.07Z" style="fill:#d4e59d;fill-rule:nonzero;"/><path d="M659.93,780.9l-50,0l25,-21.65l25,21.65Z" style="fill:#3d3931;fill-rule:nonzero;"/><path d="M634.87,759.2l-25.051,21.7l-32.09,0l-25,-35.83l24.161,-34.62l0.839,-0.73l57.141,49.48Z" style="fill:#3d3931;fill-rule:nonzero;"/><path d="M552.73,745.07l25,35.83l-41.37,0l-40.82,0l81.349,-70.45l-24.159,34.62Z" style="fill:#d4e59d;fill-rule:nonzero;"/></g></g></g></g><g><g opacity="0.25"><g><clipPath id="_clip2"><rect x="-76.545" y="644.422" width="418.49" height="136.48"/></clipPath><g clip-path="url(#_clip2)"><g><clipPath id="_clip3"><rect x="-76.545" y="644.422" width="418.49" height="136.48"/></clipPath><g clip-path="url(#_clip3)"><path d="M341.945,780.902l-103.12,0l-31.37,-44.95l30.32,-43.45l1.05,-0.911l103.12,89.311Z" style="fill:#3d3931;fill-rule:nonzero;"/><path d="M207.455,735.952l31.37,44.95l-0.17,0l-51.48,-44.58l50.6,-43.82l-30.32,43.45Z" style="fill:#d4e59d;fill-rule:nonzero;"/><path d="M238.655,780.902l-51.74,0l-51.21,0l51.47,-44.58l51.48,44.58Z" style="fill:#3d3931;fill-rule:nonzero;"/><path d="M186.835,736.022l-25.871,22.409l-25.95,22.471l-53.96,0l-24,-68.24l24,-68.241l105.78,91.601Z" style="fill:#3d3931;fill-rule:nonzero;"/><path d="M81.055,644.422l-24,68.24l24,68.24l-78.8,0l-78.8,0l39.4,-34.12l39.4,-34.12l39.4,-34.12l2.47,-2.14l36.93,-31.98Z" style="fill:#d4e59d;fill-rule:nonzero;"/></g></g><path d="M187.175,736.322l-51.47,44.58" style="fill:none;stroke:#3d3931;stroke-width:0.1px;"/><path d="M187.175,736.322l50.6,-43.82" style="fill:none;stroke:#d4e59d;stroke-width:0.1px;"/><path d="M238.825,780.902l103.12,0l-103.12,-89.311l-1.05,0.911" style="fill:none;stroke:#3d3931;stroke-width:0.1px;"/><path d="M186.835,736.022l-25.871,22.409l-25.95,22.471" style="fill:none;stroke:#3d3931;stroke-width:0.1px;"/><path d="M237.774,692.502l-30.32,43.45l31.37,44.95" style="fill:none;stroke:#d4e59d;stroke-width:0.1px;"/><path d="M186.835,736.022l0.079,-0.069l25.96,-22.481l25.95,-22.471l-1.05,1.5" style="fill:none;stroke:#d4e59d;stroke-width:0.1px;"/><path d="M238.655,780.902l0.17,0" style="fill:none;stroke:#d4e59d;stroke-width:0.1px;"/><path d="M187.175,736.322l51.48,44.58" style="fill:none;stroke:#3d3931;stroke-width:0.1px;"/><path d="M187.175,736.322l-0.34,-0.301" style="fill:none;stroke:#3d3931;stroke-width:0.1px;"/><path d="M186.835,736.022l-105.781,-91.601" style="fill:none;stroke:#3d3931;stroke-width:0.1px;"/><path d="M135.015,780.902l-53.96,0" style="fill:none;stroke:#3d3931;stroke-width:0.1px;"/><path d="M135.015,780.902l0.69,0" style="fill:none;stroke:#3d3931;stroke-width:0.1px;"/><path d="M238.655,780.902l-51.74,0l-51.21,0" style="fill:none;stroke:#3d3931;stroke-width:0.1px;"/><path d="M81.055,644.422l-24,68.24l24,68.24" style="fill:none;stroke:#d4e59d;stroke-width:0.1px;"/><path d="M44.125,676.402l36.93,-31.98" style="fill:none;stroke:#d4e59d;stroke-width:0.1px;"/><path d="M44.125,676.402l-2.47,2.14l-39.4,34.12l-39.4,34.12l-39.4,34.12" style="fill:none;stroke:#d4e59d;stroke-width:0.1px;"/><path d="M-76.545,780.902l157.6,0" style="fill:none;stroke:#d4e59d;stroke-width:0.1px;"/></g></g></g></g></g><g id="Layer-7"><g><g opacity="0.25"><clipPath id="_clip4"><rect x="59.515" y="57.798" width="121.5" height="121.5"/></clipPath><g clip-path="url(#_clip4)"><path d="M120.265,179.298c-33.551,0 -60.75,-27.199 -60.75,-60.75c0,-33.551 27.199,-60.75 60.75,-60.75c33.553,0 60.75,27.199 60.75,60.75c0,33.551 -27.197,60.75 -60.75,60.75" style="fill:#fff;fill-rule:nonzero;"/></g></g></g><path d="M120.265,159.048c-22.367,0 -40.5,-18.132 -40.5,-40.5c0,-22.368 18.133,-40.5 40.5,-40.5c22.368,0 40.5,18.132 40.5,40.5c0,22.368 -18.132,40.5 -40.5,40.5" style="fill:#f1f2f2;fill-rule:nonzero;"/><path d="M129.637,150.048c-2.485,0 -4.5,-2.015 -4.5,-4.5c0,-2.485 2.015,-4.5 4.5,-4.5l5,0c-2.485,0 -4.5,-2.015 -4.5,-4.5c0,-2.485 2.015,-4.5 4.5,-4.5l23.687,0c1.493,-4.224 2.313,-8.765 2.313,-13.5c0,-1.522 -0.091,-3.022 -0.255,-4.5l-33.745,0c-2.485,0 -4.5,-2.015 -4.5,-4.5c0,-2.485 2.015,-4.5 4.5,-4.5l31.687,0c-1.133,-3.204 -2.653,-6.224 -4.511,-9l-36.176,0c-2.485,0 -4.5,-2.015 -4.5,-4.5c0,-2.485 2.015,-4.5 4.5,-4.5l5,0c-2.485,0 -4.5,-2.015 -4.5,-4.5c0,-2.314 1.753,-4.197 3.999,-4.45c-0.662,-0.032 -1.328,-0.05 -1.999,-0.05c-14.041,0 -26.41,7.147 -33.676,18l17.176,0c2.485,0 4.5,2.015 4.5,4.5c0,2.485 -2.015,4.5 -4.5,4.5l-21.687,0c-1.013,2.866 -1.713,5.879 -2.058,9l32.745,0c2.485,0 4.5,2.015 4.5,4.5c0,2.485 -2.015,4.5 -4.5,4.5l-9,0c2.485,0 4.5,2.015 4.5,4.5c0,2.485 -2.015,4.5 -4.5,4.5l-21.687,0c2.521,7.128 6.977,13.338 12.741,18l22.946,0c2.485,0 4.5,2.015 4.5,4.5c0,2.314 -1.753,4.197 -3.999,4.45c0.662,0.032 1.328,0.05 1.999,0.05c9.642,0 18.491,-3.375 25.446,-9l-15.946,0Z" style="fill:#d1d3d4;fill-rule:nonzero;"/><path d="M810.962,71.756c-0.529,2.722 -3.165,4.5 -5.888,3.971c-2.722,-0.529 -4.5,-3.164 -3.971,-5.887c0.529,-2.722 3.165,-4.5 5.887,-3.971c2.722,0.529 4.5,3.165 3.972,5.887" style="fill:#f1f2f2;fill-rule:nonzero;"/><path d="M858.562,112.89c-0.529,2.722 -3.165,4.5 -5.887,3.971c-2.722,-0.529 -4.501,-3.164 -3.971,-5.887c0.528,-2.722 3.164,-4.5 5.886,-3.971c2.723,0.529 4.501,3.164 3.972,5.887" style="fill:#f1f2f2;fill-rule:nonzero;"/><path d="M909.156,161.071c-0.265,1.361 -1.583,2.25 -2.944,1.986c-1.362,-0.265 -2.25,-1.583 -1.986,-2.944c0.265,-1.361 1.582,-2.25 2.944,-1.985c1.361,0.264 2.25,1.582 1.986,2.943" style="fill:#f1f2f2;fill-rule:nonzero;"/><path d="M981.071,269.516c-0.265,1.361 -1.582,2.25 -2.943,1.986c-1.362,-0.265 -2.251,-1.583 -1.987,-2.944c0.265,-1.361 1.582,-2.25 2.944,-1.985c1.361,0.264 2.251,1.582 1.986,2.943" style="fill:#f1f2f2;fill-rule:nonzero;"/><path d="M899.621,233.671c-0.529,2.722 -3.164,4.5 -5.887,3.971c-2.722,-0.529 -4.501,-3.165 -3.971,-5.887c0.529,-2.722 3.164,-4.501 5.886,-3.971c2.723,0.529 4.501,3.164 3.972,5.887" style="fill:#f1f2f2;fill-rule:nonzero;"/><path d="M1032.37,212.13c-0.529,2.722 -3.165,4.5 -5.888,3.971c-2.721,-0.529 -4.5,-3.164 -3.971,-5.887c0.529,-2.722 3.165,-4.5 5.887,-3.971c2.723,0.529 4.5,3.165 3.972,5.887" style="fill:#f1f2f2;fill-rule:nonzero;"/><path d="M746.382,66.255c-0.265,1.361 -1.583,2.25 -2.944,1.985c-1.362,-0.264 -2.25,-1.582 -1.986,-2.943c0.265,-1.361 1.582,-2.25 2.944,-1.986c1.361,0.265 2.25,1.583 1.986,2.944" style="fill:#f1f2f2;fill-rule:nonzero;"/><path d="M1017.85,96.097c-0.265,1.361 -1.582,2.25 -2.943,1.986c-1.362,-0.265 -2.251,-1.583 -1.987,-2.944c0.265,-1.361 1.582,-2.25 2.944,-1.985c1.361,0.264 2.251,1.582 1.986,2.943" style="fill:#f1f2f2;fill-rule:nonzero;"/><path d="M334.546,72.299c-0.265,1.361 -1.582,2.25 -2.943,1.986c-1.362,-0.265 -2.251,-1.583 -1.987,-2.944c0.265,-1.361 1.582,-2.25 2.944,-1.985c1.361,0.264 2.251,1.582 1.986,2.943" style="fill:#f1f2f2;fill-rule:nonzero;"/><path d="M162.813,267.005c-0.265,1.361 -1.582,2.25 -2.943,1.986c-1.362,-0.265 -2.251,-1.583 -1.987,-2.944c0.265,-1.361 1.582,-2.25 2.944,-1.985c1.361,0.264 2.251,1.582 1.986,2.943" style="fill:#f1f2f2;fill-rule:nonzero;"/><path d="M578.465,74.81c-0.265,1.361 -1.582,2.25 -2.943,1.986c-1.362,-0.265 -2.251,-1.583 -1.987,-2.944c0.265,-1.361 1.582,-2.25 2.944,-1.985c1.361,0.264 2.251,1.582 1.986,2.943" style="fill:#f1f2f2;fill-rule:nonzero;"/><path d="M420.587,233.249c-0.265,1.361 -1.582,2.25 -2.943,1.986c-1.362,-0.265 -2.251,-1.583 -1.987,-2.944c0.265,-1.361 1.582,-2.25 2.944,-1.985c1.361,0.264 2.251,1.582 1.986,2.943" style="fill:#f1f2f2;fill-rule:nonzero;"/><path d="M732.847,173.571c-0.265,1.361 -1.582,2.25 -2.943,1.986c-1.362,-0.265 -2.251,-1.583 -1.987,-2.944c0.265,-1.361 1.582,-2.25 2.944,-1.985c1.361,0.264 2.251,1.582 1.986,2.943" style="fill:#f1f2f2;fill-rule:nonzero;"/><path d="M593.485,207.108c-0.529,2.722 -3.164,4.5 -5.887,3.971c-2.722,-0.529 -4.501,-3.165 -3.971,-5.887c0.529,-2.722 3.164,-4.501 5.886,-3.971c2.723,0.529 4.501,3.164 3.972,5.887" style="fill:#f1f2f2;fill-rule:nonzero;"/><path d="M277.97,185.444c-0.529,2.722 -3.164,4.5 -5.887,3.971c-2.722,-0.529 -4.501,-3.165 -3.971,-5.887c0.529,-2.722 3.164,-4.501 5.886,-3.971c2.723,0.529 4.501,3.164 3.972,5.887" style="fill:#f1f2f2;fill-rule:nonzero;"/><path d="M465.458,120.051c-0.529,2.722 -3.164,4.5 -5.887,3.971c-2.722,-0.529 -4.501,-3.165 -3.971,-5.887c0.529,-2.722 3.164,-4.501 5.886,-3.971c2.723,0.529 4.501,3.164 3.972,5.887" style="fill:#f1f2f2;fill-rule:nonzero;"/></g><g id="Layer-3"><rect x="1058.29" y="792.445" width="8.875" height="16.115" style="fill:#4a453d;fill-rule:nonzero;"/><rect x="1058.29" y="792.316" width="8.875" height="8.186" style="fill:#2d2b2c;fill-rule:nonzero;"/><path d="M1076.01,793.24l-59.137,0l29.569,-51.213l29.568,-51.215l0,102.428Z" style="fill:#73b086;fill-rule:nonzero;"/><rect x="1008.44" y="803.614" width="12" height="21.787" style="fill:#3d3931;fill-rule:nonzero;"/><rect x="1008.44" y="803.443" width="12" height="11.065" style="fill:#231f20;fill-rule:nonzero;"/><path d="M1032.39,804.691l-79.952,0l39.976,-69.24l39.976,-69.241l0,138.481Z" style="fill:#63a97b;fill-rule:nonzero;"/><rect x="893.513" y="787.225" width="5.973" height="10.845" style="fill:#58524a;fill-rule:nonzero;"/><rect x="893.513" y="787.14" width="5.973" height="5.508" style="fill:#393838;fill-rule:nonzero;"/><path d="M905.435,787.762l-39.796,0l19.898,-34.465l19.898,-34.465l0,68.93Z" style="fill:#82b690;fill-rule:nonzero;"/><rect x="169.69" y="789.592" width="8.875" height="16.115" style="fill:#4a453d;fill-rule:nonzero;"/><rect x="169.69" y="789.463" width="8.875" height="8.186" style="fill:#2d2b2c;fill-rule:nonzero;"/><path d="M187.406,790.388l-59.137,0l29.569,-51.213l29.568,-51.215l0,102.428Z" style="fill:#73b086;fill-rule:nonzero;"/><rect x="90.834" y="802.762" width="12" height="21.787" style="fill:#3d3931;fill-rule:nonzero;"/><rect x="90.834" y="802.59" width="12" height="11.065" style="fill:#231f20;fill-rule:nonzero;"/><path d="M114.787,803.839l-79.952,0l39.976,-69.24l39.976,-69.241l0,138.481Z" style="fill:#63a97b;fill-rule:nonzero;"/><path d="M314.277,793.821c0,9.089 -7.368,16.457 -16.457,16.457c-9.088,0 -16.457,-7.368 -16.457,-16.457c0,-9.089 7.369,-16.457 16.457,-16.457c9.089,0 16.457,7.368 16.457,16.457" style="fill:#cfa342;fill-rule:nonzero;"/><path d="M295.731,785.594l8.164,-14.142l8.164,14.142l-16.328,0Z" style="fill:#cfa342;fill-rule:nonzero;"/><path d="M283.575,785.594l11.985,-20.76l11.986,20.76l-23.971,0Z" style="fill:#cfa342;fill-rule:nonzero;"/><path d="M289.776,793.849c0,4.777 3.873,8.65 8.651,8.65c4.778,0 8.651,-3.873 8.651,-8.65c0,-4.778 -3.873,-8.651 -8.651,-8.651c-4.778,0 -8.651,3.873 -8.651,8.651" style="fill:#e1e671;fill-rule:nonzero;"/><path d="M299.525,789.523l-4.292,-7.434l-4.291,7.434l8.583,0Z" style="fill:#e1e671;fill-rule:nonzero;"/><path d="M305.916,789.523l-6.3,-10.913l-6.302,10.913l12.602,0Z" style="fill:#e1e671;fill-rule:nonzero;"/><path d="M322.482,808.232c0,4.707 -3.762,8.523 -8.403,8.523l-32.635,0c-4.641,0 -8.403,-3.816 -8.403,-8.523c0,-4.708 3.762,-8.525 8.403,-8.525l32.635,0c4.641,0 8.403,3.817 8.403,8.525" style="fill:#3d3931;fill-rule:nonzero;"/><g><g opacity="0.5"><clipPath id="_clip5"><rect x="305.676" y="799.829" width="16.806" height="16.806"/></clipPath><g clip-path="url(#_clip5)"><path d="M305.676,808.232c0,4.641 3.762,8.402 8.403,8.402c4.641,0 8.403,-3.761 8.403,-8.402c0,-4.642 -3.762,-8.403 -8.403,-8.403c-4.641,0 -8.403,3.761 -8.403,8.403" style="fill:#ae926c;fill-rule:nonzero;"/></g></g></g></g></svg>